<svg version="1.1" xmlns="http://www.w3.org/2000/svg" viewBox="0 0 412.21892139424597 129" width="412.21892139424597" height="129">
  <!-- svg-source:excalidraw -->
  
  <defs>
    <style>
      @font-face {
        font-family: "Virgil";
        src: url("https://excalidraw.com/FG_Virgil.woff2");
      }
      @font-face {
        font-family: "Cascadia";
        src: url("https://excalidraw.com/Cascadia.woff2");
      }
    </style>
  </defs>
  <rect x="0" y="0" width="412.21892139424597" height="129" fill="#ffffff"></rect><g><g transform="translate(312.452507854283 28.267555599290517) rotate(12.22375238089985 29.242967942822133 21.950842635712945)" fill-rule="evenodd"><path d="M-37.227806919192936 36.53903682130061 C-37.227806919192936 36.53903682130061, -37.227806919192936 36.53903682130061, -37.227806919192936 36.53903682130061 M-37.227806919192936 36.53903682130061 C-37.227806919192936 36.53903682130061, -37.227806919192936 36.53903682130061, -37.227806919192936 36.53903682130061 M-33.76263198682996 36.13755135395583 C-23.3738936095788 27.079216558500864, -18.816226596544478 19.013603688373998, -0.3289670812921073 -0.28839853542619687 M-31.596351683679543 36.65406472765859 C-20.39590629493198 22.30934171138186, -9.144048201444072 9.499763632858777, -0.4793060551421191 0.6989947506529715 M-25.89009922018744 35.306084394151284 C-19.342686693919774 24.802341280550294, -8.250190286471767 14.444229277908896, 4.422029666613809 0.5950720513006154 M-26.901637573004738 37.338255550408675 C-20.99518608741456 29.766551910588017, -14.025831071650668 22.046926357678295, 2.377475705008975 1.9307914243777695 M-21.916889199456758 36.8862515430888 C-12.224945770400545 22.893184759321688, 0.2806238431992867 13.270109963137621, 4.973548501251875 5.860289266590043 M-22.368937706044502 36.0527900461098 C-12.909841810606656 28.287136899785878, -5.51921910991398 17.302261583773944, 6.135003093151985 4.434894876811668 M-15.059172716993928 37.85793094558893 C-7.1663234853184274 27.60666653114087, 4.000915800983801 13.598063627984402, 12.116658217237596 5.808940014594315 M-16.211859398592352 36.51912350802003 C-6.381576325379234 26.10956440595947, 2.3076663521052687 14.415521545261292, 9.465814630464916 6.938162910544394 M-10.088380978183443 39.085309505803906 C-4.529845372924401 29.100814692490427, 2.0823184782452806 19.609938817986155, 12.712931080195974 7.395858279688431 M-11.476614129470283 37.68286373872908 C-4.0890370393270885 30.19046046971799, 3.122101390032956 22.699235083598843, 14.460608559135268 7.535444158388449 M-5.705441717400303 36.08572120810873 C-0.488077253171352 30.826110132856908, 5.876020037510318 24.90535730398036, 19.256560884742516 8.469605966024618 M-6.7912536564907935 38.85760937104947 C1.8279557122826224 27.618723736156305, 9.771731386752748 18.999384686409176, 17.81536090034105 8.30515892293356 M-1.6347201690195057 38.0249375368784 C8.858637177695119 25.901588663149624, 18.58880590897394 16.512996845364885, 23.500126838521204 12.54131121842342 M-1.8346109874663803 39.095240287793686 C3.3491844249170626 33.03776841642411, 8.272270928718777 27.461325807737705, 22.082089338288746 10.453137497437769 M1.6259809325839498 39.4671674764879 C10.760681643569992 29.774550707949818, 16.37927573619491 24.466630972018713, 24.640947736147552 12.006410941037068 M2.5386996197904566 39.31091762177422 C8.290185511105795 33.87514544991093, 12.40558061328244 28.33160588332882, 25.480207394156366 13.909362684490809 M7.055421353035062 40.12505751131226 C12.260952960676756 34.716165491043185, 17.51908172248917 26.661308511865485, 30.946845843246553 14.913489118240559 M8.173282657467215 38.408083755803595 C17.358849480468635 29.045751099438128, 24.733429452678 20.620030737758682, 29.147288310131405 14.471808116905176 M13.35892335795883 40.609691625726455 C20.044209761806155 35.66278528825885, 21.697074404049125 26.930693867508168, 32.66220592544321 15.959567234408894 M13.487961367751396 39.403462322694295 C20.29006168329547 30.658289889533894, 27.029442859711526 23.764851478592007, 33.670124078401365 17.176728677493372 M19.218371712980254 38.18059130410549 C25.17025210004376 29.971206420431475, 31.708200545508078 24.499952622290778, 38.25797524836253 20.240104273917073 M17.3507777428305 39.55205820525882 C22.88641098602792 33.74075791171029, 26.961045995950514 28.462855140919885, 36.95972544115375 18.423660499067896 M23.542213683724327 38.49571553082438 C28.01201784009233 34.14406437966755, 31.239108584540297 31.540619913492254, 38.68166357762949 18.99899672114009 M22.953992524892016 40.47215753630967 C29.161940208233656 32.99381089677833, 36.02278302391702 25.16849021875133, 40.12632189057605 20.100420964441245 M29.715459035816068 39.36146079025811 C33.94291232664061 35.51801845312624, 37.944332879924865 27.65224885209775, 44.263402207859635 20.623868980230185 M27.689085206123465 40.27032769865936 C31.9552138882691 36.49608375353682, 35.690401392439966 32.733080814423744, 44.01042069784629 20.953399126203152 M33.84968003488046 42.48266106678168 C37.46064843047257 37.20754246417197, 38.62659218652095 34.70341070935568, 46.34170784669692 25.4149116960079 M33.02175402871233 41.66641732512037 C37.03670251353417 37.26483551564418, 40.53332045191533 32.29820204574294, 48.433570797170944 23.731394027611664 M37.03301144654251 41.21258784477009 C40.58907073604361 36.3484879016476, 46.93010157875315 31.078519139717336, 53.44983678875686 24.80662427262545 M38.36691598484612 42.118556298505204 C43.05589602032859 35.78356527081935, 47.72983629658889 30.229728637408236, 52.00971695972802 24.782357221256497 M41.66216794138582 40.3651048654573 C44.35076367701576 37.41585004152647, 48.43744615880383 35.2062704909146, 56.87875236900218 28.09014869581218 M42.976546407656684 41.928050226333916 C47.37860717333747 36.71403921293573, 51.39480547013195 32.72865345168596, 55.410446503140705 27.19769769652988 M48.123447493810545 42.549636418104576 C52.424710211473275 37.34506464703491, 53.53637500421776 35.163894847972166, 59.789836423295874 29.528083908160834 M48.49794665088166 41.59844739782851 C52.042792927835464 36.48719101852417, 56.61544314098092 32.80241599448727, 59.73101086189164 28.359409364660888 M52.77463518374309 41.369971590578714 C57.546544596312415 38.22643770152649, 59.91455191032721 33.911333610476696, 61.87212597922047 31.82678834579395 M53.882286142862284 41.389419233516016 C56.759725916094425 38.118100107135845, 59.434029915307875 34.443738786355354, 62.991913814922775 31.105405531520713 M58.84948535028973 40.80171540312459 C61.264304757368336 38.342725593043724, 64.57944415445903 34.822131624138606, 68.62991027273289 30.951872903590218 M58.32536903478333 41.78304959375401 C60.665413184354435 40.033379651638796, 63.0709965150776 36.657828460178536, 67.45692998003265 31.520163970735982 M64.62864021904383 42.92573947130107 C65.45824619722661 38.966463301588774, 68.78221201530147 37.90391128771915, 70.55391403201519 33.43688762059268 M64.00555264655117 42.06552767815405 C66.49710054949495 39.73795077004405, 69.56092584693897 35.84594940735645, 70.64058955132512 34.05088023060765 M68.35765885542182 41.92369051282046 C71.35829765480881 39.76771564124629, 72.92552434165238 38.11014739257014, 73.96678760140185 35.35650588564507 M68.75834656505882 42.52012239978401 C70.87915173599988 39.41055453305006, 73.74291096255321 37.061656724818924, 74.54182174014841 35.929417320824484 M73.63424710048818 42.25422254989954 C74.7565238253064 41.8203758318108, 75.86605181629464 39.76142986308767, 78.76538232976985 38.02218933815169 M73.5988810240709 43.09834781198861 C75.60357785337764 41.115653937257505, 77.14260042451733 39.053691362937435, 78.17755121386092 37.32639329863745 M79.03062251405734 43.63116538600511 C80.29371110353203 42.10905015931266, 81.68029002129813 40.12806901139028, 81.56793628474611 39.40370039876683 M78.65581164797712 43.13584882748759 C79.70017276821906 41.88771915561675, 80.92731853637143 40.768797017622894, 82.22979053044605 39.76999458067252 M83.84273312469375 43.561805855853954 C84.4549705555937 42.94995964419291, 85.14234225846579 42.19324025314949, 85.93829300270761 41.392383519394784 M83.67796007679206 43.70201059337566 C84.62923026628063 42.74255371864425, 85.16887846363016 42.04593577774694, 85.61478076351221 41.33308531793067 M88.68947617971187 44.03516907541289 C89.0057062913677 43.841059510592785, 89.23619887431396 43.42664559051135, 89.46012023878127 43.21444643318985 M88.71595459115541 44.074567866122564 C89.0245238140913 43.76308908228386, 89.26400257536457 43.435933687662214, 89.42713212729275 43.24531677078787 M93.74671174321594 44.39240941849161 C93.74671174321594 44.39240941849161, 93.74671174321594 44.39240941849161, 93.74671174321594 44.39240941849161 M93.74671174321594 44.39240941849161 C93.74671174321594 44.39240941849161, 93.74671174321594 44.39240941849161, 93.74671174321594 44.39240941849161" stroke="#e64980" stroke-width="0.5" fill="none"></path><path d="M-1.7789331898093224 1.1159947142004967 C23.351567198694273 11.752653542643952, 50.410883249040864 21.614680940412274, 93.66320583443537 43.60504933075492 M-0.9177162535488605 0.9187249429523945 C32.037269424543126 15.632543255759142, 64.91829998095388 30.0026492822429, 95.22179198856846 44.11729548872893 M95.34662220101252 43.79648037628715 C65.62334010027799 41.77920403122064, 32.45041918805283 42.38263988705691, -36.32035609162914 37.08835610266616 M95.83896136875644 43.50044654311125 C45.70215515230353 42.31414122430634, -3.0965830919834048 37.844997360216865, -37.353025483112205 37.10415982346823 M-35.58426638520824 36.87457474585464 C-22.928918407241433 22.755799389692722, -14.489590217568317 10.74399414430436, -1.1452445015311241 1.9026665911078453 M-36.77147011659609 35.36325692277243 C-27.78659059196955 24.921955176051576, -16.757871042971768 15.85842289128706, 0.26354921981692314 -0.21561021730303764 M0 0 C0 0, 0 0, 0 0 M0 0 C0 0, 0 0, 0 0" stroke="#000000" stroke-width="1" fill="none"></path></g></g><g><g transform="translate(291.92832668080416 65.12480275497114) rotate(12.412558218939948 55.5 9.411595250121735)" fill-rule="evenodd"><path d="M0 0 C0 0, 0 0, 0 0 M0 0 C0 0, 0 0, 0 0 M0.39460220492905895 5.643074436853118 C1.625468609247782 4.227124611815137, 2.856335013566505 2.8111747867771566, 4.98701540786261 0.36010737529371317 M0.39460220492905895 5.643074436853118 C1.4232057661341175 4.459801396487796, 2.451809327339176 3.276528356122475, 4.98701540786261 0.36010737529371317 M1.4452634388486247 10.531439293483462 C4.603995529361707 6.897733689682038, 7.762727619874789 3.264028085880615, 9.97403081572522 0.7202147505874263 M1.4452634388486247 10.531439293483462 C4.168358461992439 7.398876808998054, 6.891453485136254 4.266314324512646, 9.97403081572522 0.7202147505874263 M1.8398656437776832 16.174513730336578 C5.441873175615832 12.030878063137848, 9.04388070745398 7.887242395939117, 14.961046223587829 1.080322125881139 M1.8398656437776832 16.174513730336578 C6.526686103629133 10.782943543006429, 11.213506563480582 5.3913733556762775, 14.961046223587829 1.080322125881139 M3.546585906687758 20.30816900674415 C9.135256871510176 13.879138490459084, 14.723927836332594 7.450107974174019, 19.94806163145044 1.4404295011748527 M3.546585906687758 20.30816900674415 C9.158510887488283 13.852387805136857, 14.77043586828881 7.396606603529563, 19.94806163145044 1.4404295011748527 M9.845719372531383 19.15885722159232 C15.51594714892463 12.636006325882494, 21.18617492531788 6.113155430172668, 24.279018010322545 2.5552464566913375 M9.845719372531383 19.15885722159232 C14.054648580705214 14.317038032279406, 18.263577788879047 9.47521884296649, 24.279018010322545 2.5552464566913375 M15.488793809384498 18.764255016663263 C18.797247558260942 14.958314347203892, 22.105701307137384 11.152373677744523, 29.266033418185152 2.915353831985051 M15.488793809384498 18.764255016663263 C20.505100495338052 12.993654284210773, 25.521407181291607 7.223053551758282, 29.266033418185152 2.915353831985051 M21.131868246237616 18.369652811734205 C25.05753673163202 13.85368780891333, 28.983205217026427 9.337722806092454, 34.25304882604776 3.2754612072787648 M21.131868246237616 18.369652811734205 C24.903049501425073 14.03140503786248, 28.674230756612534 9.693157263990756, 34.25304882604776 3.2754612072787648 M26.774942683090735 17.975050606805144 C30.7113618169344 13.4467183976511, 34.64778095077806 8.918386188497058, 39.240064233910374 3.635568582572475 M26.774942683090735 17.975050606805144 C30.348620335371642 13.864004738029443, 33.92229798765254 9.75295886925374, 39.240064233910374 3.635568582572475 M32.418017119943855 17.580448401876083 C36.98621414011181 12.3253388719137, 41.55441116027978 7.07022934195132, 44.22707964177298 3.9956759578661867 M32.418017119943855 17.580448401876083 C36.10936613967775 13.33403710954796, 39.80071515941165 9.087625817219838, 44.22707964177298 3.9956759578661867 M38.06109155679697 17.185846196947026 C41.207771656290404 13.566004822858709, 44.35445175578385 9.946163448770392, 49.21409504963559 4.355783333159902 M38.06109155679697 17.185846196947026 C42.18032719227395 12.447207659995346, 46.29956282775093 7.708569123043665, 49.21409504963559 4.355783333159902 M43.704165993650086 16.791243992017968 C46.4998982708912 13.57512190523174, 49.29563054813232 10.358999818445511, 54.2011104574982 4.7158907084536175 M43.704165993650086 16.791243992017968 C47.304001190608055 12.650107310235299, 50.903836387566024 8.508970628452632, 54.2011104574982 4.7158907084536175 M49.3472404305032 16.39664178708891 C51.51994683477519 13.897228981447656, 53.692653239047175 11.397816175806401, 59.18812586536081 5.075998083747329 M49.3472404305032 16.39664178708891 C52.58731712680718 12.669359918687794, 55.82739382311115 8.942078050286678, 59.18812586536081 5.075998083747329 M54.99031486735632 16.00203958215985 C57.42791275718285 13.19790398019481, 59.86551064700938 10.393768378229773, 64.17514127322343 5.436105459041041 M54.99031486735632 16.00203958215985 C57.397614465407734 13.232758177845671, 59.80491406345915 10.463476773531491, 64.17514127322343 5.436105459041041 M60.63338930420944 15.607437377230795 C62.84197448695937 13.06675075833883, 65.0505596697093 10.526064139446866, 68.50609765209552 6.5509224145575295 M60.63338930420944 15.607437377230795 C62.5341910480168 13.420815102764198, 64.43499279182417 11.234192828297601, 68.50609765209552 6.5509224145575295 M66.27646374106256 15.212835172301734 C68.65005262961836 12.482333503176307, 71.02364151817416 9.75183183405088, 73.49311305995813 6.911029789851241 M66.27646374106256 15.212835172301734 C68.88513000414692 12.211907918266188, 71.49379626723129 9.210980664230643, 73.49311305995813 6.911029789851241 M72.57559720690618 14.0635233871499 C74.80389928363056 11.500155076341219, 77.03220136035492 8.93678676553254, 78.48012846782075 7.27113716514495 M72.57559720690618 14.0635233871499 C73.98537459582828 12.441760017719394, 75.39515198475037 10.819996648288889, 78.48012846782075 7.27113716514495 M78.2186716437593 13.668921182220842 C79.89269468300564 11.743177964911748, 81.56671772225198 9.817434747602654, 83.46714387568335 7.631244540438665 M78.2186716437593 13.668921182220842 C79.48006428921445 12.217854933788297, 80.7414569346696 10.766788685355753, 83.46714387568335 7.631244540438665 M83.86174608061242 13.274318977291777 C85.21429022791612 11.718394920861916, 86.56683437521983 10.162470864432056, 88.45415928354596 7.991351915732373 M83.86174608061242 13.274318977291777 C84.8346763201017 12.155090767353322, 85.80760655959101 11.035862557414868, 88.45415928354596 7.991351915732373 M89.50482051746553 12.879716772362727 C90.74404710327603 11.454149658657968, 91.98327368908654 10.028582544953208, 93.44117469140858 8.351459291026096 M89.50482051746553 12.879716772362727 C90.70824244741566 11.495338203591164, 91.9116643773658 10.1109596348196, 93.44117469140858 8.351459291026096 M95.14789495431864 12.485114567433662 C96.4019154536969 11.042529002941402, 97.65593595307516 9.599943438449142, 98.42819009927118 8.711566666319804 M95.14789495431864 12.485114567433662 C96.16211610846915 11.318386593763698, 97.17633726261964 10.151658620093734, 98.42819009927118 8.711566666319804 M100.79096939117176 12.090512362504604 C101.61222133776563 11.145770068774262, 102.4334732843595 10.20102777504392, 103.41520550713379 9.07167404161352 M100.79096939117176 12.090512362504604 C101.50607693506039 11.267875236249708, 102.22118447894903 10.44523810999481, 103.41520550713379 9.07167404161352 M106.43404382802488 11.695910157575554 C106.94234073043614 11.111181459553332, 107.45063763284742 10.526452761531111, 108.4022209149964 9.431781416907235 M106.43404382802488 11.695910157575554 C106.90055342578887 11.159252254642482, 107.36706302355286 10.622594351709411, 108.4022209149964 9.431781416907235 M2.3243007443878927 18.665741068657294 C2.3243007443878927 18.665741068657294, 2.3243007443878927 18.665741068657294, 2.3243007443878927 18.665741068657294 M2.3243007443878927 18.665741068657294 C2.3243007443878927 18.665741068657294, 2.3243007443878927 18.665741068657294, 2.3243007443878927 18.665741068657294 M7.96737518124101 18.271138863728233 C6.112814362583638 16.658993739595775, 4.2582535439262665 15.046848615463318, 1.9296985394588342 13.022666631804174 M7.96737518124101 18.271138863728233 C5.797049220563187 16.384503289372738, 3.626723259885363 14.497867715017247, 1.9296985394588342 13.022666631804174 M13.610449618094128 17.876536658799175 C9.917861148803343 14.666618474231576, 6.225272679512559 11.456700289663976, 0.7803867543070031 6.723533165960552 M13.610449618094128 17.876536658799175 C9.648672015542132 14.432615930723362, 5.686894412990139 10.988695202647547, 0.7803867543070031 6.723533165960552 M19.253524054947246 17.481934453870114 C12.066076518413693 11.233981631611588, 4.878628981880141 4.986028809353064, 0.3857845493779438 1.0804587291074341 M19.253524054947246 17.481934453870114 C11.736655290384535 10.947620126930707, 4.219786525821824 4.413305799991299, 0.3857845493779438 1.0804587291074341 M24.89659849180036 17.08733224894106 C17.121798590677592 10.328801805720124, 9.34699868955482 3.570271362499188, 2.255311085117201 -2.594438620774161 M24.89659849180036 17.08733224894106 C19.30208150268625 12.224092825816594, 13.70756451357214 7.360853402692131, 2.255311085117201 -2.594438620774161 M30.539672928653477 16.692730044011995 C24.227682351944743 11.205800346458098, 17.91569177523601 5.718870648904199, 9.407804682415861 -1.676922767722206 M30.539672928653477 16.692730044011995 C23.49133453179752 10.565702951984228, 16.442996134941566 4.4386758599564615, 9.407804682415861 -1.676922767722206 M36.18274736550659 16.298127839082937 C28.868168397433394 9.939661349427407, 21.553589429360194 3.581194859771875, 15.805588699491752 -1.4154659436607577 M36.18274736550659 16.298127839082937 C31.61026045570472 12.32332560955387, 27.037773545902844 8.3485233800248, 15.805588699491752 -1.4154659436607577 M41.82582180235971 15.90352563415388 C35.28364040002541 10.216494104716707, 28.74145899769111 4.529462575279535, 22.958082296790412 -0.4979500906088017 M41.82582180235971 15.90352563415388 C36.11990680002103 10.943449395514218, 30.41399179768235 5.983373156874558, 22.958082296790412 -0.4979500906088017 M47.46889623921283 15.508923429224824 C43.539944322088544 12.09353763415104, 39.61099240496425 8.678151839077259, 29.3558663138663 -0.2364932665473507 M47.46889623921283 15.508923429224824 C40.32119007051773 9.295517250970939, 33.17348390182263 3.082111072717055, 29.3558663138663 -0.2364932665473507 M52.35726109584317 14.458262195305256 C46.35749014940562 9.242740881631988, 40.35771920296808 4.027219567958721, 36.50835991116496 0.6810225865046071 M52.35726109584317 14.458262195305256 C47.59685170888202 10.320101448644053, 42.83644232192086 6.18194070198285, 36.50835991116496 0.6810225865046071 M58.0003355326963 14.063659990376202 C53.217963772205806 9.906407643674982, 48.43559201171532 5.749155296973763, 42.90614392824085 0.9424794105660546 M58.0003355326963 14.063659990376202 C54.687025954046305 11.183443915376294, 51.37371637539631 8.303227840376389, 42.90614392824085 0.9424794105660546 M63.64340996954941 13.66905778544714 C59.36639279889036 9.951103481580947, 55.08937562823131 6.233149177714755, 50.05863752553951 1.859995263618007 M63.64340996954941 13.66905778544714 C59.83251353040863 10.356296051710983, 56.02161709126786 7.043534317974824, 50.05863752553951 1.859995263618007 M69.28648440640252 13.27445558051808 C65.7518170117826 10.201816091783549, 62.21714961716268 7.12917660304902, 56.4564215426154 2.121452087679458 M69.28648440640252 13.27445558051808 C64.55700608909065 9.163182802489462, 59.827527771778776 5.051910024460845, 56.4564215426154 2.121452087679458 M74.92955884325565 12.879853375589018 C72.17365703570181 10.484184483558701, 69.41775522814797 8.088515591528385, 63.60891513991406 3.038967940731414 M74.92955884325565 12.879853375589018 C72.0555500783662 10.381515671903022, 69.18154131347673 7.883177968217026, 63.60891513991406 3.038967940731414 M80.57263328010876 12.485251170659964 C78.1756055555894 10.401546759557476, 75.77857783107004 8.31784234845499, 70.00669915698995 3.300424764792858 M80.57263328010876 12.485251170659964 C78.2551816018444 10.470721161214797, 75.93772992358004 8.456191151769628, 70.00669915698995 3.300424764792858 M86.21570771696187 12.090648965730907 C83.32289092620582 9.57596169459457, 80.43007413544977 7.061274423458234, 77.15919275428861 4.2179406178448176 M86.21570771696187 12.090648965730907 C82.69113761782891 9.026786922050997, 79.16656751869594 5.962924878371088, 77.15919275428861 4.2179406178448176 M91.85878215381499 11.696046760801842 C89.18495727935796 9.371726258193213, 86.51113240490093 7.0474057555845855, 83.5569767713645 4.479397441906265 M91.85878215381499 11.696046760801842 C88.89659325646596 9.121055237429864, 85.93440435911694 6.546063714057888, 83.5569767713645 4.479397441906265 M97.50185659066811 11.301444555872784 C95.70177845160327 9.736660502550812, 93.90170031253845 8.17187644922884, 90.70947036866316 5.3969132949582175 M97.50185659066811 11.301444555872784 C95.3757073248878 9.453211196512253, 93.24955805910749 7.604977837151721, 90.70947036866316 5.3969132949582175 M103.14493102752124 10.906842350943727 C101.7594350539811 9.7024490758475, 100.37393908044095 8.498055800751274, 97.10725438573905 5.658370119019665 M103.14493102752124 10.906842350943727 C101.49025421425938 9.468453741803174, 99.83557740099751 8.030065132662621, 97.10725438573905 5.658370119019665 M108.78800546437435 10.512240146014669 C107.56693167187454 9.450776892299622, 106.34585787937473 8.389313638584575, 104.25974798303771 6.5758859720716245 M108.78800546437435 10.512240146014669 C107.83795054927478 9.686370008121497, 106.88789563417522 8.860499870228324, 104.25974798303771 6.5758859720716245" stroke="#a61e4d" stroke-width="0.5" fill="none"></path><path d="M0 0 C0.6732740284900132 5.058288426627609, 1.3465480569800263 10.116576853255218, 2.5054255962195384 18.82319050024347 M0 0 C0.7425162997810274 5.578503620863252, 1.4850325995620548 11.157007241726504, 2.5054255962195384 18.82319050024347 M2.5054255962195384 18.82319050024347 C32.00526826579035 16.42415134984182, 61.50511093536116 14.02511219944017, 111.00000000000001 10 M2.5054255962195384 18.82319050024347 C30.658701157803655 16.53365929694811, 58.81197671938777 14.244128093652748, 111.00000000000001 10 M111.00000000000001 10 C70.6374280105345 6.363732253201306, 30.274856021068985 2.7274645064026117, 0 0 M111.00000000000001 10 C82.86804977701978 7.465590070001781, 54.73609955403954 4.931180140003562, 0 0 M0 0 C0 0, 0 0, 0 0 M0 0 C0 0, 0 0, 0 0" stroke="transparent" stroke-width="1" fill="none"></path></g></g><g><g transform="translate(397.78206053683664 93.42709348301423) rotate(355.3714819066315 -92.02751227654517 -11.596825383603544)" fill-rule="evenodd"><path d="M-183.69193376180664 0.6456103322509108 C-183.69193376180664 0.6456103322509108, -183.69193376180664 0.6456103322509108, -183.69193376180664 0.6456103322509108 M-183.69193376180664 0.6456103322509108 C-183.69193376180664 0.6456103322509108, -183.69193376180664 0.6456103322509108, -183.69193376180664 0.6456103322509108 M-178.6066176149388 1.4806902279407328 C-177.8619318492861 -0.8958054676986286, -175.67138915315485 -2.4005219654191428, -174.3790626459339 -3.8740868049512214 M-178.51643459213423 0.7053840267733277 C-177.21093062040197 -0.5540603503673818, -176.11462368481602 -1.4144963676945737, -174.19828296513796 -4.358115102800221 M-171.76444838600278 -0.40920334304393213 C-170.7418220763914 -0.8688837510050491, -167.85994060571363 -3.1428178324078724, -165.24423453563955 -10.887804192275105 M-172.53786226430952 -0.07052308800340601 C-171.51956312579537 -1.9857222170397266, -168.61308946267755 -4.015267436244359, -163.82171472625936 -10.234085601911246 M-169.16975555940158 -0.2524160366162249 C-161.80569457342068 -2.5858160814737037, -159.42885688984563 -9.786089276458018, -153.61992769530733 -16.873743924548833 M-168.88797254859097 1.6952988025144151 C-164.9868529289336 -2.4642977623706432, -160.9721241165311 -7.365325095154569, -154.45338919228632 -14.893664597770183 M-163.3614210460256 0.6221355918439855 C-154.202671051231 -7.697424276603747, -146.453799700824 -14.251923611650202, -143.42892705730475 -20.60327832967134 M-161.51079192868576 0.3402587037178506 C-155.13792177296673 -8.041502456723034, -149.70608904851318 -14.729704545990533, -144.76773449487365 -20.177097218186574 M-159.06257726330034 2.2497259631246465 C-151.9326934029892 -3.926259896106899, -145.69444797280158 -10.337153149971675, -134.95040434855883 -23.214641940902865 M-158.06308876428477 0.5590619436890023 C-151.4067103708681 -6.681623070503176, -144.62754501792367 -13.220789803497569, -136.35285011563366 -22.674264409702218 M-150.7797096688697 -0.6893668175948306 C-146.41968032286283 -9.580987695708824, -139.12649922440553 -14.726680046143663, -133.97914364267564 -21.96965583217289 M-151.31367761459444 0.14392510416978155 C-146.14734890635762 -5.295700964190529, -141.72218739959806 -11.767533807006135, -131.2072554797349 -22.156142519684096 M-147.74510233633976 -1.0194638242438572 C-140.1915053512631 -5.073301863583076, -137.98699284879456 -10.035001426608135, -128.06907831032757 -19.686545638970244 M-146.0423279047833 1.605121837793277 C-144.02531129778237 -3.767634191261429, -138.89276825647383 -8.067459768950854, -126.99877555941228 -21.102456207058538 M-140.91836572335444 -0.8571619516430076 C-134.36449522326777 -9.051417219889764, -126.63938717169329 -16.71221026725679, -121.99994033814914 -20.18813617589271 M-141.6662916940578 0.008306226301414199 C-137.37805080364794 -5.720680718694472, -132.6236343568119 -11.056143512635982, -122.15619019286282 -20.524873059860823 M-136.48490890351977 2.676342726278264 C-130.9152646422456 -4.8871384393184485, -125.71624814810507 -14.318946373360296, -117.37120129974642 -20.806561016869765 M-135.36377590758647 0.8871894223272392 C-128.28071573675447 -7.620970314540377, -122.15051408781858 -14.98879469648958, -119.08817505525508 -18.846713175457936 M-130.85746733447976 -0.3324216853005737 C-127.2640873537023 -6.143307313182865, -123.65114642632966 -9.511531082445527, -112.25965915276333 -17.416229556721916 M-130.70047010457583 0.08086300761272014 C-123.27925679391204 -7.380681404548587, -118.01216350994328 -14.25218098906401, -113.4658884557955 -19.310916222107878 M-124.17457508984043 1.6984737396910106 C-120.25555054462666 -4.2749615632113045, -116.44616862069893 -6.785371939387172, -110.71791047080589 -18.146150369378653 M-124.75301871019437 1.6464756347908889 C-122.43270806496939 -3.291774684089269, -118.10536243410057 -8.336313518760285, -109.34644356965256 -18.06736479717764 M-119.30209262724573 0.05868210643248517 C-117.21765930432446 -3.4123837401387545, -114.00010491949814 -7.497361622011538, -106.43193724050862 -16.412898269437733 M-120.73554878364855 -0.3034436143962864 C-115.41918647586141 -4.028579735945947, -111.63590372402712 -8.316089074711746, -104.45549523502332 -17.58085148870248 M-115.33167902030169 0.03325734099438904 C-108.56016881490469 -3.4564401024006877, -104.26217381667846 -10.074152822862743, -100.93928394850599 -16.406485571496916 M-115.12314225010692 0.31169141268423317 C-109.78660901386996 -5.451984545413154, -104.09459919789185 -13.016709555842157, -100.03041704010474 -16.491950134717655 M-110.58231972665232 -0.8850224514438239 C-106.42438245095757 -3.906811283451722, -99.49045463839943 -9.087656249762238, -93.84723466840404 -14.576233349485683 M-110.27836366877597 1.3778472977744016 C-105.25868831842148 -4.993247521760838, -101.23447280118573 -10.076474720551273, -94.66347841006535 -15.47788708259015 M-104.0987988199036 1.2920216551883854 C-99.31652449607398 -3.6134294347916622, -96.06042513534791 -12.060499737975443, -90.49039985784671 -16.663738498224568 M-103.5747324648242 0.49904769350725786 C-100.20134681629197 -3.3423863579749606, -97.26491777633336 -8.053524559413995, -89.5844314041116 -14.660508250577998 M-98.6531261700186 -0.6842392874746319 C-97.2555088718271 -2.299706888082981, -93.27004135695863 -8.58722495391603, -87.36703383358113 -15.34292875351409 M-98.0546489127892 0.8114444323019382 C-95.55436125105095 -2.4634729459847056, -92.28972088390834 -6.583881261753525, -85.8040884727045 -13.707413878198961 M-94.21454696277472 0.7120280204324558 C-91.12297013123678 -1.9793035038469877, -87.21206528899685 -8.213614670548363, -79.5387234099066 -12.431113121022042 M-93.40929150706472 0.9981305975450708 C-90.12007248004542 -1.9597937363515903, -86.78467185240417 -6.919543951545628, -80.66826037148444 -13.909785444584248 M-87.23382684248402 -1.1877889687909686 C-84.84099257155091 -1.437106074806249, -83.31312632246573 -6.987306610446973, -77.0400388118532 -11.707428065011415 M-88.72740771002039 0.8701541832865275 C-84.28201479365461 -3.579985537438838, -81.07741009685805 -7.813930012839726, -77.0164238168579 -12.48800464707813 M-83.13354077152391 1.060496785963909 C-78.58295164801658 -1.8462641821010093, -75.31751602921543 -6.29630430532575, -73.8540174578833 -12.351198164775735 M-82.2565472852387 0.013073259319202002 C-79.99962404406217 -2.8238904668278573, -76.79397232543562 -7.816871966312954, -72.64622153095479 -11.634009398177033 M-77.18205366469921 -0.9461132205724001 C-73.79543572843642 -5.287735061048473, -69.34619431262198 -7.051020032995668, -66.60382128264845 -11.792268963575388 M-77.72332253027709 -0.03552353025220617 C-74.72619139703028 -2.2348172391839825, -73.62270107112022 -4.667231545713461, -67.77683736421258 -10.951542145617331 M-73.42393025052316 0.9685669109372455 C-68.05897555903904 -3.6267274158610627, -64.4061435846118 -8.134727587970447, -64.2585877685681 -9.305858370666975 M-72.98686974499887 0.31622907334547823 C-69.24953520787061 -1.8081206773678855, -66.91914268570999 -5.083016388695519, -63.330804833291474 -10.295789632578963 M-67.26460656342196 0.6415234308139008 C-65.63662315643037 -2.505282576313367, -63.76482368786523 -4.076922928541483, -59.528013203974716 -10.001696444323196 M-66.41336352736789 0.594116797056846 C-63.55914160508826 -2.3061365843275494, -60.551778759332635 -6.493587266306508, -57.96035200295215 -9.12786188407047 M-62.50597155065888 -0.548421042855294 C-58.2080099370907 -2.6920157610099222, -56.42984837704843 -4.589272329893527, -53.13543429003781 -7.905489375050651 M-62.37155931787246 0.4644677902800723 C-58.817137040186424 -2.7815368567665284, -56.79231682523967 -6.0713977092523255, -54.324194030479845 -8.926920252646791 M-55.47553616175627 1.1574931333303735 C-54.31743475266686 -2.0257449434000616, -52.42007328565234 -2.964084623270636, -49.9382280421469 -7.243245013372142 M-55.801797311475624 0.20553503022494723 C-53.772370459734624 -1.9985063685010802, -51.5802951843628 -4.805440103366971, -49.47087891707454 -6.833628645480712 M-51.98435522368888 0.0919090232191132 C-48.79143291405368 -2.074729472573154, -47.91277876460029 -3.8001314770409858, -44.554579605300226 -7.010195548043946 M-50.92201584516803 0.276049602994089 C-48.17214076483788 -2.552295807713443, -46.308765366892644 -5.72325035886001, -44.16059169820348 -6.819932081134418 M-45.3187375733193 -0.3192335280045824 C-43.485780116328684 -1.1907363803940643, -42.00025605314411 -3.8044467030291838, -39.99541573583494 -6.091600168413469 M-45.38266979097686 0.008687923623625748 C-43.62901306884611 -2.5077524507633906, -41.749772760095425 -4.757334857612786, -40.62673329322944 -6.021413158542463 M-40.00674057137098 0.8274019577932762 C-38.643129347663695 -1.658564439447438, -37.92587874606882 -2.7565984729571724, -35.804015047363194 -6.049612509764045 M-40.809404793194204 0.22275032935861827 C-39.341160202725284 -1.4504719263934387, -37.13059809163557 -3.344042343194365, -34.896466037146 -5.7513403157957494 M-34.584669907581294 -0.04032979154290722 C-33.85998620501642 -1.2544621410770476, -32.23178871568186 -3.0288413259309213, -30.89736499187037 -4.82533139538473 M-34.98264327031025 0.18747791914937934 C-33.914704856203954 -1.2481379962899415, -32.952167013392675 -2.470412317930876, -30.679174325954758 -4.343696983051361 M-30.451255645463004 0.5388713595000094 C-28.78257074175601 -0.43896984121856464, -27.464227648080755 -1.9935814656272313, -26.1772006992345 -3.6354071303281392 M-30.170907253259553 0.23611141224475574 C-28.623695192693607 -0.9944847576216801, -27.394546621544023 -1.8793366676183372, -26.01680087299098 -3.975394529384693 M-23.94550418505008 0.026873410098207928 C-23.380425074814813 -1.1585117770390099, -22.15965444758844 -2.013984922025654, -22.00345386201102 -3.1823750956531103 M-24.11140860640938 0.05454997529829836 C-23.807569062737652 -0.8032190520499608, -22.93522189648807 -1.2825400136061078, -21.774758106559105 -3.0095636761363083 M-18.427724936474924 -0.09176216022949668 C-18.422555837888257 -0.638126372810451, -17.758680102745046 -0.8997013879260483, -17.451009009574534 -1.7974507136422644 M-18.678711283449893 -0.25371698895376193 C-18.207023829839123 -0.7236536767620182, -17.699805156216346 -1.4270299581838155, -17.341399140824556 -1.8194762835431346 M-13.703880176233469 -0.04198610569841743 C-13.496513980224696 -0.33918607756103136, -13.092341759842732 -0.5972309431401159, -12.178529148014722 -1.3826989205857951 M-13.694672281207858 0.0323146755664837 C-13.301678479593596 -0.25243854479679995, -13.01026778284782 -0.6302033456281351, -12.33855635135108 -1.4558311699262103 M-7.967421809501877 -0.30090914684368775 C-7.967421809501877 -0.30090914684368775, -7.967421809501877 -0.30090914684368775, -7.967421809501877 -0.30090914684368775 M-7.967421809501877 -0.30090914684368775 C-7.967421809501877 -0.30090914684368775, -7.967421809501877 -0.30090914684368775, -7.967421809501877 -0.30090914684368775 M-2.980406401639267 0.05919822845002565 C-2.980406401639267 0.05919822845002565, -2.980406401639267 0.05919822845002565, -2.980406401639267 0.05919822845002565 M-2.980406401639267 0.05919822845002565 C-2.980406401639267 0.05919822845002565, -2.980406401639267 0.05919822845002565, -2.980406401639267 0.05919822845002565" stroke="#e64980" stroke-width="0.5" fill="none"></path><path d="M0.7867350801825523 0.48905549198389053 C-39.22510777011514 -5.995606041178098, -77.65681722730397 -16.365066787824013, -136.8840052857995 -25.819150827825034 M-0.7702009193599224 -0.3685784228146076 C-39.524546678662304 -7.410252921804776, -79.70902547344566 -16.07168652616439, -137.0812750570476 -24.228278744965756 M-137.96363136917353 -24.449821375310385 C-156.4208164760843 -15.431900525689104, -172.66886939127 -4.950221561118951, -184.545725800097 2.2699035182595253 M-137.65390403196216 -23.601526845246518 C-150.10846685450525 -16.236815143674583, -163.25999144967645 -9.123513898178917, -184.8417596332729 0.42074228450655937 M-184.68095491081476 2.6255000606179237 C-116.30667977433652 1.7738212256878616, -47.73610035579651 3.2463372926414014, 0.5831649526953697 1.9554315581917763 M-184.57262225076556 1.9513332955539227 C-141.52413611922412 3.0416000308841467, -97.9970798156038 2.2089132478833196, -0.9281528703868389 -0.8672064431011677 M0 0 C0 0, 0 0, 0 0 M0 0 C0 0, 0 0, 0 0" stroke="#000000" stroke-width="1" fill="none"></path></g></g><g><g transform="translate(294.0416769117659 53.36118136545355) rotate(355.3714819066315 -0.2818871284173383 10.249525480498647)"><path d="M-1.4419888812944994 0.35300567955228956 C1.1258343040095196 3.9068149386872553, 0.9169066550549839 10.698900867341274, -0.06317621020441688 20.464510617154648 M0.8782146244598603 0.03454034384267024 C-1.0794816150613453 3.8723607914401885, -0.5121515107985881 9.13974946330153, -0.9137868077244848 20.019843225316347" stroke="#000000" stroke-width="1" fill="none"></path></g></g><g><g transform="translate(67 90) rotate(0 56 -25.5)" fill-rule="evenodd"><path d="M0 0 C0 0, 0 0, 0 0 M0 0 C0 0, 0 0, 0 0 M3.018838320891088 2.624236115962029 C6.347437140971859 -1.2048788069720198, 9.67603596105263 -5.033993729906069, 14.171841813729712 -10.205826747825094 M3.018838320891088 2.624236115962029 C7.389276287503774 -2.403377646548436, 11.759714254116462 -7.430991409058901, 14.171841813729712 -10.205826747825094 M5.381617612791668 6.00318181214683 C11.6588125134814 -1.217904887575462, 17.936007414171137 -8.438991587297753, 27.68762459846892 -19.65694391542742 M5.381617612791668 6.00318181214683 C13.924821086741883 -3.8246495607462725, 22.468024560692097 -13.652480933639374, 27.68762459846892 -19.65694391542742 M8.400455933682757 8.627417928108859 C18.51730404861388 -3.0106845239613325, 28.634152163545007 -14.648786976031523, 41.85946641219863 -29.862770663252512 M8.400455933682757 8.627417928108859 C21.694412356567568 -6.665529547750653, 34.98836877945238 -21.958477023610165, 41.85946641219863 -29.862770663252512 M11.419294254573845 11.251654044070888 C27.232811506163564 -6.93971660920233, 43.04632875775328 -25.131087262475546, 56.03130822592834 -40.06859741107761 M11.419294254573845 11.251654044070888 C23.065142693805072 -2.145362075704817, 34.710991133036295 -15.542378195480522, 56.03130822592834 -40.06859741107761 M13.782073546474425 14.63059974025569 C25.634998851945806 0.9953689356909816, 37.48792415741718 -12.639861868873727, 70.20315003965806 -50.274424158902704 M13.782073546474425 14.63059974025569 C27.761367542148367 -1.450738427621964, 41.740661537822305 -17.532076595499618, 70.20315003965806 -50.274424158902704 M16.800911867365514 17.254835856217717 C33.03763683204376 -1.423379579884795, 49.274361796722 -20.101595015987307, 83.71893282439726 -59.725541326505024 M16.800911867365514 17.254835856217717 C37.31500639375756 -6.3439303896891275, 57.8291009201496 -29.942696635595972, 83.71893282439726 -59.725541326505024 M19.819750188256602 19.879071972179748 C47.029086998261945 -11.421689475486087, 74.2384238082673 -42.722450923151925, 97.89077463812697 -69.93136807433012 M19.819750188256602 19.879071972179748 C50.27534115132299 -15.156077694977501, 80.73093211438938 -50.191227362134754, 97.89077463812697 -69.93136807433012 M22.182529480157182 23.25801766836455 C55.34291995295868 -14.888647902658857, 88.50331042576019 -53.035313473682265, 112.06261645185668 -80.13719482215522 M22.182529480157182 23.25801766836455 C47.60336232699993 -5.98530532388947, 73.02419517384268 -35.228628316143485, 112.06261645185668 -80.13719482215522 M25.20136780104827 25.882253784326576 C44.2382675147507 3.9828057822486187, 63.275167228453135 -17.91664221982934, 115.08145477274778 -77.51295870619319 M25.20136780104827 25.882253784326576 C54.77498355297182 -8.138299463979866, 84.34859930489536 -42.158852712286304, 115.08145477274778 -77.51295870619319 M27.56414709294885 29.26119948051138 C40.12855355081136 14.807503235902715, 52.69296000867388 0.35380699129405, 73.48827912228437 -23.568471135082664 M27.56414709294885 29.26119948051138 C39.54990007704919 15.473167910847414, 51.53565306114953 1.6851363411834477, 73.48827912228437 -23.568471135082664" stroke="#40c057" stroke-width="0.5" fill="none"></path><path d="M0 0 C10.654463635757565 11.034980194177479, 21.30892727151513 22.069960388354957, 28 29 M0 0 C6.657150251790881 6.89490561792627, 13.314300503581762 13.78981123585254, 28 29 M28 29 C55.73934805057943 -6.995106398966165, 83.47869610115886 -42.99021279793233, 112 -80 M28 29 C46.25933505035937 5.306339041795582, 64.51867010071874 -18.387321916408837, 112 -80 M112 -80 C81.25701871365308 -58.04072765260935, 50.51403742730617 -36.0814553052187, 0 0 M112 -80 C87.9056031897664 -62.78971656411886, 63.811206379532805 -45.579433128237724, 0 0 M0 0 C0 0, 0 0, 0 0 M0 0 C0 0, 0 0, 0 0" stroke="#000000" stroke-width="1" fill="none"></path></g></g><g><g transform="translate(179 10) rotate(0 -84.5 30)" fill-rule="evenodd"><path d="M-169.26857968268348 46.30896558178051 C-169.26857968268348 46.30896558178051, -169.26857968268348 46.30896558178051, -169.26857968268348 46.30896558178051 M-169.26857968268348 46.30896558178051 C-169.26857968268348 46.30896558178051, -169.26857968268348 46.30896558178051, -169.26857968268348 46.30896558178051 M-164.9376233038114 47.423782537297 C-164.3359817357155 46.73167308488859, -163.73434016761962 46.03956363248018, -162.31338718784934 44.40494421640591 M-164.9376233038114 47.423782537297 C-163.90846232293265 46.23986825894952, -162.8793013420539 45.05595398060204, -162.31338718784934 44.40494421640591 M-160.60666692493928 48.53859949281348 C-159.05925723227577 46.75850826934582, -157.51184753961226 44.97841704587816, -155.3581946930152 42.50092285103131 M-160.60666692493928 48.53859949281348 C-159.37256030285812 47.11892222362907, -158.13845368077693 45.699244954444666, -155.3581946930152 42.50092285103131 M-156.93176957505767 50.40812602855274 C-154.51508270273703 47.62804580048931, -152.09839583041637 44.84796557242588, -148.40300219818107 40.5969014856567 M-156.93176957505767 50.40812602855274 C-154.98991846613472 48.17428186132071, -153.04806735721178 45.94043769408867, -148.40300219818107 40.5969014856567 M-152.60081319618558 51.522942984069225 C-149.85315862478745 48.362127971176434, -147.10550405338932 45.20131295828365, -141.44780970334696 38.69288012028209 M-152.60081319618558 51.522942984069225 C-148.63097229664038 46.956163431538585, -144.66113139709518 42.389383879007944, -141.44780970334696 38.69288012028209 M-148.2698568173135 52.63775993958571 C-144.4178185211832 48.206496780311966, -140.5657802250529 43.77523362103822, -134.49261720851283 36.7888587549075 M-148.2698568173135 52.63775993958571 C-144.68434665078473 48.51310232024129, -141.09883648425597 44.388444700896855, -134.49261720851283 36.7888587549075 M-144.59495946743186 54.50728647532496 C-140.31047750679895 49.57855378650453, -136.02599554616606 44.649821097684104, -127.53742471367869 34.88483738953289 M-144.59495946743186 54.50728647532496 C-140.21115363673232 49.46429474429693, -135.82734780603275 44.421303013268904, -127.53742471367869 34.88483738953289 M-140.26400308855978 55.622103430841456 C-135.74273862469897 50.42098363092496, -131.22147416083817 45.21986383100845, -120.58223221884455 32.980816024158294 M-140.26400308855978 55.622103430841456 C-135.13585725681475 49.722846478379886, -130.00771142506974 43.82358952591831, -120.58223221884455 32.980816024158294 M-136.5891057386782 57.4916299665807 C-131.71116991775398 51.880206705737805, -126.83323409682977 46.268783444894915, -113.62703972401043 31.076794658783683 M-136.5891057386782 57.4916299665807 C-131.88001672478174 52.07444273820268, -127.17092771088528 46.65725550982465, -113.62703972401043 31.076794658783683 M-132.25814935980608 58.60644692209719 C-123.21889599989022 48.20797543198363, -114.17964263997438 37.80950394187006, -106.67184722917631 29.172773293409094 M-132.25814935980608 58.60644692209719 C-122.88175454752566 47.82013855641882, -113.50535973524522 37.033830190740446, -106.67184722917631 29.172773293409094 M-127.927192980934 59.72126387761367 C-119.71536524525698 50.274636684949606, -111.50353750957997 40.82800949228553, -99.71665473434217 27.268751928034483 M-127.927192980934 59.72126387761367 C-117.09028577745894 47.254828198750204, -106.2533785739839 34.78839251988674, -99.71665473434217 27.268751928034483 M-124.9083546600429 62.3454999935757 C-112.7676955805517 48.37926934568813, -100.6270365010605 34.41303869780055, -92.76146223950803 25.36473056265988 M-124.9083546600429 62.3454999935757 C-112.59520039839788 48.18083633774053, -100.28204613675284 34.01617268190536, -92.76146223950803 25.36473056265988 M-115.98498507823724 58.17734988753279 C-109.77054091034141 51.02844964834658, -103.55609674244559 43.87954940916036, -85.8062697446739 23.460709197285276 M-115.98498507823724 58.17734988753279 C-104.054231917236 44.45258837676475, -92.12347875623473 30.727826865996718, -85.8062697446739 23.460709197285276 M-107.06161549643159 54.00919978148987 C-100.34665030211809 46.284515966362946, -93.63168510780461 38.55983215123602, -78.85107724983976 21.55668783191067 M-107.06161549643159 54.00919978148987 C-99.09232925234069 44.84158465818672, -91.1230430082498 35.673969534883575, -78.85107724983976 21.55668783191067 M-98.13824591462594 49.84104967544695 C-89.38606739568162 39.77282001289504, -80.6338888767373 29.70459035034313, -71.89588475500564 19.65266646653607 M-98.13824591462594 49.84104967544695 C-88.76986894837673 39.06396478653684, -79.40149198212751 28.28687989762674, -71.89588475500564 19.65266646653607 M-89.21487633282028 45.67289956940403 C-80.05420624301348 35.134754109115846, -70.8935361532067 24.596608648827658, -64.94069226017152 17.748645101161465 M-89.21487633282028 45.67289956940403 C-81.82857097008471 37.17592723402592, -74.44226560734916 28.678954898647806, -64.94069226017152 17.748645101161465 M-80.29150675101462 41.50474946336111 C-75.64592281608516 36.16061647152479, -71.0003388811557 30.81648347968848, -57.98549976533738 15.844623735786865 M-80.29150675101462 41.50474946336111 C-75.7268129136731 36.25366988424699, -71.16211907633158 31.002590305132863, -57.98549976533738 15.844623735786865 M-71.36813716920896 37.33659935731819 C-66.35432921681576 31.568873089011586, -61.34052126442255 25.80114682070498, -51.03030727050324 13.940602370412261 M-71.36813716920896 37.33659935731819 C-66.1815088510215 31.370066000077497, -60.99488053283404 25.4035326428368, -51.03030727050324 13.940602370412261 M-62.44476758740332 33.16844925127528 C-58.35951562584873 28.46890445916522, -54.27426366429414 23.769359667055163, -44.075114775669114 12.036581005037657 M-62.44476758740332 33.16844925127528 C-55.26255794117389 24.90626218021496, -48.08034829494446 16.644075109154638, -44.075114775669114 12.036581005037657 M-53.52139800559766 29.000299145232354 C-50.17422668942291 25.14981900954855, -46.82705537324816 21.299338873864748, -37.119922280834984 10.132559639663054 M-53.52139800559766 29.000299145232354 C-50.10154855833623 25.066212383650576, -46.681699111074806 21.132125622068795, -37.119922280834984 10.132559639663054 M-44.59802842379201 24.83214903918943 C-39.894018540627705 19.420804682341824, -35.190008657463395 14.009460325494215, -30.164729786000848 8.228538274288452 M-44.59802842379201 24.83214903918943 C-39.02793145366961 18.42448545960316, -33.45783448354722 12.01682188001689, -30.164729786000848 8.228538274288452 M-35.67465884198636 20.663998933146516 C-32.97636341278182 17.559965118040765, -30.27806798357729 14.455931302935017, -23.20953729116672 6.324516908913848 M-35.67465884198636 20.663998933146516 C-33.11017773850559 17.71390089078697, -30.545696635024825 14.763802848427424, -23.20953729116672 6.324516908913848 M-26.751289260180705 16.4958488271036 C-23.322252141829576 12.55119285896429, -19.893215023478447 8.60653689082498, -16.25434479633259 4.420495543539245 M-26.751289260180705 16.4958488271036 C-22.798798147258847 11.949027920976484, -18.846307034336988 7.402207014849367, -16.25434479633259 4.420495543539245 M-17.82791967837505 12.327698721060678 C-14.7751332234836 8.815869629361327, -11.72234676859215 5.304040537661978, -9.299152301498456 2.5164741781646423 M-17.82791967837505 12.327698721060678 C-14.801281176947601 8.845949408939802, -11.774642675520154 5.364200096818925, -9.299152301498456 2.5164741781646423 M-8.904550096569396 8.159548615017759 C-6.343887936123749 5.21384376407479, -3.783225775678101 2.2681389131318204, -2.343959806664324 0.6124528127900392 M-8.904550096569396 8.159548615017759 C-6.496111297886614 5.388956710287764, -4.087672499203832 2.6183648055577695, -2.343959806664324 0.6124528127900392" stroke="#40c057" stroke-width="0.5" fill="none"></path><path d="M0 0 C-49.96773871155457 13.600686276517811, -99.93547742310913 27.201372553035622, -169 46 M0 0 C-58.187262319307784 15.837953057326379, -116.37452463861557 31.675906114652758, -169 46 M-169 46 C-155.076521751564 50.75435842629523, -141.153043503128 55.508716852590446, -128 60.00000000000001 M-169 46 C-158.11196824731306 49.7178645009175, -147.22393649462612 53.43572900183499, -128 60.00000000000001 M-128 60.00000000000001 C-98.80292066335679 46.3138690609485, -69.60584132671356 32.62773812189698, 0 0 M-128 60.00000000000001 C-95.60065313577653 44.81280615739525, -63.20130627155304 29.62561231479049, 0 0 M0 0 C0 0, 0 0, 0 0 M0 0 C0 0, 0 0, 0 0" stroke="#000000" stroke-width="1" fill="none"></path></g></g><g><g transform="translate(175 12) rotate(0 -61 49)" fill-rule="evenodd"><path d="M-122.28402975450108 59.326738856288785 C-122.28402975450108 59.326738856288785, -122.28402975450108 59.326738856288785, -122.28402975450108 59.326738856288785 M-122.28402975450108 59.326738856288785 C-122.28402975450108 59.326738856288785, -122.28402975450108 59.326738856288785, -122.28402975450108 59.326738856288785 M-121.88942754957202 64.9698132931419 C-119.03471837732266 61.685846049582196, -116.18000920507329 58.401878806022495, -112.7046011437049 54.40387917002309 M-121.88942754957202 64.9698132931419 C-119.05210574066602 61.70584792305727, -116.21478393176001 58.44188255297264, -112.7046011437049 54.40387917002309 M-121.49482534464295 70.61288772999501 C-116.35482741290114 64.69999649613791, -111.21482948115936 58.78710526228082, -103.78123156189926 50.23572906398018 M-121.49482534464295 70.61288772999501 C-115.21323404860821 63.38674355596217, -108.93164275257347 56.16059938192933, -103.78123156189926 50.23572906398018 M-121.1002231397139 76.25596216684814 C-110.70200137682404 64.2941763595417, -100.30377961393418 52.33239055223525, -94.8578619800936 46.06757895793726 M-121.1002231397139 76.25596216684814 C-112.61293240480937 66.49245104251438, -104.12564166990484 56.728939918180615, -94.8578619800936 46.06757895793726 M-120.70562093478485 81.89903660370126 C-107.90489751684846 67.1734887941331, -95.10417409891207 52.44794098456495, -85.27843336929745 41.14471927167156 M-120.70562093478485 81.89903660370126 C-111.59856168366271 71.42256335852052, -102.49150243254057 60.946090113339785, -85.27843336929745 41.14471927167156 M-120.31101872985579 87.54211104055436 C-110.96693488656705 76.79297219281072, -101.6228510432783 66.04383334506709, -76.35506378749179 36.976569165628646 M-120.31101872985579 87.54211104055436 C-108.04541025579493 73.43214255665245, -95.77980178173407 59.322174072750556, -76.35506378749179 36.976569165628646 M-119.91641652492673 93.18518547740749 C-115.52388313252331 88.13215383512326, -111.13134974011989 83.07912219283904, -108.76341303208811 80.35512261362037 M-119.91641652492673 93.18518547740749 C-116.31723953777329 89.04480597938927, -112.71806255061983 84.90442648137105, -108.76341303208811 80.35512261362037 M-108.76341303208811 80.35512261362037 C-92.74580370226825 61.9289708813871, -76.72819437244837 43.502819149153844, -67.43169420568614 32.808419059585724 M-108.76341303208811 80.35512261362037 C-93.90865926214033 63.26668317962525, -79.05390549219254 46.17824374563013, -67.43169420568614 32.808419059585724 M-93.93551218936788 69.3945862855725 C-85.4007082313006 59.57641745038707, -76.86590427323331 49.75824861520164, -57.85226559488998 27.885559373320035 M-93.93551218936788 69.3945862855725 C-82.15146469775082 55.838590342024254, -70.36741720613378 42.28259439847601, -57.85226559488998 27.885559373320035 M-79.10761134664766 58.43404995752462 C-68.06176939972565 45.72726235062893, -57.01592745280364 33.020474743733246, -48.92889601308433 23.717409267277112 M-79.10761134664766 58.43404995752462 C-68.36608925052002 46.077342292672995, -57.624567154392395 33.72063462782137, -48.92889601308433 23.717409267277112 M-64.93576953291796 48.228223209699536 C-57.322582266368435 39.47025310000369, -49.70939499981892 30.71228299030785, -40.005526431278675 19.549259161234193 M-64.93576953291796 48.228223209699536 C-57.41900678204468 39.58117681651923, -49.90224403117141 30.93413042333893, -40.005526431278675 19.549259161234193 M-50.10786869019773 37.26768688165166 C-44.00470063526116 30.246795167292127, -37.90153258032458 23.225903452932588, -30.42609782048251 14.626399474968503 M-50.10786869019773 37.26768688165166 C-42.867579300673384 28.938686708805367, -35.62728991114904 20.60968653595907, -30.42609782048251 14.626399474968503 M-35.279967847477515 26.307150553603798 C-31.373186887382275 21.81291316317767, -27.466405927287035 17.318675772751543, -21.50272823867686 10.458249368925586 M-35.279967847477515 26.307150553603798 C-31.998840310181222 22.53264509463527, -28.71771277288493 18.758139635666744, -21.50272823867686 10.458249368925586 M-21.1081260337478 16.101323805778705 C-17.704766428093244 12.186206437021546, -14.301406822438683 8.271089068264388, -12.579358656871205 6.290099262882666 M-21.1081260337478 16.101323805778705 C-18.530126443350664 13.135674523157135, -15.952126852953526 10.170025240535566, -12.579358656871205 6.290099262882666 M-6.280225191027582 5.140787477730836 C-5.553765556218739 4.305091264725431, -4.827305921409896 3.469395051720025, -2.9999300460750455 1.3672395766169751 M-6.280225191027582 5.140787477730836 C-5.017400400424268 3.688073734765296, -3.7545756098209537 2.2353599917997564, -2.9999300460750455 1.3672395766169751 M-119.79519839652508 98.17803131778423 C-119.79519839652508 98.17803131778423, -119.79519839652508 98.17803131778423, -119.79519839652508 98.17803131778423 M-119.79519839652508 98.17803131778423 C-119.79519839652508 98.17803131778423, -119.79519839652508 98.17803131778423, -119.79519839652508 98.17803131778423 M-117.92567186078583 94.50313396790263 C-118.46139873381803 94.03743370208397, -118.99712560685025 93.57173343626532, -120.18980060145414 92.5349568809311 M-117.92567186078583 94.50313396790263 C-118.71412754372177 93.81773989937058, -119.50258322665772 93.13234583083852, -120.18980060145414 92.5349568809311 M-116.05614532504657 90.82823661802104 C-117.02790590917958 89.98349802990167, -117.99966649331257 89.1387594417823, -120.5844028063832 86.891882444078 M-116.05614532504657 90.82823661802104 C-116.98788173518697 90.0182905135455, -117.91961814532738 89.20834440906994, -120.5844028063832 86.891882444078 M-113.43190920908454 87.80939829712995 C-115.0452445813308 86.40694725438647, -116.65857995357707 85.00449621164297, -120.97900501131225 81.24880800722488 M-113.43190920908454 87.80939829712995 C-116.39065637308491 85.23739862691306, -119.34940353708527 82.66539895669617, -120.97900501131225 81.24880800722488 M-111.56238267334527 84.13450094724836 C-114.36529126872604 81.69796967797275, -117.1681998641068 79.26143840869715, -121.37360721624131 75.60573357037177 M-111.56238267334527 84.13450094724836 C-114.78066478210661 81.33689099155089, -117.99894689086796 78.53928103585342, -121.37360721624131 75.60573357037177 M-109.69285613760603 80.45960359736675 C-113.37405669597692 77.25958477273325, -117.05525725434782 74.05956594809975, -121.76820942117038 69.96265913351864 M-109.69285613760603 80.45960359736675 C-113.77760808011725 76.90878290647268, -117.86236002262847 73.35796221557861, -121.76820942117038 69.96265913351864 M-107.068620021644 77.44076527647567 C-112.66972983913094 72.571794795082, -118.2708396566179 67.70282431368834, -121.40810204587666 64.97564372565604 M-107.068620021644 77.44076527647567 C-111.07068257199707 73.96182537754277, -115.07274512235014 70.48288547860986, -121.40810204587666 64.97564372565604 M-103.68967432545921 75.0779859845751 C-107.83722066537898 71.4725789568046, -111.98476700529875 67.86717192903411, -121.80270425080573 59.332569288802915 M-103.68967432545921 75.0779859845751 C-108.51954823426534 70.87944065032531, -113.34942214307148 66.6808953160755, -121.80270425080573 59.332569288802915 M-100.3107286292744 72.71520669267451 C-105.86879127221198 67.88365654921706, -111.42685391514956 63.052106405759616, -119.1784681348437 56.31373096791182 M-100.3107286292744 72.71520669267451 C-106.06726024305657 67.71113010499383, -111.82379185683874 62.70705351731314, -119.1784681348437 56.31373096791182 M-96.93178293308958 70.35242740077392 C-103.95925384659446 64.24354013527484, -110.98672476009936 58.13465286977576, -115.7995224386589 53.95095167601124 M-96.93178293308958 70.35242740077392 C-100.9827329472187 66.83099027793503, -105.03368296134782 63.30955315509613, -115.7995224386589 53.95095167601124 M-93.5528372369048 67.98964810887335 C-100.43577652994234 62.00640026424161, -107.3187158229799 56.023152419609865, -111.66586716225132 52.244231413101176 M-93.5528372369048 67.98964810887335 C-98.26162320755644 63.89636291337077, -102.97040917820807 59.80307771786819, -111.66586716225132 52.244231413101176 M-90.17389154071999 65.62686881697277 C-95.18659873992212 61.26938892815044, -100.19930593912424 56.91190903932811, -107.53221188584374 50.5375111501911 M-90.17389154071999 65.62686881697277 C-94.995345704271 61.43564265560905, -99.816799867822 57.24441649424533, -107.53221188584374 50.5375111501911 M-86.79494584453518 63.26408952507218 C-92.80873376466542 58.03638344206354, -98.82252168479565 52.8086773590549, -104.15326618965894 48.174731858290514 M-86.79494584453518 63.26408952507218 C-92.09686994618858 58.65519721859667, -97.39879404784197 54.046304912121165, -104.15326618965894 48.174731858290514 M-83.41600014835039 60.901310233171614 C-90.03447021224125 55.14796198199758, -96.6529402761321 49.39461373082355, -100.01961091325137 46.46801159538045 M-83.41600014835039 60.901310233171614 C-88.54610372292372 56.441779232171406, -93.67620729749704 51.9822482311712, -100.01961091325137 46.46801159538045 M-80.79176403238836 57.88247191228052 C-85.48159421399868 53.8056647327964, -90.17142439560901 49.728857553312274, -95.88595563684379 44.76129133247038 M-80.79176403238836 57.88247191228052 C-83.97775978812216 55.11292805508234, -87.16375554385596 52.34338419788417, -95.88595563684379 44.76129133247038 M-77.41281833620356 55.519692620379935 C-81.56896932470065 51.906805685717615, -85.72512031319773 48.293918751055294, -91.75230036043622 43.054571069560296 M-77.41281833620356 55.519692620379935 C-80.5575911149053 52.78598335040901, -83.70236389360707 50.052274080438096, -91.75230036043622 43.054571069560296 M-74.03387264001876 53.15691332847935 C-78.43211523368043 49.33357937211081, -82.8303578273421 45.51024541574228, -88.37335466425142 40.691791777659716 M-74.03387264001876 53.15691332847935 C-77.67951420542894 49.98780546483668, -81.32515577083913 46.818697601194025, -88.37335466425142 40.691791777659716 M-70.65492694383396 50.794134036578775 C-73.60964479829201 48.22563699170957, -76.56436265275008 45.65713994684036, -84.23969938784386 38.98507151474964 M-70.65492694383396 50.794134036578775 C-74.4251810071961 47.51670218110032, -78.19543507055826 44.23927032562187, -84.23969938784386 38.98507151474964 M-67.27598124764916 48.431354744678195 C-72.22392217098742 44.13017532052207, -77.17186309432569 39.82899589636594, -80.10604411143628 37.278351251839574 M-67.27598124764916 48.431354744678195 C-71.38303570395941 44.861146774318655, -75.49009016026967 41.290938803959115, -80.10604411143628 37.278351251839574 M-63.897035551464356 46.06857545277762 C-66.51238036340621 43.79509089294009, -69.12772517534808 41.52160633310256, -76.72709841525148 34.915571959938994 M-63.897035551464356 46.06857545277762 C-66.59445373248948 43.72374560166811, -69.29187191351461 41.37891575055858, -76.72709841525148 34.915571959938994 M-60.518089855279555 43.705796160877036 C-64.33182382485403 40.39056779956671, -68.14555779442851 37.075339438256385, -72.59344313884391 33.20885169702892 M-60.518089855279555 43.705796160877036 C-62.95355298746244 41.58868035963009, -65.38901611964532 39.471564558383136, -72.59344313884391 33.20885169702892 M-57.139144159094755 41.343016868976456 C-60.96888349036875 38.01387525900678, -64.79862282164275 34.684733649037106, -68.45978786243633 31.502131434118848 M-57.139144159094755 41.343016868976456 C-60.55603338516794 38.37276038016388, -63.97292261124113 35.40250389135131, -68.45978786243633 31.502131434118848 M-53.76019846290995 38.98023757707587 C-56.74795393170938 36.38302137221062, -59.73570940050881 33.78580516734537, -64.32613258602876 29.79541117120877 M-53.76019846290995 38.98023757707587 C-56.927597212166596 36.226859850971366, -60.094995961423244 33.473482124866855, -64.32613258602876 29.79541117120877 M-50.38125276672515 36.61745828517529 C-53.3130261632907 34.06890655325842, -56.244799559856254 31.520354821341552, -60.947186889843955 27.43263187930819 M-50.38125276672515 36.61745828517529 C-53.49298086933986 33.91247431388227, -56.604708971954565 31.207490342589256, -60.947186889843955 27.43263187930819 M-47.75701665076312 33.5986199642842 C-51.28177347535938 30.534595602635434, -54.80653029995564 27.470571240986672, -56.81353161343638 25.725911616398115 M-47.75701665076312 33.5986199642842 C-50.68215755055595 31.05583377385047, -53.60729845034878 28.513047583416743, -56.81353161343638 25.725911616398115 M-44.37807095457832 31.235840672383624 C-47.243690473708696 28.744795628776274, -50.10930999283908 26.253750585168923, -52.679876337028816 24.019191353488043 M-44.37807095457832 31.235840672383624 C-46.77147378148775 29.155287336699388, -49.164876608397186 27.074734001015155, -52.679876337028816 24.019191353488043 M-40.99912525839352 28.873061380483044 C-43.94622540151849 26.311186311048207, -46.89332554464346 23.74931124161337, -49.300930640844015 21.656412061587467 M-40.99912525839352 28.873061380483044 C-44.21821701226236 26.07474761103129, -47.437308766131196 23.276433841579536, -49.300930640844015 21.656412061587467 M-37.62017956220872 26.51028208858246 C-39.37417457880194 24.98555748246222, -41.128169595395164 23.46083287634198, -45.167275364436435 19.94969179867739 M-37.62017956220872 26.51028208858246 C-39.43937032792661 24.92888368238615, -41.2585610936445 23.347485276189843, -45.167275364436435 19.94969179867739 M-34.24123386602392 24.14750279668188 C-35.71691759302365 22.86471050358979, -37.192601320023385 21.581918210497697, -41.03362008802886 18.242971535767314 M-34.24123386602392 24.14750279668188 C-36.40345047310491 22.267916575860372, -38.56566708018591 20.38833035503886, -41.03362008802886 18.242971535767314 M-30.86228816983911 21.784723504781297 C-32.657481761013855 20.22418552416041, -34.45267535218859 18.663647543539522, -36.89996481162129 16.536251272857243 M-30.86228816983911 21.784723504781297 C-32.48276031366823 20.376068561150014, -34.103232457497356 18.96741361751873, -36.89996481162129 16.536251272857243 M-27.483342473654314 19.42194421288072 C-28.87351518419291 18.213485512335485, -30.263687894731504 17.005026811790245, -33.52101911543649 14.173471980956663 M-27.483342473654314 19.42194421288072 C-29.576951504036927 17.601997648596825, -31.67056053441954 15.782051084312931, -33.52101911543649 14.173471980956663 M-24.10439677746951 17.059164920980137 C-25.50608521547742 15.84069575126952, -26.907773653485332 14.6222265815589, -29.387363839028914 12.466751718046588 M-24.10439677746951 17.059164920980137 C-25.92071023934383 15.480267716855714, -27.73702370121815 13.90137051273129, -29.387363839028914 12.466751718046588 M-20.72545108128471 14.696385629079558 C-22.38024474957193 13.257895439415213, -24.03503841785915 11.81940524975087, -25.25370856262134 10.760031455136515 M-20.72545108128471 14.696385629079558 C-21.689562482648782 13.858296374096355, -22.65367388401285 13.02020711911315, -25.25370856262134 10.760031455136515 M-17.34650538509991 12.333606337178978 C-18.835991294759168 11.038815989748047, -20.325477204418423 9.744025642317116, -21.87476286643654 8.397252163235933 M-17.34650538509991 12.333606337178978 C-19.151270702768358 10.764747781659107, -20.9560360204368 9.195889226139236, -21.87476286643654 8.397252163235933 M-13.96755968891511 9.970827045278396 C-14.765535809753768 9.277156986339312, -15.563511930592425 8.583486927400228, -17.741107590028967 6.69053190032586 M-13.96755968891511 9.970827045278396 C-14.965542348867135 9.103293954411537, -15.963525008819163 8.23576086354468, -17.741107590028967 6.69053190032586 M-11.34332357295308 6.9519887243873075 C-11.904602355750608 6.464076522283783, -12.465881138548134 5.976164320180257, -13.607452313621396 4.983811637415785 M-11.34332357295308 6.9519887243873075 C-11.84535405847055 6.51558028134753, -12.347384543988017 6.0791718383077535, -13.607452313621396 4.983811637415785 M-7.964377876768278 4.589209432486728 C-8.378215713184384 4.2294656896836464, -8.792053549600489 3.8697219468805653, -9.473797037213822 3.2770913745057126 M-7.964377876768278 4.589209432486728 C-8.50312653796287 4.120882366294021, -9.041875199157463 3.6525553001013136, -9.473797037213822 3.2770913745057126 M-4.585432180583477 2.226430140586147 C-4.961516791722948 1.8995047758258314, -5.33760140286242 1.572579411065516, -6.09485134102902 0.9143120826051323 M-4.585432180583477 2.226430140586147 C-5.12917499176501 1.753761726043128, -5.672917802946541 1.281093311500109, -6.09485134102902 0.9143120826051323 M-1.2064864843986758 -0.13634915131443415 C-1.4152189089971792 -0.3177974797701386, -1.6239513335956826 -0.49924580822584314, -1.961196064621448 -0.7924081803049414 M-1.2064864843986758 -0.13634915131443415 C-1.4733405888858053 -0.36832188527692145, -1.7401946933729349 -0.6002946192394087, -1.961196064621448 -0.7924081803049414" stroke="#087f5b" stroke-width="0.5" fill="none"></path><path d="M0 0 C-39.12335242312402 18.920309778396042, -78.24670484624804 37.840619556792085, -122 59 M0 0 C-35.759788322635 17.293668123241517, -71.51957664527 34.587336246483034, -122 59 M-122 59 C-121.27062760088593 73.2227617827244, -120.54125520177186 87.44552356544881, -120 97.99999999999999 M-122 59 C-121.51313046421856 68.49395594773814, -121.02626092843711 77.98791189547627, -120 97.99999999999999 M-120 97.99999999999999 C-116.61452021514998 92.46012398842723, -113.22904043029996 86.92024797685447, -109.00000000000003 80.00000000000004 M-120 97.99999999999999 C-117.71367505425587 94.25874099787325, -115.42735010851176 90.51748199574651, -109.00000000000003 80.00000000000004 M-109.00000000000003 80.00000000000004 C-79.27699263105171 58.184948720037966, -49.55398526210338 36.36989744007589, 0 0 M-109.00000000000003 80.00000000000004 C-84.11548600634562 61.73613651841882, -59.23097201269121 43.4722730368376, 0 0 M0 0 C0 0, 0 0, 0 0 M0 0 C0 0, 0 0, 0 0" stroke="#000000" stroke-width="1" fill="none"></path></g></g><g><g transform="translate(56 111) rotate(0 13 -10)" fill-rule="evenodd"><path d="M10.796070005655817 -19.765405377221693 C10.796070005655817 -19.765405377221693, 10.796070005655817 -19.765405377221693, 10.796070005655817 -19.765405377221693 M10.796070005655817 -19.765405377221693 C10.796070005655817 -19.765405377221693, 10.796070005655817 -19.765405377221693, 10.796070005655817 -19.765405377221693 M2.0058458047177745 -3.5563968172497673 C6.281886269802019 -8.475418676281315, 10.557926734886264 -13.394440535312864, 14.470967355537413 -17.895878841482435 M2.0058458047177745 -3.5563968172497673 C6.875592959357659 -9.158400095101895, 11.745340113997543 -14.760403372954022, 14.470967355537413 -17.895878841482435 M2.4004480096468335 2.08667761960335 C8.020522338959811 -4.378478335072104, 13.640596668272789 -10.843634289747557, 17.489805676428503 -15.271642725520408 M2.4004480096468335 2.08667761960335 C5.684909086368531 -1.6916626378043924, 8.969370163090229 -5.470002895212135, 17.489805676428503 -15.271642725520408 M10.011699533471472 -0.572053325994025 C13.169580266731595 -4.204779555308388, 16.327460999991718 -7.837505784622751, 20.508643997319588 -12.647406609558379 M10.011699533471472 -0.572053325994025 C12.583396382864708 -3.5304521344858117, 15.155093232257943 -6.4888509429775985, 20.508643997319588 -12.647406609558379 M16.9668920283056 -2.4760746913686287 C19.33245865878053 -5.197347808243243, 21.698025289255458 -7.918620925117857, 23.527482318210676 -10.02317049359635 M16.9668920283056 -2.4760746913686287 C18.667216489467783 -4.432074233514688, 20.367540950629962 -6.388073775660747, 23.527482318210676 -10.02317049359635 M0 0 C0 0, 0 0, 0 0 M0 0 C0 0, 0 0, 0 0 M4.133655276407573 -1.7067202629100735 C3.589340662881447 -2.1798857376478997, 3.0450260493553207 -2.6530512123857264, 1.869526535739257 -3.6748973498815953 M4.133655276407573 -1.7067202629100735 C3.2290650753474415 -2.49306852785016, 2.3244748742873096 -3.2794167927902462, 1.869526535739257 -3.6748973498815953 M9.022020133037918 -2.7573814968296397 C7.720015975534713 -3.889196443528766, 6.418011818031507 -5.0210113902278914, 3.739053071478514 -7.349794699763191 M9.022020133037918 -2.7573814968296397 C7.596943884986916 -3.9961813796372825, 6.1718676369359144 -5.234981262444926, 3.739053071478514 -7.349794699763191 M13.155675409445491 -4.464101759739712 C10.801098257273122 -6.510904451288253, 8.446521105100754 -8.557707142836794, 5.608579607217772 -11.024692049644786 M13.155675409445491 -4.464101759739712 C10.44897608837873 -6.816999582799234, 7.742276767311969 -9.169897405858755, 5.608579607217772 -11.024692049644786 M18.044040266075836 -5.5147629936592795 C15.49979873415928 -7.726438415155583, 12.955557202242723 -9.938113836651885, 8.232815723179801 -14.043530370535874 M18.044040266075836 -5.5147629936592795 C15.542436976778266 -7.6893735563231065, 13.040833687480696 -9.863984118986934, 8.232815723179801 -14.043530370535874 M22.17769554248341 -7.221483256569353 C18.15492685640814 -10.718422724676993, 14.13215817033287 -14.215362192784632, 10.102342258919057 -17.71842772041747 M22.17769554248341 -7.221483256569353 C17.666498089351002 -11.143007374247695, 13.155300636218595 -15.064531491926035, 10.102342258919057 -17.71842772041747" stroke="#087f5b" stroke-width="0.5" fill="none"></path><path d="M0 0 C8.458746752329173 -2.6840254117967546, 16.917493504658346 -5.368050823593509, 26.000000000000004 -8.249999999999995 M0 0 C8.972914671711626 -2.847174847754648, 17.945829343423252 -5.694349695509296, 26.000000000000004 -8.249999999999995 M26.000000000000004 -8.249999999999995 C20.698452473152432 -12.402878896030597, 15.396904946304861 -16.555757792061197, 11.000000000000004 -20.000000000000004 M26.000000000000004 -8.249999999999995 C22.77434911532328 -10.77675985966343, 19.548698230646554 -13.303519719326868, 11.000000000000004 -20.000000000000004 M11.000000000000004 -20.000000000000004 C7.036390756908807 -12.793437739834191, 3.072781513817609 -5.586875479668379, 0 0 M11.000000000000004 -20.000000000000004 C7.286774986144158 -13.248681792989375, 3.573549972288311 -6.497363585978746, 0 0 M0 0 C0 0, 0 0, 0 0 M0 0 C0 0, 0 0, 0 0" stroke="#000000" stroke-width="1" fill="none"></path></g></g></svg>