<svg width="551" height="253" viewBox="0 0 551 253" fill="none" xmlns="http://www.w3.org/2000/svg">
<g clip-path="url(#clip0)">
<path d="M512.473 161.529C515.489 175.928 511.233 192.685 506.379 207.613C501.526 222.541 493.251 238.524 483.352 251.095C473.454 263.667 460.819 274.021 446.989 283.041C433.159 292.061 416.645 300.051 400.372 305.214C384.099 310.377 366.457 313.833 349.351 314.019C332.245 314.205 314.222 310.801 297.736 306.33C281.25 301.859 264.625 295.682 250.437 287.191C236.249 278.7 222.876 267.772 212.607 255.382C202.338 242.992 194.531 227.409 188.822 212.851C183.113 198.293 178.731 183.327 178.354 168.034C177.978 152.741 181.55 135.914 186.564 121.095C191.578 106.276 198.818 91.7511 208.437 79.1183C218.055 66.4856 230.759 54.4567 244.274 45.2983C257.789 36.1399 273.447 29.2335 289.529 24.1679C305.611 19.1023 323.735 15.4751 340.768 14.9049C357.801 14.3348 375.285 16.4754 391.727 20.7471C408.169 25.0187 425 31.9273 439.42 40.5349C453.84 49.1425 467.806 60.2252 478.248 72.3926C488.689 84.56 496.413 99.2356 502.069 113.539C507.725 127.843 510.286 148.923 512.182 158.214C514.079 167.504 513.955 166.755 513.446 169.282C512.936 171.81 512.092 173.558 509.125 173.38L512.473 161.529ZM514.161 160.312C517.399 174.694 512.191 191.85 506.939 206.627C501.686 221.404 492.796 236.159 482.644 248.975C472.492 261.791 459.813 274.017 446.026 283.522C432.24 293.027 415.681 301.158 399.924 306.005C384.168 310.851 368.59 312.484 351.487 312.603C334.384 312.723 314.138 310.884 297.306 306.719C280.473 302.554 264.417 296.415 250.493 287.613C236.568 278.812 224.085 265.85 213.759 253.91C203.432 241.97 194.464 230.097 188.531 215.974C182.599 201.85 178.709 184.491 178.163 169.168C177.617 153.845 180.094 138.992 185.255 124.033C190.417 109.075 199.431 92.3226 209.133 79.4179C218.834 66.5131 230.147 56.095 243.463 46.6048C256.78 37.1147 273.003 27.9514 289.032 22.4769C305.061 17.0024 322.463 14.277 339.637 13.7577C356.811 13.2384 375.65 15.0093 392.078 19.3613C408.506 23.7132 423.891 31.0719 438.205 39.8694C452.52 48.667 467.264 59.9439 477.965 72.1465C488.665 84.3491 496.633 98.8651 502.408 113.085C508.184 127.305 510.608 149.234 512.617 157.466C514.625 165.699 514.805 161.884 514.459 162.478C514.113 163.072 513.344 161.196 510.542 161.03" fill="#AE8D72"/>
<path d="M494.599 97.7928C504.208 109.659 508.513 126.691 510.964 141.891C513.414 157.092 511.958 173.605 509.304 188.996C506.649 204.387 502.641 220.319 495.035 234.236C487.429 248.152 476.306 261.636 463.67 272.496C451.034 283.355 434.588 292.777 419.221 299.393C403.854 306.009 388.319 310.32 371.47 312.191C354.622 314.062 335.219 313.057 318.131 310.619C301.043 308.181 284.008 304.229 268.944 297.563C253.879 290.897 239.975 281.627 227.746 270.623C215.518 259.62 203.56 245.562 195.573 231.543C187.585 217.523 181.994 201.705 179.819 186.505C177.644 171.304 179.531 155.313 182.522 140.341C185.514 125.369 190.312 110.391 197.769 96.6752C205.226 82.9595 215.385 68.8167 227.263 58.0469C239.141 47.2771 253.863 38.9689 269.037 32.0563C284.211 25.1438 301.241 19.4089 318.306 16.5717C335.37 13.7345 354.322 12.6486 371.424 15.033C388.525 17.4173 405.731 24.0329 420.913 30.8777C436.095 37.7225 450.465 45.2554 462.518 56.1016C474.572 66.9478 487.874 88.7981 493.234 95.9549C498.595 103.112 494.925 98.3945 494.68 99.0421C494.435 99.6897 494.121 98.8101 491.763 99.8404M499.427 224.871C495.107 239.222 482.229 252.019 470.558 263.384C458.887 274.748 444.141 285.407 429.401 293.06C414.662 300.713 398.792 306.125 382.12 309.299C365.448 312.474 346.479 313.344 329.371 312.106C312.264 310.868 295.112 307.718 279.474 301.871C263.835 296.024 248.348 287.412 235.542 277.026C222.736 266.64 211.398 252.995 202.637 239.555C193.877 226.116 186.876 211.2 182.98 196.389C179.083 181.577 177.742 165.908 179.258 150.685C180.774 135.462 185.361 119.044 192.075 105.05C198.789 91.0572 208.385 78.1033 219.542 66.7256C230.699 55.3479 244.108 44.674 259.017 36.7841C273.927 28.8942 292.316 22.9967 309.001 19.3861C325.686 15.7755 342.253 13.9407 359.128 15.1207C376.003 16.3008 394.347 20.4225 410.252 26.4663C426.157 32.5101 441.656 41.287 454.558 51.3835C467.459 61.48 478.646 73.9938 487.663 87.0453C496.68 100.097 504.594 114.768 508.661 129.693C512.727 144.617 513.571 161.53 512.062 176.594C510.554 191.658 502.503 210.518 499.609 220.076C496.715 229.633 496.931 230.54 494.697 233.937C492.464 237.333 488.621 241.887 486.207 240.455L499.427 224.871Z" stroke="black" stroke-width="4"/>
<path d="M166.006 45.2583C175.253 38.5158 187.166 37.5245 197.784 38.3889C208.402 39.2532 219.721 43.7816 229.714 50.4444C239.707 57.1072 250.207 67.1516 257.742 78.3658C265.277 89.5799 270.828 103.308 274.924 117.729C279.02 132.15 281.853 148.951 282.316 164.892C282.778 180.833 281.07 198.46 277.699 213.374C274.329 228.287 269.037 242.72 262.092 254.375C255.146 266.029 245.773 276 236.026 283.303C226.279 290.606 214.546 296.427 203.611 298.191C192.677 299.955 180.811 297.927 170.418 293.886C160.025 289.846 150.004 283.229 141.254 273.948C132.504 264.667 123.626 251.532 117.917 238.2C112.209 224.869 109.014 209.495 107.005 193.962C104.996 178.428 103.908 160.609 105.863 145.001C107.818 129.393 112.857 113.675 118.734 100.313C124.611 86.9507 133.085 73.9345 141.125 64.8279C149.165 55.7213 162.404 48.6809 166.974 45.6732C171.544 42.6656 168.007 44.8287 168.546 46.7819L166.006 45.2583ZM202.117 39.491C212.373 39.0696 225.086 46.7264 234.546 53.8508C244.006 60.9753 251.634 70.5182 258.876 82.2378C266.119 93.9574 274.049 109.621 277.998 124.169C281.948 138.717 282.606 153.904 282.572 169.526C282.537 185.148 281.731 202.979 277.79 217.902C273.849 232.824 266.617 247.645 258.927 259.061C251.236 270.477 241.616 279.864 231.645 286.398C221.674 292.933 209.897 297.154 199.1 298.269C188.304 299.383 176.922 297.779 166.866 293.086C156.811 288.392 147.296 280.14 138.768 270.108C130.241 260.076 121.077 246.841 115.7 232.894C110.323 218.947 108.12 201.913 106.508 186.427C104.897 170.942 103.561 155.25 106.03 139.982C108.499 124.715 114.972 107.845 121.323 94.8224C127.674 81.8002 135.257 70.4312 144.136 61.8488C153.014 53.2664 165.165 46.8281 174.595 43.3279C184.025 39.8277 196.381 40.9166 200.715 40.8475C205.05 40.7785 200.581 40.9949 200.602 42.9138" fill="#AE8D72"/>
<path d="M204.53 39.0878C214.828 39.1248 226.902 47.4391 236.486 55.29C246.07 63.1409 255.032 74.1688 262.034 86.1932C269.035 98.2176 274.877 112.914 278.495 127.436C282.114 141.959 284.168 157.7 283.746 173.328C283.323 188.956 280.561 206.609 275.961 221.203C271.36 235.797 263.733 249.73 256.143 260.891C248.553 272.051 240.256 281.637 230.419 288.166C220.581 294.695 208.238 299.266 197.119 300.065C185.999 300.865 173.791 298.585 163.7 292.963C153.609 287.34 144.869 276.964 136.572 266.332C128.274 255.7 119.08 242.708 113.914 229.171C108.747 215.634 106.54 200.762 105.574 185.11C104.607 169.458 105.366 150.628 108.114 135.257C110.862 119.886 115.849 105.581 122.063 92.8868C128.277 80.193 136.367 67.8202 145.401 59.0939C154.434 50.3676 166.415 43.8534 176.264 40.5293C186.112 37.2051 199.697 38.8332 204.49 39.1491C209.283 39.465 204.981 40.013 205.021 42.4247M152.97 54.3894C161.24 45.6884 173.22 42.5007 184.044 40.7444C194.868 38.9881 207.432 39.7436 217.913 43.8516C228.394 47.9596 238.28 56.0248 246.931 65.3924C255.582 74.7599 264.207 86.6943 269.818 100.057C275.43 113.42 278.669 130.081 280.6 145.568C282.532 161.055 283.328 177.716 281.408 192.979C279.487 208.241 274.724 223.763 269.078 237.144C263.432 250.525 256.058 263.562 247.532 273.264C239.006 282.967 228.414 291.143 217.922 295.36C207.429 299.576 195.428 300.266 184.577 298.565C173.727 296.864 162.464 292.543 152.822 285.155C143.179 277.768 133.714 266.245 126.721 254.24C119.727 242.235 114.609 228.103 110.86 213.124C107.112 198.145 103.993 180.118 104.23 164.366C104.466 148.615 107.785 133.12 112.28 118.614C116.776 104.107 123.743 88.6883 131.204 77.3265C138.665 65.9647 152.226 54.8612 157.046 50.4427C161.867 46.0243 159.644 48.7763 160.127 50.8156L152.97 54.3894Z" stroke="black" stroke-width="4"/>
</g>
<path fill-rule="evenodd" clip-rule="evenodd" d="M442.138 53.892L494.57 18.0807L511.531 8.09718L517.339 6.88814L517.387 14.6999L517.54 25.0805L508.842 53.7548L496.924 80.3032L489.451 91.1341L484.137 98.2848L480.562 97.157L470.304 87.2626L444.071 52.2942" fill="#AE8D72"/>
<path d="M444.956 51.3964C457.233 44.1934 510.727 -0.0211614 517.308 7.90196C523.888 15.8251 496.402 91.5644 484.437 98.9352C472.472 106.306 452.418 59.6449 445.517 52.1268M443.183 52.4857C455.069 45.5038 508.088 2.00425 515.079 9.52345C522.071 17.0426 496.84 90.5956 485.133 97.6009C473.425 104.606 451.633 58.9658 444.833 51.5552L443.183 52.4857Z" stroke="black" stroke-width="4"/>
<path d="M264.132 55.9224C267.978 51.7904 275.218 50.8428 280.412 52.3672C285.606 53.8916 291.152 59.025 295.297 65.0689C299.443 71.1129 304.267 80.9819 305.285 88.6308C306.302 96.2798 304.217 105.353 301.403 110.963C298.589 116.572 293.516 121.142 288.4 122.289C283.283 123.437 275.939 121.752 270.703 117.848C265.467 113.945 259.656 106.091 256.985 98.8688C254.313 91.6465 253.086 81.7981 254.674 74.515C256.263 67.232 264.206 58.3749 266.516 55.1706C268.826 51.9664 268.554 54.6544 268.535 55.2898L264.132 55.9224ZM277.571 52.8415C282.848 52.5779 289.082 57.1426 293.627 61.9883C298.172 66.834 303.143 74.4008 304.84 81.9157C306.537 89.4307 305.74 100.531 303.81 107.078C301.88 113.625 297.948 119.032 293.259 121.199C288.571 123.366 281.15 123.236 275.679 120.08C270.207 116.924 264.042 109.098 260.43 102.266C256.818 95.4336 253.965 86.1107 254.008 79.0869C254.051 72.063 256.9 64.6809 260.687 60.1228C264.474 55.5648 273.905 53.105 276.73 51.7383C279.556 50.3716 277.612 51.2497 277.639 51.9225" fill="#AE8D72"/>
<path d="M271.041 53.4737C275.346 51.6273 281.548 52.0465 286.479 55.6959C291.411 59.3454 297.58 68.2788 300.628 75.3704C303.676 82.462 305.195 91.2459 304.768 98.2456C304.341 105.245 301.995 113.568 298.066 117.368C294.137 121.169 286.769 122.412 281.193 121.047C275.617 119.683 269.074 114.823 264.611 109.184C260.147 103.545 255.288 94.3569 254.411 87.214C253.534 80.0712 256.832 71.892 259.346 66.3266C261.861 60.7613 267.595 55.7539 269.499 53.8217C271.402 51.8894 270.636 54.3934 270.77 54.733M272.285 53.5475C277.164 52.339 285.704 54.673 290.799 58.837C295.894 63.001 300.536 71.2312 302.855 78.5315C305.174 85.8318 305.895 95.903 304.714 102.639C303.533 109.374 300.012 115.942 295.77 118.946C291.528 121.949 284.678 122.537 279.262 120.661C273.847 118.784 267.422 113.428 263.279 107.688C259.135 101.948 255.078 93.7076 254.401 86.2209C253.725 78.7343 255.837 68.4432 259.218 62.7683C262.599 57.0933 271.909 53.6355 274.689 52.1712C277.469 50.707 275.753 53.3033 275.899 53.9831L272.285 53.5475Z" stroke="black" stroke-width="4"/>
<path d="M124.733 64.684C128.53 68.58 130.767 77.1449 130.691 84.6494C130.614 92.1539 127.938 103.231 124.273 109.711C120.608 116.191 113.979 120.938 108.702 123.528C103.426 126.118 97.2478 127.454 92.6126 125.251C87.9773 123.048 82.7894 116.604 80.8907 110.309C78.9921 104.015 79.3594 94.795 81.2207 87.4832C83.0819 80.1714 87.5417 71.7164 92.0583 66.4387C96.5749 61.161 102.559 55.598 108.32 55.817C114.081 56.0359 123.648 65.1367 126.625 67.7526C129.603 70.3686 126.704 71.2814 126.183 71.5127L124.733 64.684ZM114.577 59.025C119.417 60.4325 126.195 66.8043 128.553 72.9652C130.912 79.1262 130.475 88.5257 128.728 95.9907C126.981 103.456 122.424 112.576 118.073 117.755C113.721 122.935 107.674 126.702 102.618 127.065C97.562 127.429 91.4513 124.298 87.7367 119.937C84.0221 115.575 81.1849 107.83 80.3303 100.897C79.4758 93.9637 79.4428 85.1424 82.6093 78.3374C85.7759 71.5323 93.6221 63.4194 99.3298 60.0665C105.037 56.7137 114.173 58.1996 116.855 58.2204C119.538 58.2412 115.624 59.4692 115.424 60.1911" fill="#AE8D72"/>
<path d="M111.382 56.3971C116.44 56.2901 121.667 60.9082 124.549 66.3911C127.431 71.8739 129.297 81.7591 128.674 89.2942C128.05 96.8293 124.523 105.741 120.809 111.602C117.095 117.463 111.697 122.412 106.391 124.46C101.085 126.509 93.2414 127.007 88.9737 123.891C84.706 120.776 82.0659 112.604 80.7845 105.767C79.503 98.9299 78.8947 90.1077 81.285 82.8681C83.6754 75.6286 90.0268 66.6195 95.1263 62.3298C100.226 58.0401 109.369 57.7693 111.882 57.1297C114.396 56.4902 110.284 58.0868 110.208 58.4926M123.139 64.7426C126.707 68.8929 130.175 77.3926 130.516 84.6966C130.856 92.0006 128.518 101.996 125.182 108.567C121.846 115.137 115.878 121.199 110.501 124.122C105.124 127.045 97.7903 128.158 92.9206 126.106C88.0508 124.053 83.434 118.442 81.2824 111.806C79.1307 105.171 78.346 93.8749 80.0107 86.291C81.6754 78.7071 86.6142 71.3055 91.2706 66.303C95.9271 61.3006 102.118 55.8935 107.949 56.2764C113.78 56.6592 122.752 65.5462 126.255 68.6001C129.758 71.6541 129.435 74.1832 128.966 74.6001L123.139 64.7426Z" stroke="black" stroke-width="4"/>
<path d="M490.744 167.791C498.516 166.096 508.499 166.954 515.599 170.102C522.699 173.249 529.598 180.009 533.344 186.675C537.09 193.341 539.081 202.58 538.075 210.1C537.068 217.621 532.614 225.898 527.304 231.8C521.994 237.702 514.123 243.722 506.214 245.512C498.306 247.302 487.592 245.504 479.854 242.539C472.117 239.573 464.382 234.219 459.791 227.717C455.2 221.215 452.041 211.074 452.307 203.528C452.573 195.982 456.196 188.323 461.389 182.442C466.582 176.56 478.27 170.697 483.464 168.24C488.657 165.783 490.766 167.93 492.55 167.7C494.334 167.47 494.407 166.361 494.169 166.859L490.744 167.791ZM512.843 170.099C520.143 171.977 526.21 177.139 530.563 183.428C534.916 189.717 538.775 200.229 538.963 207.832C539.151 215.435 536.604 223.269 531.692 229.046C526.779 234.824 517.664 240.049 509.488 242.496C501.312 244.943 490.425 245.858 482.635 243.725C474.844 241.593 467.537 235.771 462.745 229.699C457.953 223.627 454.461 214.749 453.883 207.294C453.306 199.838 454.814 191.31 459.279 184.966C463.744 178.622 473.097 172.218 480.671 169.23C488.244 166.242 499.67 166.898 504.72 167.037C509.77 167.175 509.86 169.503 510.97 170.062C512.081 170.62 511.351 169.937 511.384 170.389" fill="#AE8D72"/>
<path d="M491.077 167.616C498.569 165.775 507.767 167.262 515.063 170.61C522.359 173.958 531.099 180.754 534.851 187.704C538.604 194.654 538.586 204.767 537.58 212.312C536.575 219.858 533.958 227.543 528.817 232.977C523.677 238.412 514.999 243.192 506.737 244.918C498.474 246.645 487.273 246.25 479.241 243.336C471.21 240.423 463.034 233.728 458.548 227.438C454.061 221.148 451.811 213.378 452.322 205.597C452.832 197.815 456.409 187.052 461.61 180.75C466.812 174.448 478.713 170.005 483.529 167.784C488.345 165.564 489.291 167.216 490.505 167.43C491.719 167.644 490.699 168.484 490.816 169.069M513.396 170.234C520.804 172.654 528.226 179.355 532.501 185.624C536.776 191.893 539.594 200.199 539.044 207.847C538.495 215.496 534.506 225.346 529.205 231.514C523.904 237.682 515.128 242.933 507.24 244.854C499.351 246.774 489.569 245.794 481.875 243.037C474.18 240.281 466.015 234.435 461.071 228.315C456.127 222.195 452.231 213.611 452.212 206.319C452.193 199.027 456.03 190.647 460.957 184.565C465.884 178.483 474.175 172.673 481.776 169.828C489.376 166.982 500.478 167.184 506.56 167.491C512.641 167.797 515.56 170.212 518.264 171.667C520.967 173.123 523.125 175.67 522.782 176.224L513.396 170.234Z" stroke="black" stroke-width="4"/>
<path d="M421.155 169.325C428.547 171.06 436.632 177.653 441.656 183.729C446.681 189.806 450.833 198.3 451.3 205.786C451.766 213.271 449.069 222.244 444.455 228.642C439.841 235.04 431.219 241.339 423.616 244.174C416.014 247.008 406.868 247.453 398.84 245.647C390.813 243.842 381.094 238.885 375.451 233.341C369.807 227.797 365.788 219.816 364.979 212.384C364.17 204.951 366.409 195.481 370.597 188.746C374.785 182.01 382.707 175.478 390.108 171.97C397.51 168.462 409.238 167.816 415.005 167.698C420.772 167.58 422.515 170.245 424.711 171.26C426.906 172.274 428.255 173.075 428.178 173.785L421.155 169.325ZM410.95 168.371C418.854 168.568 428.922 172.831 435.325 177.382C441.728 181.933 446.975 188.404 449.368 195.678C451.762 202.953 452.206 213.916 449.686 221.029C447.165 228.142 441.234 233.952 434.244 238.357C427.253 242.761 415.946 247.33 407.742 247.455C399.538 247.58 391.438 243.574 385.02 239.108C378.602 234.642 372.404 227.563 369.232 220.659C366.06 213.756 364.086 204.783 365.99 197.688C367.894 190.592 374.557 182.788 380.657 178.087C386.757 173.385 397.433 170.994 402.588 169.478C407.742 167.962 410.185 169.026 411.584 168.991C412.984 168.957 411.451 168.696 410.985 169.269" fill="#AE8D72"/>
<path d="M392.333 169.281C399.49 166.309 409.99 165.876 418.287 168.269C426.584 170.662 436.63 177.645 442.115 183.64C447.599 189.636 450.685 196.814 451.194 204.241C451.703 211.668 449.585 221.838 445.17 228.201C440.755 234.565 432.375 239.252 424.703 242.422C417.031 245.591 407.024 248.455 399.137 247.217C391.25 245.98 382.749 240.332 377.382 234.997C372.016 229.662 368.119 222.807 366.938 215.206C365.757 207.605 367.147 196.436 370.298 189.393C373.449 182.35 381.838 176.063 385.844 172.95C389.85 169.836 392.961 170.755 394.335 170.711C395.709 170.666 393.871 172.29 394.088 172.682M410.413 168.303C418.54 167.944 428.656 171.734 435.064 176.392C441.471 181.05 446.66 189.026 448.856 196.249C451.052 203.472 450.793 212.438 448.237 219.731C445.681 227.025 440.018 235.572 433.52 240.01C427.022 244.448 417.403 246.3 409.249 246.358C401.095 246.415 391.389 244.318 384.595 240.355C377.802 236.392 371.475 229.407 368.488 222.578C365.501 215.748 364.77 206.797 366.674 199.38C368.577 191.963 373.675 183.404 379.908 178.077C386.142 172.75 397.999 169.019 404.074 167.419C410.149 165.818 413.197 167.644 416.358 168.474C419.519 169.304 423.001 171.648 423.04 172.399L410.413 168.303Z" stroke="black" stroke-width="4"/>
<path d="M325.224 171.356C333.192 171.438 342.907 176.312 349.482 181.16C356.058 186.009 362.26 193.41 364.675 200.447C367.09 207.484 366.623 216.196 363.974 223.383C361.326 230.57 355.396 238.87 348.782 243.569C342.167 248.268 332.573 251.526 324.288 251.578C316.003 251.63 305.875 248.104 299.07 243.88C292.266 239.656 286.328 233.352 283.459 226.233C280.591 219.114 280.063 208.558 281.86 201.165C283.656 193.771 287.958 186.826 294.239 181.873C300.52 176.92 313.096 173.045 319.548 171.447C326 169.849 329.898 171.642 332.949 172.285C336 172.929 338.088 174.501 337.855 175.31L325.224 171.356ZM306.11 176.177C312.858 172.291 323.346 170.212 331.364 171.344C339.381 172.476 348.73 177.122 354.213 182.967C359.697 188.812 362.96 198.817 364.264 206.415C365.568 214.012 365.569 222.12 362.039 228.55C358.508 234.981 350.253 241.306 343.08 244.998C335.907 248.69 327.07 251.26 319.002 250.703C310.935 250.146 301.107 246.616 294.677 241.658C288.246 236.7 282.298 228.407 280.42 220.953C278.543 213.499 280.068 203.771 283.412 196.933C286.756 190.094 296.768 183.409 300.486 179.923C304.204 176.437 304.808 176.867 305.721 176.016C306.635 175.165 305.887 174.411 305.968 174.818" fill="#AE8D72"/>
<path d="M303.873 176.857C310.853 173.105 322.783 172.498 330.716 173.407C338.649 174.316 345.736 177.097 351.47 182.312C357.205 187.528 363.133 197.246 365.123 204.701C367.113 212.156 366.757 220.434 363.411 227.043C360.065 233.651 352.463 240.398 345.047 244.352C337.631 248.307 327.03 251.266 318.917 250.769C310.805 250.271 302.451 246.272 296.371 241.367C290.292 236.462 284.802 228.522 282.44 221.341C280.078 214.16 279.366 205.342 282.199 198.279C285.033 191.217 295.925 182.697 299.44 178.965C302.955 175.232 302.595 176.063 303.291 175.883C303.987 175.704 303.184 177.154 303.617 177.89M341.868 176.257C349.449 179.183 357.858 187.118 361.867 193.674C365.876 200.23 367.172 208.336 365.923 215.592C364.674 222.849 360.031 231.596 354.375 237.211C348.719 242.826 340.025 247.59 331.987 249.282C323.949 250.974 313.556 249.944 306.146 247.363C298.735 244.781 291.835 240.051 287.522 233.791C283.209 227.532 280.022 217.455 280.266 209.806C280.511 202.156 284.118 194.008 288.989 187.894C293.86 181.779 301.728 175.347 309.491 173.118C317.254 170.89 329.168 173.51 335.567 174.522C341.966 175.534 344.974 177.527 347.884 179.189C350.794 180.85 353.357 184.035 353.027 184.492L341.868 176.257Z" stroke="black" stroke-width="4"/>
<path d="M231.757 172.342C239.527 171.033 249.766 173.312 256.917 176.841C264.067 180.371 270.838 186.852 274.661 193.518C278.484 200.183 280.761 209.196 279.854 216.835C278.947 224.475 274.81 233.749 269.22 239.356C263.629 244.963 254.444 249.217 246.309 250.478C238.174 251.739 228.139 250.016 220.408 246.922C212.676 243.828 204.435 238.315 199.919 231.914C195.404 225.512 192.819 215.969 193.316 208.513C193.814 201.058 197.732 192.876 202.903 187.179C208.074 181.482 218.347 176.693 224.343 174.33C230.338 171.967 235.106 172.963 238.877 173.003C242.647 173.043 246.801 173.969 246.967 174.57L231.757 172.342ZM224.465 174.954C231.627 172.253 242.34 170.838 249.905 173.185C257.471 175.533 264.682 182.814 269.861 189.038C275.04 195.261 280.325 203.247 280.979 210.525C281.633 217.802 278.236 226.255 273.786 232.704C269.335 239.152 262.003 246.351 254.274 249.216C246.545 252.082 235.471 251.71 227.413 249.896C219.355 248.082 211.447 244.204 205.927 238.331C200.406 232.457 195.241 222.296 194.293 214.654C193.345 207.013 196.325 198.994 200.239 192.483C204.153 185.971 214.021 178.558 217.776 175.587C221.532 172.617 221.719 174.663 222.772 174.66C223.824 174.657 223.436 175.022 224.091 175.57" fill="#DADADA"/>
<path d="M221.232 175.828C228.19 172.434 238.503 170.683 246.599 172.361C254.696 174.039 264.161 180.347 269.81 185.896C275.458 191.446 279.822 198.215 280.493 205.658C281.164 213.1 277.676 223.894 273.835 230.554C269.995 237.213 264.391 242.43 257.45 245.615C250.508 248.799 240.576 250.584 232.184 249.662C223.793 248.74 213.213 245.043 207.101 240.082C200.99 235.12 197.31 227.084 195.517 219.891C193.725 212.699 192.954 203.802 196.346 196.927C199.738 190.051 211.726 182.226 215.868 178.638C220.009 175.05 220.585 175.817 221.193 175.399C221.802 174.982 219.524 175.784 219.517 176.134M230.345 172.307C238.1 170.801 249.44 172.488 256.987 175.867C264.535 179.246 271.88 185.797 275.63 192.578C279.38 199.36 280.488 208.986 279.487 216.554C278.485 224.121 275.215 232.43 269.622 237.985C264.029 243.54 254.191 248.121 245.929 249.884C237.667 251.647 227.577 251.403 220.05 248.563C212.523 245.724 204.95 239.374 200.767 232.845C196.584 226.315 194.527 217.15 194.952 209.387C195.377 201.623 198.487 192.24 203.318 186.264C208.148 180.288 217.754 175.901 223.936 173.533C230.118 171.165 235.843 171.741 240.411 172.058C244.978 172.375 251.262 174.711 251.341 175.436L230.345 172.307Z" stroke="black" stroke-width="4"/>
<path d="M168.931 174.318C176.216 176.851 182.771 183.817 186.696 190.329C190.62 196.841 193.015 205.94 192.477 213.387C191.94 220.835 188.846 229.437 183.471 235.014C178.097 240.592 168.192 244.822 160.228 246.853C152.265 248.883 143.287 249.623 135.69 247.2C128.094 244.777 119.483 238.536 114.65 232.313C109.816 226.09 106.489 217.481 106.689 209.862C106.89 202.243 110.962 192.75 115.853 186.598C120.744 180.447 128.27 175.443 136.035 172.954C143.8 170.466 156.645 171.148 162.444 171.669C168.243 172.19 168.83 175.046 170.829 176.078C172.828 177.11 174.713 177.554 174.437 177.861L168.931 174.318ZM162.555 171.783C170.392 173.012 178.249 178.713 183.52 184.463C188.791 190.213 193.642 198.573 194.183 206.283C194.723 213.993 191.097 224.375 186.765 230.723C182.434 237.071 175.862 241.398 168.193 244.37C160.524 247.342 148.79 249.612 140.751 248.555C132.712 247.497 125.652 243.305 119.958 238.024C114.265 232.743 108.234 224.609 106.587 216.868C104.94 209.128 106.435 198.594 110.076 191.58C113.717 184.567 121.08 178.269 128.434 174.786C135.788 171.303 148.6 171.356 154.2 170.684C159.799 170.013 160.912 170.652 162.031 170.755C163.15 170.857 161.17 170.432 160.913 171.299" fill="#DADADA"/>
<path d="M153.867 169.128C162.124 169.436 173.398 175.384 179.666 180.527C185.934 185.669 189.972 192.551 191.474 199.984C192.975 207.416 191.717 217.971 188.675 225.123C185.633 232.275 179.866 239.035 173.223 242.896C166.58 246.757 156.996 248.55 148.815 248.288C140.634 248.026 130.775 245.629 124.135 241.324C117.495 237.02 111.259 229.669 108.976 222.464C106.692 215.259 107.868 205.42 110.436 198.092C113.004 190.765 118.307 183.301 124.383 178.498C130.459 173.695 141.918 170.824 146.892 169.275C151.867 167.725 153.099 168.995 154.23 169.201C155.361 169.408 153.603 169.788 153.681 170.513M145.847 170.483C153.359 169.214 163.155 171.746 170.344 175.501C177.534 179.256 185.225 186.212 188.986 193.011C192.746 199.811 194.393 208.794 192.906 216.296C191.419 223.799 185.867 232.573 180.065 238.024C174.262 243.475 166.254 247.904 158.092 249.003C149.93 250.103 138.613 247.8 131.091 244.621C123.57 241.442 117.083 236.223 112.964 229.932C108.845 223.64 105.77 214.569 106.375 206.872C106.98 199.174 111.134 189.598 116.594 183.747C122.055 177.895 133.877 174.179 139.14 171.765C144.403 169.352 146.232 169.292 148.171 169.268C150.111 169.243 150.702 170.753 150.779 171.617L145.847 170.483Z" stroke="black" stroke-width="4"/>
<path d="M76.2214 168.819C83.9771 169.817 92.6741 174.513 98.0719 180.119C103.47 185.726 107.436 194.797 108.608 202.457C109.78 210.117 108.541 219.379 105.104 226.081C101.668 232.782 95.1871 239.211 87.9879 242.667C80.7886 246.122 70.0813 247.812 61.9088 246.812C53.7363 245.812 45.1237 241.655 38.9527 236.665C32.7816 231.675 26.7683 224.378 24.8824 216.873C22.9965 209.367 24.5795 198.722 27.6373 191.632C30.6951 184.543 36.2247 178.142 43.2292 174.335C50.2338 170.529 63.087 169.212 69.6646 168.794C76.2422 168.376 79.4595 170.829 82.6948 171.826C85.9302 172.823 89.3523 174.314 89.0765 174.776L76.2214 168.819ZM56.8752 168.839C64.1757 166.67 74.6576 168.407 82.51 171.363C90.3624 174.32 99.2088 180.179 103.989 186.578C108.77 192.977 111.606 202.08 111.194 209.755C110.782 217.43 106.998 226.606 101.519 232.627C96.0393 238.648 86.3586 243.892 78.3182 245.88C70.2778 247.868 60.9733 246.821 53.276 244.555C45.5788 242.288 37.0444 238.26 32.1349 232.282C27.2254 226.303 23.808 216.569 23.8189 208.686C23.8297 200.803 27.4153 191.193 32.2 184.986C36.9847 178.779 48.5044 174.342 52.5271 171.445C56.5499 168.548 55.5792 167.88 56.3364 167.606C57.0935 167.331 56.4863 168.898 57.07 169.799" fill="#AE8D72"/>
<path d="M45.3472 171.674C51.988 167.926 63.0874 167.329 71.3501 168.559C79.6129 169.79 88.7945 173.832 94.9238 179.056C101.053 184.279 106.195 192.545 108.126 199.901C110.057 207.257 109.29 216.252 106.51 223.191C103.731 230.131 98.4624 237.461 91.4479 241.539C84.4333 245.616 72.9301 248.04 64.4228 247.657C55.9155 247.274 46.6261 243.977 40.4041 239.239C34.1821 234.5 29.6187 226.736 27.0908 219.227C24.5628 211.719 22.7126 201.199 25.2365 194.186C27.7604 187.172 38.6431 180.569 42.2342 177.146C45.8253 173.723 46.0864 174.019 46.7832 173.648C47.48 173.277 45.9657 174.406 46.4153 174.917M63.7561 168.947C71.5979 168.05 83.296 170.71 90.5014 174.618C97.7069 178.527 104.058 185.481 106.989 192.4C109.92 199.32 110.014 208.902 108.088 216.134C106.162 223.366 101.219 230.648 95.4311 235.793C89.6434 240.939 81.4582 245.943 73.3613 247.008C65.2643 248.073 54.4086 245.649 46.8492 242.183C39.2899 238.718 31.7609 232.859 28.0051 226.216C24.2493 219.572 23.0094 209.996 24.3142 202.322C25.619 194.649 30.1805 185.702 35.8337 180.177C41.4869 174.651 52.8763 171.072 58.2332 169.168C63.5902 167.263 65.6436 168.715 67.9752 168.749C70.3068 168.783 72.19 168.785 72.2229 169.372L63.7561 168.947Z" stroke="black" stroke-width="4"/>
<path d="M154.386 135.613C157.483 133.218 163.014 133.412 166.564 134.883C170.113 136.354 173.701 140.278 175.683 144.438C177.664 148.599 178.731 155.002 178.452 159.848C178.173 164.695 176.6 170.209 174.007 173.518C171.415 176.826 166.492 179.072 162.898 179.7C159.304 180.327 155.104 180.085 152.445 177.284C149.786 174.484 147.73 167.844 146.942 162.899C146.154 157.954 146.061 152.226 147.716 147.616C149.371 143.005 155.345 137.225 156.872 135.237C158.4 133.248 157.017 135.43 156.884 135.685L154.386 135.613ZM158.273 134.592C161.442 133.228 167.585 133.391 170.729 135.62C173.873 137.85 176.204 143.2 177.136 147.968C178.067 152.735 177.23 159.517 176.318 164.226C175.406 168.936 174.606 173.748 171.666 176.224C168.725 178.701 162.297 179.86 158.677 179.084C155.057 178.307 152.183 175.18 149.945 171.565C147.707 167.949 145.261 161.951 145.25 157.389C145.238 152.828 147.73 147.949 149.875 144.195C152.02 140.44 156.821 136.372 158.122 134.862C159.423 133.352 157.685 134.816 157.68 135.134" fill="#DADADA"/>
<path d="M161.365 132.668C164.828 131.748 169.279 134.975 172.183 138.073C175.087 141.17 178.173 146.438 178.79 151.253C179.406 156.068 177.411 162.332 175.882 166.962C174.353 171.593 172.454 177.122 169.614 179.035C166.774 180.948 162.463 179.723 158.843 178.44C155.224 177.158 149.934 175.082 147.894 171.34C145.855 167.598 146.289 160.826 146.607 155.99C146.924 151.153 147.556 145.964 149.8 142.319C152.043 138.674 158.427 135.358 160.068 134.122C161.709 132.886 159.651 134.773 159.645 134.903M155.227 136.39C157.94 133.991 162.314 133.078 165.598 134.312C168.881 135.545 172.737 139.705 174.93 143.794C177.124 147.882 179.157 154.008 178.757 158.84C178.357 163.671 175.219 169.041 172.529 172.783C169.839 176.524 165.76 180.56 162.614 181.289C159.469 182.017 156.296 180.134 153.657 177.155C151.019 174.177 147.783 168.266 146.782 163.415C145.782 158.565 145.976 152.632 147.654 148.052C149.332 143.473 155.2 138.035 156.85 135.937C158.5 133.839 157.437 135.263 157.555 135.463L155.227 136.39Z" stroke="black" stroke-width="4"/>
<path d="M222.102 134.24C225.258 133.419 229.871 136.194 232.787 139.036C235.703 141.878 238.652 146.491 239.596 151.293C240.54 156.095 239.818 163.228 238.453 167.849C237.088 172.469 234.464 176.916 231.404 179.017C228.343 181.118 223.369 181.612 220.091 180.455C216.812 179.298 213.687 176.015 211.732 172.075C209.777 168.135 208.241 161.981 208.362 156.815C208.483 151.65 209.551 144.915 212.459 141.083C215.367 137.251 222.978 134.737 225.811 133.825C228.643 132.914 229.35 135.115 229.455 135.614L222.102 134.24ZM227.793 135.803C230.924 137.07 235.914 140.907 237.979 145.149C240.043 149.391 240.921 156.103 240.18 161.256C239.439 166.409 236.339 172.695 233.533 176.07C230.727 179.446 226.511 181.689 223.343 181.51C220.176 181.33 217.259 178.046 214.529 174.994C211.8 171.942 207.926 168.128 206.964 163.199C206.002 158.269 206.993 149.778 208.756 145.417C210.52 141.056 213.939 138.687 217.543 137.032C221.146 135.378 228.578 135.826 230.376 135.489C232.174 135.151 228.442 134.664 228.333 135.006" fill="#DADADA"/>
<path d="M227.768 135.568C230.936 136.796 234.948 139.656 236.799 144.125C238.65 148.594 239.016 157.169 238.874 162.38C238.731 167.591 238.528 172.285 235.945 175.39C233.362 178.494 227.141 181.174 223.376 181.007C219.611 180.84 215.714 177.773 213.355 174.388C210.997 171.002 209.822 165.19 209.224 160.693C208.627 156.197 208.384 151.727 209.771 147.408C211.159 143.09 214.544 136.715 217.549 134.782C220.554 132.85 226.028 135.475 227.803 135.811C229.577 136.147 228.2 136.257 228.195 136.8M223.109 135.182C226.165 134.532 230.669 135.921 233.524 138.899C236.38 141.876 239.507 148.118 240.241 153.046C240.976 157.974 239.646 164.081 237.93 168.467C236.214 172.853 232.997 177.586 229.948 179.362C226.898 181.138 222.932 180.84 219.633 179.124C216.335 177.408 212.138 173.1 210.156 169.066C208.174 165.032 207.199 159.588 207.741 154.92C208.284 150.253 210.478 144.637 213.412 141.062C216.346 137.486 223.34 134.532 225.346 133.466C227.352 132.401 225.602 134.202 225.449 134.667L223.109 135.182Z" stroke="black" stroke-width="4"/>
<path d="M184.35 164.602C187.608 162.979 192.909 162.898 196.955 163.946C201.002 164.995 206.283 167.906 208.627 170.892C210.97 173.878 211.411 178.402 211.016 181.862C210.62 185.323 208.869 189.249 206.252 191.654C203.635 194.06 199.275 195.944 195.313 196.294C191.352 196.644 185.962 195.898 182.482 193.754C179.002 191.609 175.655 187.077 174.433 183.43C173.211 179.782 173.314 175.032 175.151 171.868C176.987 168.705 183.366 165.674 185.452 164.449C187.537 163.225 187.387 164.33 187.665 164.52L184.35 164.602ZM192.727 163.938C196.12 163.639 199.987 164.45 203.067 166.404C206.148 168.358 210.385 172.139 211.211 175.664C212.036 179.189 209.969 183.993 208.022 187.552C206.075 191.112 203.191 195.426 199.528 197.02C195.864 198.613 190.028 198.433 186.04 197.113C182.052 195.793 177.317 192.628 175.599 189.101C173.88 185.574 175.024 179.778 175.73 175.954C176.437 172.129 177.255 168.545 179.836 166.157C182.417 163.768 189.206 162.085 191.219 161.621C193.232 161.156 191.5 163.084 191.913 163.369" fill="black"/>
<path d="M185.427 165.028C189.142 163.422 195.028 163.602 199.061 164.252C203.095 164.902 207.347 166.184 209.627 168.929C211.908 171.674 213.376 176.578 212.744 180.724C212.112 184.869 208.735 191.127 205.837 193.803C202.939 196.479 199.481 197.004 195.356 196.778C191.231 196.551 184.456 194.698 181.087 192.443C177.719 190.188 176.018 186.488 175.143 183.246C174.268 180.004 174.244 176.176 175.836 172.99C177.428 169.803 183.05 165.514 184.696 164.127C186.343 162.74 185.535 164.193 185.715 164.668M186.098 163.109C189.387 161.631 194.761 162.991 198.648 164.201C202.535 165.411 207.156 167.308 209.419 170.369C211.682 173.43 212.793 178.99 212.225 182.569C211.657 186.147 209.209 189.566 206.011 191.837C202.813 194.109 197.178 195.955 193.038 196.196C188.898 196.437 184.195 195.37 181.17 193.284C178.145 191.199 175.706 187.153 174.889 183.684C174.071 180.215 173.948 176.01 176.264 172.472C178.58 168.935 185.879 164.17 188.783 162.459C191.687 160.748 193.439 162.007 193.688 162.205L186.098 163.109Z" stroke="black" stroke-width="4"/>
<path d="M166.925 149.306C168.195 149.441 168.971 149.413 169.594 150.572C170.218 151.731 170.862 154.728 170.666 156.26C170.471 157.792 169.352 158.947 168.421 159.762C167.49 160.577 166.346 161.16 165.081 161.148C163.817 161.137 161.766 160.568 160.834 159.692C159.902 158.815 159.611 157.037 159.487 155.889C159.363 154.741 159.524 153.977 160.088 152.804C160.652 151.63 161.839 149.536 162.87 148.849C163.902 148.162 165.548 148.687 166.28 148.682C167.012 148.677 167.33 148.673 167.263 148.82L166.925 149.306ZM166.094 148.165C167.122 148.503 169.38 149.923 169.909 151.541C170.437 153.159 169.511 156.126 169.266 157.875C169.021 159.624 169.442 161.276 168.439 162.035C167.435 162.794 164.486 162.876 163.246 162.428C162.005 161.981 161.844 160.463 160.997 159.35C160.151 158.237 158.31 157.09 158.166 155.75C158.021 154.41 159.436 152.588 160.129 151.31C160.822 150.031 161.024 148.284 162.324 148.079C163.624 147.874 167.059 150.087 167.929 150.081C168.799 150.075 167.728 148.015 167.545 148.042" fill="black"/>
<path d="M167.12 149.833C168.377 150.225 169.406 151.493 169.646 152.435C169.887 153.376 168.889 154.031 168.561 155.481C168.232 156.932 168.078 160.04 167.677 161.138C167.276 162.236 167.337 162.11 166.155 162.068C164.973 162.027 161.827 161.878 160.585 160.889C159.343 159.9 158.788 157.695 158.704 156.135C158.621 154.574 159.679 152.599 160.081 151.527C160.484 150.455 160.036 150.161 161.121 149.704C162.207 149.246 165.825 148.961 166.595 148.78C167.365 148.599 165.646 148.612 165.743 148.619M163.81 148.604C165.084 148.284 167.603 148.538 168.689 149.519C169.774 150.5 170.38 152.981 170.322 154.49C170.265 155.999 169.095 157.396 168.345 158.576C167.594 159.756 166.628 161.23 165.819 161.569C165.009 161.909 164.531 161.127 163.487 160.611C162.443 160.096 160.257 159.709 159.555 158.474C158.854 157.239 159.083 154.763 159.279 153.202C159.474 151.641 159.616 150.059 160.729 149.107C161.842 148.156 165.164 147.679 165.956 147.493C166.748 147.307 165.424 147.751 165.479 147.989L163.81 148.604Z" stroke="black" stroke-width="4"/>
<path d="M223.656 148.208C224.452 148.374 226.107 149.375 226.998 150.486C227.889 151.597 228.978 153.366 229.004 154.875C229.03 156.383 227.989 158.31 227.154 159.536C226.318 160.762 225.329 162.015 223.991 162.23C222.653 162.444 220.311 161.979 219.125 160.821C217.939 159.662 217.079 156.917 216.875 155.277C216.671 153.637 217.186 152.277 217.901 150.98C218.616 149.683 219.914 147.696 221.164 147.495C222.414 147.294 224.574 149.536 225.4 149.772C226.226 150.009 226.195 148.869 226.121 148.916L223.656 148.208ZM223.799 148.795C224.861 148.948 226.876 148.893 227.532 149.515C228.188 150.138 227.621 151.235 227.734 152.529C227.848 153.824 228.555 155.734 228.214 157.282C227.873 158.83 226.884 161.144 225.688 161.815C224.493 162.486 222.301 161.905 221.039 161.307C219.777 160.71 218.391 159.472 218.116 158.23C217.841 156.988 219.272 155.539 219.39 153.853C219.508 152.166 218.352 149.058 218.822 148.111C219.292 147.165 221.552 148.114 222.21 148.176C222.867 148.237 222.823 148.308 222.765 148.481" fill="black"/>
<path d="M222.435 148.29C223.492 147.977 223.906 147.847 225.003 148.792C226.099 149.737 228.473 152.7 229.013 153.96C229.553 155.219 228.894 155.143 228.243 156.35C227.591 157.558 226.313 160.429 225.104 161.205C223.895 161.981 222.151 161.586 220.988 161.006C219.826 160.426 218.585 158.82 218.129 157.725C217.674 156.63 218.21 155.844 218.254 154.435C218.298 153.027 217.746 150.509 218.395 149.275C219.044 148.04 221.207 147.142 222.148 147.028C223.089 146.914 224.155 148.154 224.042 148.592M221.318 149.075C222.347 148.602 224.108 147.845 225.081 148.137C226.054 148.428 226.608 149.681 227.157 150.824C227.707 151.966 228.575 153.526 228.38 154.99C228.184 156.454 226.69 158.544 225.985 159.607C225.28 160.67 225.148 161.436 224.147 161.368C223.147 161.3 221.142 160.052 219.981 159.2C218.82 158.349 217.569 157.586 217.184 156.259C216.798 154.931 216.89 152.448 217.667 151.234C218.444 150.02 221.026 149.536 221.846 148.975C222.667 148.413 222.558 147.844 222.59 147.864L221.318 149.075Z" stroke="black" stroke-width="4"/>
<defs>
<clipPath id="clip0">
<rect width="551" height="219" fill="white"/>
</clipPath>
</defs>
</svg>
