<svg version="1.1" xmlns="http://www.w3.org/2000/svg" viewBox="0 0 629 255" width="629" height="255">
  <!-- svg-source:excalidraw -->
  
  <defs>
    <style>
      @font-face {
        font-family: "Virgil";
        src: url("https://excalidraw.com/FG_Virgil.woff2");
      }
      @font-face {
        font-family: "Cascadia";
        src: url("https://excalidraw.com/Cascadia.woff2");
      }
    </style>
  </defs>
  <g transform="translate(10 10) rotate(0 304.5 117.5)"><path d="M58.75 0 L550.25 0 L564.01953125 0.9179687500000001 L575.953125 3.6718750000000004 L586.05078125 8.261718750000002 L590.4111328125 11.245117187500002 L597.7548828125 18.588867187500004 L603.2626953125 27.768554687500004 L605.328125 33.046875 L608.08203125 44.98046875 L609 58.75 L609 176.25 L608.08203125 190.01953125 L605.328125 201.953125 L600.73828125 212.05078125 L597.7548828125 216.4111328125 L590.4111328125 223.7548828125 L586.05078125 226.73828125 L575.953125 231.328125 L570.2158203125 232.9345703125 L557.3642578125 234.7705078125 L58.75 235 L44.98046875 234.08203125 L33.046875 231.328125 L22.949218750000004 226.73828125 L18.588867187500004 223.7548828125 L11.245117187500002 216.4111328125 L8.261718750000002 212.05078125 L3.671875000000001 201.953125 L0.9179687500000002 190.01953125 L0 176.25 L0 58.75 L0.9179687500000001 44.98046875 L3.6718750000000004 33.046875 L5.737304687500002 27.768554687500004 L11.245117187500002 18.588867187500004 L18.588867187500004 11.245117187500002 L22.949218750000004 8.261718750000002 L33.046875 3.671875000000001 L44.98046875 0.9179687500000002 L58.75 0" stroke="none" stroke-width="0" fill="#343a40"></path><path d="M58.75 0 M58.75 0 C194.2886218714528 0, 329.8272437429056 0, 550.25 0 M550.25 0 C589.4166666666666 0, 609 19.583333333333336, 609 58.75 M609 58.75 C609 98.24997171992436, 609 137.74994343984872, 609 176.25 M609 176.25 C609 215.41666666666666, 589.4166666666666 235, 550.25 235 M550.25 235 C360.745135633368 235, 171.24027126673604 235, 58.75 235 M58.75 235 C19.583333333333336 235, 0 215.41666666666666, 0 176.25 M0 176.25 C0 146.96292017167434, 0 117.67584034334868, 0 58.75 M0 58.75 C0 19.583333333333336, 19.583333333333336 0, 58.75 0" stroke="transparent" stroke-width="2.5" fill="none" stroke-dasharray="3 6"></path></g><g><g transform="translate(58.000000000000455 28.000000000000114) rotate(0 57.374040006846144 67.18517047241332)"><path d="M-0.016320837289094836 -0.6231367819011211 C19.13053484285871 21.81406629954775, 95.70112289910514 112.53679603810112, 114.76440085098147 134.99347772672772" stroke="#e64980" stroke-width="4.5" fill="none" stroke-dasharray="3 6"></path></g></g><g><g transform="translate(59.172975229844724 31.327024770155845) rotate(89.99999999999994 54.51553959771991 55.38489676751195)"><path d="M-0.5942811615765095 0.654049540311098 C17.605281682064117 19.00973332785069, 91.24235864008457 91.78220757655794, 109.62536035701622 110.11574399471276" stroke="#e64980" stroke-width="4.5" fill="none" stroke-dasharray="3 6"></path></g></g><g><g transform="translate(85.45268200855025 60.04587899577598) rotate(134.99999999999994 29.45851992677194 29.992723967239726)"><path d="M0.1049678809940815 0.5045834653079511 C9.951790548895929 10.274032008682841, 48.76898847090768 49.60471045094308, 58.81207197254976 59.480864469171486" stroke="#e64980" stroke-width="4.5" fill="none" stroke-dasharray="3 6"></path></g></g><g><g transform="translate(69.49405668284862 40.424811115192426) rotate(106.2412089561179 42.94394103986531 49.33809435635487)"><path d="M-0.34926679059863086 0.5427510134875775 C14.035332857411813 16.87241313099755, 72.09430108389114 81.80788553654617, 86.23714887032932 98.13343769922216" stroke="#e64980" stroke-width="4.5" fill="none" stroke-dasharray="3 6"></path></g></g><g><g transform="translate(71.24851159426089 38.34300753727882) rotate(224.99999999999997 41.93798733306437 47.74671336829343)"><path d="M-1.1197962887585162 -0.8866546623408794 C12.919733617049166 14.981481585799587, 70.36816350391362 79.82076244204706, 84.99577095488732 96.38008139892776" stroke="#e64980" stroke-width="4.5" fill="none" stroke-dasharray="3 6"></path></g></g><g><g transform="translate(54.500000000000455 20.000000000000114) rotate(327.00518902714407 57.17053595855839 67.04125556871296)"><path d="M-1.086913751810789 -0.013713658601045564 C18.25411216492454 22.41497973923882, 95.93564520751437 111.56314525927107, 115.42798566892743 134.09622479602695" stroke="#e64980" stroke-width="4.5" fill="none" stroke-dasharray="3 6"></path></g></g><g><g transform="translate(60.12807847238446 30.649216659909655) rotate(358.982948951678 54.26382190091681 62.58224401494411)"><path d="M0.5487899310886859 -0.5612364180386066 C18.409626262231896 20.547725816139074, 89.98909069023644 104.78881650452064, 107.97885387074489 125.72572444792684" stroke="#15aabf" stroke-width="2.5" fill="none" stroke-dasharray="3 6"></path></g></g><g><g transform="translate(61.1634933795458 33.7755519680465) rotate(88.98294895167795 51.28951472670133 51.93224520491219)"><path d="M-0.5612364180386066 -0.2431351415812969 C16.78348272005815 17.0166707951382, 85.96760102411602 86.88048944500844, 103.14026587144129 104.10762555140568" stroke="#15aabf" stroke-width="2.5" fill="none" stroke-dasharray="3 6"></path></g></g><g><g transform="translate(85.92031108128458 60.851638877116045) rotate(133.982948951678 28.084667741579324 27.3643694379156)"><path d="M-0.2431351415812969 -0.3764192707836628 C9.067478307360565 8.901313156658585, 47.13452700612026 45.632805205256616, 56.41247062473985 55.105158146614876" stroke="#15aabf" stroke-width="2.5" fill="none" stroke-dasharray="3 6"></path></g></g><g><g transform="translate(70.90559517376005 42.431651208513244) rotate(105.22415790779596 39.522572896074166 45.56059496297627)"><path d="M-0.3764192707836628 0.26538000181317334 C12.954047642711418 15.448537512766617, 65.89647763552078 75.54582517319568, 79.42156506293188 90.85580992413936" stroke="#15aabf" stroke-width="2.5" fill="none" stroke-dasharray="3 6"></path></g></g><g><g transform="translate(72.4801989827738 40.37482805006283) rotate(223.9829489516779 40.00315674413321 45.42352462752851)"><path d="M0.26538000181317334 -1.041932476311922 C13.596058106485623 14.335634357380169, 66.28342814179072 76.43371332907327, 79.7409334864534 91.88898173136889" stroke="#15aabf" stroke-width="2.5" fill="none" stroke-dasharray="3 6"></path></g></g><g><g transform="translate(56.80087404288224 23.133446763768063) rotate(325.988137978822 53.7453321452266 62.963247098232785)"><path d="M-1.041932476311922 -0.7225640527904034 C17.109570196612903 20.341382321783396, 90.30339252523694 105.65269381437943, 108.5325967667653 126.64905824925597" stroke="#15aabf" stroke-width="2.5" fill="none" stroke-dasharray="3 6"></path></g></g><g><g transform="translate(49.30620088518481 13.952544992405706) rotate(159.76065369651985 57.477689432352804 66.44658910110597)"><path d="M-0.4822347052395344 -0.35145661756396296 C18.83998413408798 21.840803226580242, 96.02934355263919 110.87596277470399, 115.43761356994521 133.24463481977594" stroke="#e64980" stroke-width="2.5" fill="none" stroke-dasharray="3 6"></path></g></g><g><g transform="translate(56.58673685224403 30.677662958067117) rotate(249.76065369651974 54.44658910110593 55.875474714115285)"><path d="M-0.35145661756396296 0.4376135699450969 C17.840803226580228 19.07020866386593, 90.87596277470392 93.08738978169862, 109.24463481977584 111.31333585828547" stroke="#e64980" stroke-width="2.5" fill="none" stroke-dasharray="3 6"></path></g></g><g><g transform="translate(77.50707756072688 55.89747679633035) rotate(294.7606536965198 30.534308530494968 29.38441428254592)"><path d="M0.4376135699450969 -0.7553651802241802 C10.623153269325835 9.223909880255821, 50.85211280899814 49.299634413595804, 60.63100349104489 59.52419374531604" stroke="#e64980" stroke-width="2.5" fill="none" stroke-dasharray="3 6"></path></g></g><g><g transform="translate(69.71631747828997 35.10085126143679) rotate(266.0018626526377 42.30409364206116 48.86435494690821)"><path d="M-0.7553651802241802 0.9673853985965251 C13.530469666760883 17.021337219475658, 70.83243334612112 80.59031563698724, 85.36355246434641 96.76132449521988" stroke="#e64980" stroke-width="2.5" fill="none" stroke-dasharray="3 6"></path></g></g><g><g transform="translate(67.45655788141903 37.524894093568605) rotate(384.76065369651974 42.958850889926225 49.05146664797948)"><path d="M0.9673853985965251 -0.13942434713244434 C15.05283586714836 16.360196123420145, 70.74780887535076 82.08248708098604, 84.95031638125612 98.24235764309137" stroke="#e64980" stroke-width="2.5" fill="none" stroke-dasharray="3 6"></path></g></g><g><g transform="translate(54.33642116768624 19.196444278036893) rotate(486.76584272366387 57.89447418525822 67.06339659616359)"><path d="M-0.13942434713244434 -0.5526604302227497 C19.30786530251306 21.732684273769475, 96.82083297645062 112.06193957651665, 115.92837271764886 134.6794536225499" stroke="#e64980" stroke-width="2.5" fill="none" stroke-dasharray="3 6"></path></g></g><g><g transform="translate(52.95697554778144 18.566884446448967) rotate(518.7436026481979 54.174391102326695 63.26816526820812)"><path d="M-0.5526604302227497 0.9283727176487446 C17.436349109157174 21.886269745298737, 90.58026375345513 104.90375112925227, 108.90144263487606 125.6079578187675" stroke="#15aabf" stroke-width="1.5" fill="none" stroke-dasharray="3 6"></path></g></g><g><g transform="translate(58.774659486789915 35.44921054766871) rotate(248.7436026481978 51.975435979965255 52.83706150905948)"><path d="M0.9283727176487446 0.6794536225497723 C18.122026649217805 18.270675260181758, 86.08253564884761 87.68975986120867, 103.02249924228191 104.99466939556918" stroke="#15aabf" stroke-width="1.5" fill="none" stroke-dasharray="3 6"></path></g></g><g><g transform="translate(79.5486184273459 60.05373903618408) rotate(293.74360264819785 28.9894840457265 27.352186929506615)"><path d="M0.6794536225497723 -0.49418589994311335 C10.321482772404119 8.550845273608152, 47.94379742232047 45.92506560322734, 57.29951446890333 55.198559758956335" stroke="#15aabf" stroke-width="1.5" fill="none" stroke-dasharray="3 6"></path></g></g><g><g transform="translate(72.92351890055988 38.28324691983869) rotate(264.9848116043158 39.5103903876651 46.69873155101334)"><path d="M-0.49418589994311335 1.152423845976591 C12.603579759660992 16.413354784893308, 66.18873803349153 77.24749561571734, 79.51496667527337 92.24503925605008" stroke="#15aabf" stroke-width="1.5" fill="none" stroke-dasharray="3 6"></path></g></g><g><g transform="translate(69.64831782725469 44.97360165845646) rotate(383.7436026481978 41.141293332170335 44.81476576223167)"><path d="M1.152423845976591 -0.9485308639705181 C14.560875378612312 14.230177184092318, 67.98509858431237 74.96764428788083, 81.1301628183641 90.57806238843389" stroke="#15aabf" stroke-width="1.5" fill="none" stroke-dasharray="3 6"></path></g></g><g><g transform="translate(60.72633959760378 24.3103330069888) rotate(485.7487916753419 53.13657327992985 63.16406035443697)"><path d="M-0.9485308639705181 0.6666652791202068 C17.004113023325054 21.418170543083065, 88.8373234840445 104.63400640968737, 107.22167742383031 125.66145542975374" stroke="#15aabf" stroke-width="1.5" fill="none" stroke-dasharray="3 6"></path></g></g><g><g transform="translate(457.163578832314 43.42005333662661) rotate(0 57.25535498932004 66.94068946763875)"><path d="M-0.7641308538615703 0.23955324813723555 C18.404971234748764 22.533139224102097, 95.95286169921359 111.42041607225934, 115.27484083250165 133.64182568714023" stroke="#e64980" stroke-width="4.5" fill="none" stroke-dasharray="3 6"></path></g></g><g><g transform="translate(458.33655406215826 46.74707810678234) rotate(89.99999999999994 54.94068946763878 55.39426761902865)"><path d="M0.23955324813723555 0.2748408325016498 C18.533139224102083 18.82114504240452, 91.42041607225926 91.99251608066255, 109.64182568714013 110.51369440555565" stroke="#e64980" stroke-width="4.5" fill="none" stroke-dasharray="3 6"></path></g></g><g><g transform="translate(484.61626084086424 75.46593233240247) rotate(134.99999999999994 30.053101435408394 29.43672735850558)"><path d="M0.2748408325016498 -0.35817431285977364 C10.374089647864436 9.473838317429179, 49.75723910796212 49.05121170597848, 59.83136203831514 59.23162902987095" stroke="#e64980" stroke-width="4.5" fill="none" stroke-dasharray="3 6"></path></g></g><g><g transform="translate(468.65763551516216 55.84486445181898) rotate(106.2412089561179 42.35640671802082 49.26884459674042)"><path d="M-0.35817431285977364 0.16774394586682329 C13.780398103934237 16.516928015052212, 70.58401063850377 82.17779624312584, 85.0709877489013 98.36994524761397" stroke="#e64980" stroke-width="4.5" fill="none" stroke-dasharray="3 6"></path></g></g><g><g transform="translate(470.4120904265749 53.76306087390532) rotate(224.99999999999997 43.3633405397585 48.97135370045581)"><path d="M0.16774394586682329 -0.43198906257748604 C14.54842666272492 16.02348940014733, 72.3352894814894 82.15882600247329, 86.55893713365023 98.37469646348913" stroke="#e64980" stroke-width="4.5" fill="none" stroke-dasharray="3 6"></path></g></g><g><g transform="translate(453.663578832314 35.42005333662661) rotate(327.00518902714407 57.8143612377346 67.53130668476226)"><path d="M-0.43198906257748604 1.0559603221714495 C18.971158579240242 23.362445172419154, 96.89717189793785 111.81801869149011, 116.0607115380466 134.00665304735304" stroke="#e64980" stroke-width="4.5" fill="none" stroke-dasharray="3 6"></path></g></g><g><g transform="translate(459.291657304698 46.06926999653621) rotate(358.982948951678 54.64230119092531 63.35605201741606)"><path d="M1.0559603221714495 1.0607115380465986 C19.06611000780685 22.074608464607092, 90.33634286842857 104.99871001724647, 108.2286420596792 125.65139249678548" stroke="#15aabf" stroke-width="2.5" fill="none" stroke-dasharray="3 6"></path></g></g><g><g transform="translate(460.3270722118598 49.19560530467294) rotate(88.98294895167795 52.063322729173365 52.018332527147294)"><path d="M1.0607115380465986 0.0066530473530292955 C18.310365368526167 17.168994994814717, 86.17749453684185 86.65024223355213, 103.06593392029993 104.03001200694156" stroke="#15aabf" stroke-width="2.5" fill="none" stroke-dasharray="3 6"></path></g></g><g><g transform="translate(485.0838899135981 76.27169221374248) rotate(133.982948951678 28.17075506381434 27.28550104878596)"><path d="M0.0066530473530292955 -0.45075122192502015 C9.219802507037079 8.542755741650039, 46.904279794663964 45.76966099825588, 56.33485708027575 55.02175331949695" stroke="#15aabf" stroke-width="2.5" fill="none" stroke-dasharray="3 6"></path></g></g><g><g transform="translate(470.06917400607404 57.85170454513974) rotate(105.22415790779596 39.44370450694453 46.10458328618796)"><path d="M-0.45075122192502015 0.18776645734906205 C12.595490227702872 15.523557635294694, 66.03333342852005 76.91180904084095, 79.33816023581396 92.02140011502682" stroke="#15aabf" stroke-width="2.5" fill="none" stroke-dasharray="3 6"></path></g></g><g><g transform="translate(471.6437778150878 55.79488138668927) rotate(223.9829489516779 40.5471450673449 44.68387437804728)"><path d="M0.18776645734906205 -1.125337303429842 C13.6710782290137 14.031968910145062, 67.64941200943599 75.04098843359598, 80.90652367734086 90.4930860595244" stroke="#15aabf" stroke-width="2.5" fill="none" stroke-dasharray="3 6"></path></g></g><g><g transform="translate(455.96445287519623 38.553500100394615) rotate(325.988137978822 53.00568189574551 62.90605439117104)"><path d="M-1.125337303429842 0.4430261380970477 C16.805904749377795 21.306578835913033, 88.91066762975966 104.22926422987626, 107.13670109492081 125.36908264424498" stroke="#15aabf" stroke-width="2.5" fill="none" stroke-dasharray="3 6"></path></g></g><g><g transform="translate(448.4697797174988 29.3725983290322) rotate(159.76065369651985 57.354982531815836 66.46179327890283)"><path d="M0.4430261380970477 -1.085287917405367 C19.456221549461304 21.43708071236811, 94.97747779761761 111.46410212839653, 114.2669389255346 134.00887447521103" stroke="#e64980" stroke-width="2.5" fill="none" stroke-dasharray="3 6"></path></g></g><g><g transform="translate(455.750315684558 46.09771629469361) rotate(249.76065369651974 54.461793278902746 55.39634114541116)"><path d="M-1.085287917405367 -0.7330610744655133 C17.437080712368093 17.78072513006628, 91.46410212839643 93.16213187389079, 110.00887447521092 111.52574336528782" stroke="#e64980" stroke-width="2.5" fill="none" stroke-dasharray="3 6"></path></g></g><g><g transform="translate(476.6706563930404 71.31753013295685) rotate(294.7606536965198 30.05517496179084 29.927919365570432)"><path d="M-0.7330610744655133 0.00887447521090512 C9.333669735526186 10.164249837433461, 50.92685490119031 49.97516662197889, 60.84341099804725 59.84696425592996" stroke="#e64980" stroke-width="2.5" fill="none" stroke-dasharray="3 6"></path></g></g><g><g transform="translate(468.87989631060395 50.52090459806328) rotate(266.0018626526377 42.84759872508562 48.79821762263461)"><path d="M0.00887447521090512 1.1797929055988787 C14.470809623938523 17.37141014128819, 71.5079655545042 80.4055464968033, 85.68632297496033 96.41664233967035" stroke="#e64980" stroke-width="2.5" fill="none" stroke-dasharray="3 6"></path></g></g><g><g transform="translate(466.620136713733 52.9449474301951) rotate(384.76065369651974 42.892713565652684 48.53668663769648)"><path d="M1.1797929055988787 0.18334616348147392 C15.402908788960893 16.330204936264902, 70.56303973516683 80.69132126271202, 84.60563422570658 96.89002711191146" stroke="#e64980" stroke-width="2.5" fill="none" stroke-dasharray="3 6"></path></g></g><g><g transform="translate(453.5000000000002 34.61649761466339) rotate(486.76584272366387 57.37969417497527 66.51752022579319)"><path d="M0.18334616348147392 -0.8973425857722759 C19.277874115357815 21.228089102854355, 95.4296671581766 111.49672567124179, 114.57604218646895 133.93238303735865" stroke="#e64980" stroke-width="2.5" fill="none" stroke-dasharray="3 6"></path></g></g><g><g transform="translate(452.1205543800954 33.98693778307546) rotate(518.7436026481979 53.628514731956216 62.869891119207495)"><path d="M-0.8973425857722759 -0.42395781353116035 C16.931753938242046 20.572774501212947, 90.01504984818025 105.06332960609849, 108.15437204968481 126.16374005194612" stroke="#15aabf" stroke-width="1.5" fill="none" stroke-dasharray="3 6"></path></g></g><g><g transform="translate(457.93823831910345 50.86926388429521) rotate(248.7436026481978 51.577161830964656 51.745615098939936)"><path d="M-0.42395781353116035 -0.06761696264147754 C16.808531405132015 17.34174799507413, 86.24211412569383 86.30241570500303, 103.57828147546053 103.55884716052137" stroke="#15aabf" stroke-width="1.5" fill="none" stroke-dasharray="3 6"></path></g></g><g><g transform="translate(478.7121972596599 75.47379237281058) rotate(293.74360264819785 27.89803763560701 28.14252404950315)"><path d="M-0.06761696264147754 0.06159633323550229 C9.392555507296489 9.502831263119166, 46.556453266114815 47.03530140009614, 55.86369223385552 56.22345176577082" stroke="#15aabf" stroke-width="1.5" fill="none" stroke-dasharray="3 6"></path></g></g><g><g transform="translate(472.0870977328734 53.703300256465184) rotate(264.9848116043158 40.30072750766169 45.46185090436731)"><path d="M0.06159633323550229 -0.28339838907122616 C13.555565749172006 14.929054471003328, 67.29897383036034 75.83964626961605, 80.53985868208785 91.20710019780584" stroke="#15aabf" stroke-width="1.5" fill="none" stroke-dasharray="3 6"></path></g></g><g><g transform="translate(468.8118966595687 60.393654995082954) rotate(383.7436026481978 39.904412685524335 45.34907151206528)"><path d="M-0.28339838907122616 0.07636114284396167 C13.07657506472233 15.169725400852474, 66.57724923821107 75.47185863279955, 80.09222376011986 90.62178188128658" stroke="#15aabf" stroke-width="1.5" fill="none" stroke-dasharray="3 6"></path></g></g><g><g transform="translate(459.8899184299173 39.730386343615294) rotate(485.7487916753419 53.670879029763455 63.036910571362114)"><path d="M0.07636114284396167 -0.3712737791240215 C17.943661240085213 20.75014177269589, 89.34153782896324 105.56464998160061, 107.265396916683 126.44509492184825" stroke="#15aabf" stroke-width="1.5" fill="none" stroke-dasharray="3 6"></path></g></g><g><g transform="translate(265.48067756337946 148.90194635990383) rotate(0 35.774807348892296 41.29013127787661)"><path d="M-0.18786039277911182 -1.0090198405086994 C11.635030930752645 12.966255992497842, 59.765686214541844 69.38025030715188, 71.73747509056383 83.58928239626194" stroke="#e64980" stroke-width="4.5" fill="none" stroke-dasharray="3 6"></path></g></g><g><g transform="translate(266.5237385328164 150.98655984616232) rotate(89.99999999999994 33.721345578468686 33.95534651708488)"><path d="M-1.0090198405086994 -0.7967211954295634 C10.443327426028517 10.685824574966842, 56.76560747480525 56.77663008640018, 68.45171099744599 68.70741422959932" stroke="#e64980" stroke-width="4.5" fill="none" stroke-dasharray="3 6"></path></g></g><g><g transform="translate(283.0207992044184 168.87211304328343) rotate(134.99999999999994 17.971858499009272 18.21500137652842)"><path d="M-0.7967211954295634 -0.9288245804607869 C5.357995235608309 5.465816615210272, 30.13748338960751 30.849692577055578, 36.740438193448114 37.35882733351765" stroke="#e64980" stroke-width="4.5" fill="none" stroke-dasharray="3 6"></path></g></g><g><g transform="translate(273.0039628095499 155.9565386923747) rotate(106.2412089561179 26.3638584079647 30.838490355113095)"><path d="M-0.9288245804607869 -0.891323422640562 C8.182102292355692 9.669514132075486, 44.431120962782686 52.088793635035444, 53.65654139639018 62.56830413286673" stroke="#e64980" stroke-width="4.5" fill="none" stroke-dasharray="3 6"></path></g></g><g><g transform="translate(274.09670594095724 154.90012816513809) rotate(224.99999999999997 27.113699133922978 30.80017309049657)"><path d="M-0.891323422640562 -0.2729342825710773 C8.427917058345473 10.19408322476643, 45.88080826638538 51.54462584074824, 55.11872169048665 61.873280463564264" stroke="#e64980" stroke-width="4.5" fill="none" stroke-dasharray="3 6"></path></g></g><g><g transform="translate(263.30453012080625 143.28907620614564) rotate(327.00518902714407 36.37774217282265 43.15701721562695)"><path d="M-0.2729342825710773 1.1892460115253927 C12.053272918875109 15.52526465192024, 60.840574311291626 71.30356851590594, 73.02841862821633 85.12478841972852" stroke="#e64980" stroke-width="4.5" fill="none" stroke-dasharray="3 6"></path></g></g><g><g transform="translate(266.3144039231129 150.11176555854502) rotate(358.982948951678 35.02750717718175 40.17541642272292)"><path d="M1.1892460115253927 0.49422234222292905 C12.815427972438474 13.849146473188586, 57.75438511849711 66.7514994520912, 68.86576834283792 79.85661050322287" stroke="#15aabf" stroke-width="2.5" fill="none" stroke-dasharray="3 6"></path></g></g><g><g transform="translate(267.22412328685937 152.3500639434542) rotate(88.98294895167795 33.05272909404471 32.85089091329576)"><path d="M0.49422234222292905 0.6066814430058003 C11.474917363629187 11.257657171682517, 54.880353904294196 54.37130132116874, 65.61123584586647 65.09510038358569" stroke="#15aabf" stroke-width="2.5" fill="none" stroke-dasharray="3 6"></path></g></g><g><g transform="translate(282.7975164042025 169.43160536767095) rotate(133.982948951678 17.80945730746248 17.66096176296935)"><path d="M0.6066814430058003 0.3199353329837322 C6.243845969738105 6.071229641439071, 29.30224531144668 29.195550909646105, 35.01223317191922 35.00198819295496" stroke="#15aabf" stroke-width="2.5" fill="none" stroke-dasharray="3 6"></path></g></g><g><g transform="translate(273.4331386060244 157.86351842709064) rotate(105.22415790779596 25.32953146835291 28.406358146850096)"><path d="M0.3199353329837322 -0.4015415422618389 C8.62741954323361 9.033054523230868, 41.976500418618805 47.5731226164166, 50.3391276037222 57.21425783596204" stroke="#15aabf" stroke-width="2.5" fill="none" stroke-dasharray="3 6"></path></g></g><g><g transform="translate(274.6927100592761 156.4584060425026) rotate(223.9829489516779 24.901103237173288 28.547210870865797)"><path d="M-0.4015415422618389 -0.41178652122616766 C7.864636220005252 9.119258967102843, 41.73103110028852 47.723657495087764, 50.203748016608344 57.50620826295779" stroke="#15aabf" stroke-width="2.5" fill="none" stroke-dasharray="3 6"></path></g></g><g><g transform="translate(264.8070390022649 145.6062153242931) rotate(325.988137978822 33.79604234863086 39.33667744630392)"><path d="M-0.41178652122616766 -0.5471661083400249 C10.868869459691187 12.723177648861595, 56.47170995802949 65.93882851938103, 68.00387121848786 79.22052100094788" stroke="#15aabf" stroke-width="2.5" fill="none" stroke-dasharray="3 6"></path></g></g><g><g transform="translate(260.12989908099166 139.5059873294739) rotate(159.76065369651985 35.83543800418113 42.39249271853521)"><path d="M-0.5471661083400249 -0.25521568134427075 C11.556097834820653 13.98678225859587, 60.103429449176325 70.98392934424604, 72.21804211670224 85.04020111841469" stroke="#e64980" stroke-width="2.5" fill="none" stroke-dasharray="3 6"></path></g></g><g><g transform="translate(264.6141592146862 150.3932251181409) rotate(249.76065369651974 34.823707019127255 34.444448546885326)"><path d="M-0.25521568134427075 -0.31615416929125784 C11.463853692126552 11.309215392609063, 58.36928651189944 57.567429656483846, 69.90262971959878 69.2050512630619" stroke="#e64980" stroke-width="2.5" fill="none" stroke-dasharray="3 6"></path></g></g><g><g transform="translate(277.8317931380475 166.31568363830786) rotate(294.7606536965198 18.46096052880978 18.859081872362793)"><path d="M-0.31615416929125784 0.5220941416919231 C5.981386053250524 6.763975022421582, 30.92828295969115 31.135740083388008, 37.23807522691067 37.196069603033685" stroke="#e64980" stroke-width="2.5" fill="none" stroke-dasharray="3 6"></path></g></g><g><g transform="translate(272.60837218783854 153.07062114771418) rotate(266.0018626526377 27.007938903799072 30.44810477505027)"><path d="M0.5220941416919231 -0.39368638917803767 C9.480260699567003 9.87398862891693, 44.717168469115116 51.087971806193345, 53.493783665906214 61.289895939278544" stroke="#e64980" stroke-width="2.5" fill="none" stroke-dasharray="3 6"></path></g></g><g><g transform="translate(271.52123749314296 154.8427161632652) rotate(384.76065369651974 26.72331355386018 30.097837875881766)"><path d="M-0.39368638917803767 -0.4356920130550861 C8.632391555186912 9.58252025746603, 44.87998643754325 50.47412580069398, 53.84031349689844 60.63136776481861" stroke="#e64980" stroke-width="2.5" fill="none" stroke-dasharray="3 6"></path></g></g><g><g transform="translate(263.2614568921492 143.2135087576812) rotate(486.76584272366387 35.67540695820776 41.933872541325826)"><path d="M-0.4356920130550861 -0.0891621820628643 C11.44170995157471 13.969270093585898, 59.770074271237384 69.99613505376304, 71.78650592947069 83.95690726471453" stroke="#e64980" stroke-width="2.5" fill="none" stroke-dasharray="3 6"></path></g></g><g><g transform="translate(262.2634338735047 142.93093459663567) rotate(518.7436026481979 33.80436250288051 38.95884323203384)"><path d="M-0.0891621820628643 -0.7476903565227986 C11.259433414104137 12.435821115751462, 56.44695165635423 65.23084835002521, 67.69788718782397 78.66537682059048" stroke="#15aabf" stroke-width="1.5" fill="none" stroke-dasharray="3 6"></path></g></g><g><g transform="translate(266.17600741227784 153.56857616998627) rotate(248.7436026481978 31.83615590335569 32.04640316038132)"><path d="M-0.7476903565227986 -0.5611997120082378 C10.061592006192063 10.22932832379739, 53.35970280222821 53.82195349135004, 64.42000216323409 64.6540060327709" stroke="#15aabf" stroke-width="1.5" fill="none" stroke-dasharray="3 6"></path></g></g><g><g transform="translate(279.20994602381734 168.657083144838) rotate(293.74360264819785 17.004969554548097 17.43264083058105)"><path d="M-0.5611997120082378 -0.8712983496487141 C5.2155171218529786 5.209413378240226, 28.752897481627983 29.62645772994339, 34.571138821104434 35.73658001081085" stroke="#15aabf" stroke-width="1.5" fill="none" stroke-dasharray="3 6"></path></g></g><g><g transform="translate(275.14579227066884 155.43840029663147) rotate(264.9848116043158 25.101210535964697 27.92663083094743)"><path d="M-0.8712983496487141 -0.8426358930766582 C7.7656032800347665 8.700213651419967, 42.407407238916086 47.07624518454715, 51.07371942157808 56.6958975549715" stroke="#15aabf" stroke-width="1.5" fill="none" stroke-dasharray="3 6"></path></g></g><g><g transform="translate(273.06943355951785 159.12603802812737) rotate(383.7436026481978 24.42137592127051 29.229944931153312)"><path d="M-0.8426358930766582 0.3228052966296673 C7.531795348194346 10.157535782517282, 41.23415366841905 48.55314372212335, 49.68538773561779 58.13708456567698" stroke="#15aabf" stroke-width="1.5" fill="none" stroke-dasharray="3 6"></path></g></g><g><g transform="translate(267.0116951510736 146.55899482531208) rotate(485.7487916753419 34.47877640891841 38.79250158303796)"><path d="M0.3228052966296673 -1.0655263893306255 C11.907146275105626 12.183334518749911, 57.30119618506507 65.26849375108578, 68.63474752120705 78.65052955540655" stroke="#15aabf" stroke-width="1.5" fill="none" stroke-dasharray="3 6"></path></g></g></svg>