<svg version="1.1" xmlns="http://www.w3.org/2000/svg" viewBox="0 0 713.5309152971731 262.5049677588621" width="713.5309152971731" height="262.5049677588621">
  <!-- svg-source:excalidraw -->
  
  <defs>
    <style>
      @font-face {
        font-family: "Virgil";
        src: url("https://excalidraw.com/FG_Virgil.woff2");
      }
      @font-face {
        font-family: "Cascadia";
        src: url("https://excalidraw.com/Cascadia.woff2");
      }
    </style>
  </defs>
  <rect x="0" y="0" width="713.5309152971731" height="262.5049677588621" fill="#ffffff"></rect><g transform="translate(10 10) rotate(0 343 120)"><path d="M0 0 C0 0, 0 0, 0 0 M0 0 C0 0, 0 0, 0 0 M3.0500122376810417 12.120903695046483 C1.978003168062674 9.45833228659119, 6.053756980972287 3.776563965754785, 10.799521894705427 -0.5800097768113255 M-1.0143135926593436 11.848747334301054 C2.57254701463132 10.88833194689708, 3.33775615937425 5.919118112815997, 9.890447090518606 -0.9298826788470387 M0.511015013065121 21.16605285340464 C10.106512792207932 12.320066662186797, 18.600793881378124 2.619752880260272, 18.961700825298095 2.057759759405208 M1.387419272418997 26.076056124358534 C5.851742694678427 17.346708753850848, 9.092330929670156 14.265976995635752, 19.510413648838068 0.974464857408357 M-1.3435176593345126 35.379700025358545 C8.612231793053681 23.498710784061174, 18.42677624144926 16.597135567824694, 34.776506179428495 1.42561988544308 M0.33912823152723703 38.379497812875854 C14.016220377585123 22.803310841605622, 25.793774662378688 8.79368685708869, 30.52144858003298 1.5402394646092539 M-3.294272491708476 47.47336509511702 C16.19820320767323 33.73295553508515, 27.48742217717521 16.641300873576856, 45.62833698521905 1.0490570988832957 M-1.1076882835478372 48.07967721731298 C15.141864695085086 27.700060653781083, 32.7026193631744 8.318584846405244, 40.62035506274157 0.7536771882652289 M0.7822325025777133 57.426122877277834 C19.710042632424752 40.49921622293165, 34.78862118605085 17.43881602162154, 54.71079675829476 -0.6366258658991448 M-0.9461254346092431 59.86013692570518 C20.687803035406574 36.37088493439728, 41.41659693154285 15.613036573507472, 51.200565714151324 1.000642286188782 M-0.4828991608509412 69.235776106216 C16.975692739238646 50.279131262017486, 31.275768596585664 33.79829714899332, 61.31905151428063 -2.6726887745292416 M-0.0015006044694771958 74.82549119586496 C21.794254798606797 50.08610689175027, 42.15151385083199 26.15375125422763, 63.04223190144975 0.9677802661924133 M-0.3570014663694394 83.4235650163065 C17.574045967103952 66.33810284437342, 34.100730685758194 48.19425196986375, 73.09982976880165 -1.826953892631991 M1.2875875740589606 85.38113553560481 C28.959299514212983 54.54078758613302, 56.87864792561317 24.12544119256841, 76.18722374182435 -2.2324821139113737 M-2.4119049273432864 97.53887692214713 C27.886875417350176 72.89258482758699, 47.87481884190396 45.108988355481834, 86.30142253748284 -0.8438059858324038 M-1.9117998108269347 98.11295628296003 C18.71142920948316 73.30383614152316, 39.05913339161815 52.0616958125697, 85.81413010246263 1.0630631536899102 M2.350299529833528 110.8904078976673 C27.50097531601698 73.80367618598744, 57.812217704704224 44.482295633667974, 98.02368333594919 -0.6941923197554729 M-0.32770583395865316 108.89349228529753 C19.29007511679908 84.52238116659437, 41.68016237603719 63.21588120374522, 94.11325860055209 -0.8065946731912277 M3.8109063917954984 120.82442025746485 C27.09205254163033 92.4225399094348, 52.46503352680845 60.3674041541677, 102.46802817982567 -0.8256226600261911 M1.3553680928608003 121.53519238065263 C28.274618272357923 92.66578746456929, 53.826557142499546 64.14517856777312, 106.16163560328019 1.2983149132577196 M3.6088316741676323 135.45590423591472 C44.07610997866272 78.16127548513391, 92.13068704628404 30.421852902073596, 118.53137655574682 1.3425403079532074 M-1.0043016631810673 134.8965770768378 C44.19816464554241 84.62703951580566, 87.60146922160693 33.594524145106675, 117.14194719884398 0.1980532510720181 M2.734553892574908 142.17328756739195 C49.72271197482632 88.37327886377045, 98.17562738209352 28.086281023636346, 124.68038753731861 -0.8497573418878304 M0.2132800151032228 145.76194813166555 C47.89718322896114 88.93581251418479, 101.87333457424583 31.372513232555505, 126.84177531241193 -0.5004658123813854 M-2.568029429457636 156.45263430886465 C49.31167673533943 109.44593926253552, 92.86960579056789 57.096968667476496, 139.0632253810664 -2.6362628961390135 M-0.37326758811580507 159.6130617203787 C57.422201008861805 94.24457875190377, 111.42949209626606 30.97950186568421, 135.81896426951806 0.2561975545727355 M0.44170612052193425 169.29866596655688 C39.54378943171335 127.64983744220345, 76.81645384327182 82.78727615628861, 147.50387316185422 -0.8493327888980045 M1.0667567590033857 170.35585210470566 C49.800436239323425 111.25130126419741, 102.1747753188316 51.469771882937714, 146.96766661674405 0.07416339892285778 M-2.608916341345405 184.91406136138906 C54.024333513601874 123.50612772909196, 103.06264484708336 66.8711302244208, 160.22997281184982 1.3135662463031959 M-1.095434721498869 181.72701777353888 C31.292238549528694 143.9890169857663, 62.63962128667582 107.4818588799985, 158.13723646613377 -0.04867701294346477 M2.4205952291297845 194.9801415624529 C52.17728363024444 136.0891848446826, 108.0103880053077 75.02864479990043, 172.07031998305513 0.9485487957438983 M1.0441491775795646 195.06930238178555 C38.56318939078954 149.43543883592272, 78.15106068278274 102.64615537596013, 169.13998040848307 -1.2662889722127413 M0.37675414801194274 206.2444375169652 C63.103534883470914 131.83494253951383, 133.21047658161868 48.826994230455284, 180.7018878993471 1.5682518238283996 M1.288409552503321 205.75481652029035 C45.02117030297698 156.90859699781728, 86.88285439088061 110.93901488833544, 181.37485357365034 1.3812137158660043 M2.056024990782045 220.68343424699367 C60.95137011256519 150.9230289355613, 120.20368538819847 85.26543677456891, 189.45965775451927 -0.12102146558827759 M-1.1608627498872022 218.52884680174722 C65.72050453716005 145.46396129809048, 131.08863909711872 68.95110120786393, 191.46403372992944 1.5355083591286212 M-0.7413399544477923 233.14042485136176 C71.97314804589277 143.6283416471738, 146.21064204476278 60.51429701705928, 203.65825431115786 -1.6958266656906553 M-0.11448090685169243 233.01530656270353 C59.10765243618269 164.14781183967654, 120.52267969481406 93.74154500167032, 200.66736493009537 -0.5665447327017049 M2.751098987567614 239.83867472719663 C65.61460393764222 168.21502062259935, 122.86486163624714 98.72107899006885, 210.8629120503056 -1.7563277671356812 M0.7124842110583514 242.35993384858065 C69.5957321751532 160.71184484986213, 140.96742402617943 82.42694954064957, 211.21217034785272 -0.49751886989732985 M14.971559879781566 242.81123768443652 C79.13522566460733 166.33445839061872, 140.31057156984727 96.6353189612038, 224.53607737048281 0.11940540447494488 M13.43409981755124 240.4235657643588 C73.80526740712466 175.09468408881222, 136.51655868761748 103.3002890631668, 223.39639334937277 0.33099040195233476 M24.790128608772253 239.4906456913743 C74.33556642259764 183.02371075085998, 128.48209119105087 118.10795744287822, 235.45207399374536 -2.080742192087632 M22.776131910562988 240.4225624320215 C98.33911152448312 157.0760417519149, 171.86432974359232 71.30384949107213, 233.01710935816365 -0.511474356784229 M33.85707236350453 240.30364126998262 C92.11726226589253 178.02695859539233, 143.74242545261347 112.17795626659257, 243.10114246843307 1.1676823557742142 M34.86244399326744 241.10952555542602 C105.0237220015407 160.73070222395845, 177.1619987975432 80.58455987737663, 245.13457382271164 0.422328737437872 M45.4686533173182 239.06936970785912 C105.01598900033659 170.55201791007823, 167.13213517726624 102.01825882248721, 252.99425582726076 1.206629226283156 M43.40084770165088 240.83512783061735 C121.46212111456167 156.71583800924464, 195.75155703891008 71.32121660706004, 254.4053695743156 -0.03441468964892571 M56.34262212792815 240.82270955822648 C117.90489385164933 163.93217740224503, 189.75178852343709 85.20428971320246, 262.8389490873183 -0.9811236367131231 M54.794096054512174 241.83535569582796 C139.82463682845508 146.52350414440883, 221.29661954932612 52.02176348508878, 264.5937360770869 1.0241634798753279 M65.19270343742421 239.2406271399323 C144.82856895756586 147.14431366745626, 227.48146441941023 53.54048108109526, 276.71346875007066 -0.5466240237420517 M65.65373270346267 240.51959208147764 C142.0785530357934 150.29751842299325, 220.11959452731355 61.68004623341507, 274.4849146779493 0.06486460611796946 M75.7034173722712 238.8658430374493 C145.96252668380748 161.14913928811936, 220.23999596592336 81.21303300154997, 285.64293830135745 -0.14906295970586003 M76.7117571829261 240.15735516017395 C131.97955190275695 176.1817164054949, 188.29896461990526 113.46394177345057, 286.19714985663916 -0.1978379586259654 M88.30557304330902 243.73251460087513 C138.81970482700714 181.9643801365837, 186.65726529189726 123.96901167800712, 298.5724997113937 1.068563796118023 M87.13346616013891 241.16638109671172 C126.49240357352409 187.7031910366759, 170.99564761271245 139.23830411580238, 296.69469847570525 -0.5137161198741401 M96.8956676091869 241.14903377005365 C183.7687941315537 144.48732456955776, 264.54314667559373 49.74622234192209, 306.1479923291351 1.7001576886305048 M96.57479815428015 243.35155676633767 C181.53613943154429 148.46924298409687, 265.97314844220824 53.80231867349918, 308.89660756334274 -0.8082014748541637 M105.63757655339603 243.28804418672567 C162.29834580756102 173.1047218197319, 226.34851472881735 102.40023644539693, 317.27355412822703 -2.0709746464552836 M107.71359464255973 241.59053180695682 C146.68947166882444 196.90462108108443, 189.51885047540998 146.82940295364298, 317.6068640163684 -1.49861217554359 M116.78423540717547 241.1808514719524 C197.06876055043983 145.0037431477095, 283.4338904477335 51.928989270586264, 328.5127683181393 0.08311270576361485 M119.43457128074162 243.00963478361115 C171.71145989323225 176.123264667906, 230.0322747074649 109.99605383739282, 328.9872697286714 0.7893405004271394 M130.69996260177524 240.66319929448377 C177.0334976487363 190.29288371985905, 227.1592822847056 131.0302092489478, 338.24964313012185 -1.0423743859627987 M129.36658960320088 243.10483631192562 C182.77629927643005 182.4436299527577, 232.3391202094714 125.01634394963202, 338.12174213462674 0.7360448686830254 M136.99040719801403 240.60124483402714 C186.0138110597119 182.12331394262608, 238.23837957806344 126.01320275994357, 348.99535747759467 -0.09100344868100302 M138.72348763359884 241.946622948193 C187.97035179990405 188.4371719049412, 234.350800183478 135.75829468992174, 350.62169863377363 0.5334984665543748 M151.0206647388333 243.9097686199566 C212.96168650270755 169.8639904207585, 281.6768266087465 92.23472179693857, 361.8174195396389 2.914124388044951 M149.43161054677046 242.8723355549731 C220.1140785159 157.22108162652097, 289.64326667844506 78.78394814542034, 360.01070094612277 -0.031967227088237515 M160.9492053542223 240.56063295997848 C214.71617397184045 180.19484984238665, 265.8510676901062 118.46502572987082, 369.7504828144365 1.2984090391172756 M161.23972734709577 242.7890949544091 C201.40240103848961 192.9314951663184, 244.4135464159304 142.79373245629384, 371.6630184554401 -0.3540320746080513 M169.87542803002086 241.01885932919043 C223.4973984780127 177.4402565211733, 283.5226898684383 113.23762362424914, 380.2085311472022 0.9498028702585128 M171.628860764311 242.04901624879602 C222.3332325119337 180.07848715468268, 277.2534044212304 119.8147979876846, 380.1586760867744 -0.5481310440227583 M182.0197582364438 242.4666724683151 C252.45575596766557 159.4915784253371, 322.77322849023494 80.94414375077717, 389.3023203675259 -1.5017799871835666 M181.32554191096506 243.13963328261622 C229.23960993882977 185.67723976307732, 278.5273069111216 129.06605301092796, 390.9352503979868 0.7932563888376768 M194.49914142808095 239.82783888370017 C268.32324802875786 156.0994734125873, 341.9274657055744 67.73496184647603, 401.6131917893724 -2.0604611362363925 M191.41448353241913 240.97198139253962 C254.3341454822418 170.84678444768258, 318.2614328586296 97.78753004829366, 403.40138282975124 -0.3114790096694089 M205.90152854389723 242.3916693473182 C251.50224034523782 185.31642019447375, 300.3317508646122 130.67047923948036, 410.7692377110816 -0.7387154143022804 M203.25108525684726 241.16700015742362 C278.1116534970003 156.44201369889376, 348.90203658843666 72.01926843193942, 413.6491169555541 -0.5463374809990658 M213.6610335072324 240.040045396767 C286.07936057917817 161.3423867076492, 356.2201219079121 79.77331497797317, 424.8187789153683 -1.732360393158573 M212.77427484523557 241.94412014831323 C278.6054585171875 168.16881213163742, 344.06402860543693 93.35457053239543, 422.7658997316942 0.9903724755811287 M222.6324187258013 242.27007783526912 C281.20249983750045 176.20829180349523, 337.6620557874425 110.53040662005999, 435.60720216932236 -2.3962178789575863 M224.41817344138298 241.2083376784408 C277.37799760208236 182.97711109057693, 330.4297689263579 125.2725946361958, 433.94725474728284 1.4736128529911245 M236.86658859169387 238.8214692316722 C292.48110425877536 173.94044956746495, 353.7555528385354 104.35489663949721, 444.1504377244087 0.9812325877732505 M234.22560882190086 240.83745755322624 C294.07782039900883 176.10023780652247, 350.62261627289445 108.81983150897162, 444.0097914742439 1.4386908863382581 M245.78641898137488 244.298836420449 C288.41538558685994 187.87264865992614, 335.8158821631876 134.81745373252562, 458.010116816467 1.8035362321317074 M246.55961264621297 242.56983982027705 C300.7416920992732 182.79769368709856, 353.0396503025377 123.293903227059, 454.5030385173137 0.6690058029175655 M255.15989875568414 242.00008100169708 C337.16918393999987 148.5155080382759, 415.9762236181447 57.916638029143286, 466.27007316571223 -0.20973445515964345 M257.21693370655566 241.09231451938808 C321.91375106719005 167.1876622485926, 384.2532319340635 93.61547111325872, 466.02228486404096 -0.31654042778861685 M267.67629525983665 239.7380398411391 C315.1635601013715 187.63859464656701, 362.95335305971435 127.78200988297952, 476.1091484767341 0.8020307822468811 M267.33970317797775 242.32658443254175 C336.2360817267752 164.48071355298492, 406.543073653725 82.60420584906414, 478.12108513478705 1.2238676558896608 M280.32131182342204 241.6671755701228 C344.1483236720727 169.36509625180997, 409.68651099270136 96.66106652546824, 487.77769393849763 -0.13350153367606207 M277.7282758683406 242.51797983390802 C338.54205444230547 172.91523727405485, 396.2850442368827 106.15284967893561, 486.4239328327259 0.5430417578098212 M287.3519092604052 242.50892308562075 C345.8339717954871 178.6340987387924, 397.9787726828656 115.10943786368709, 497.57239172434254 -2.1976061153308164 M288.75373546831787 240.92219723984428 C349.44911186426276 170.12918732679634, 412.2477780796251 98.74034731214185, 499.33775759384366 0.8913605740167854 M300.07011936912613 238.57602805023063 C355.3241399579488 180.67877855157406, 412.53014588735346 116.46491014249608, 506.41074049198374 1.044511590505273 M300.2703998013962 241.2927101588955 C385.7733115644941 147.7564667411384, 467.93985310882135 49.76908333742103, 509.96611043693935 1.0050205427429761 M310.6002184322995 238.79688539217514 C375.0506731662254 160.73600445334662, 440.4012224080222 86.1716942676152, 517.2062128835111 -0.9299300973201642 M308.7284940738742 242.16885184179404 C395.48750209906 147.5452210207761, 477.6843479752545 51.12513498849476, 518.4203250136242 -0.6067214055917138 M322.1995983808539 242.89457893437338 C394.08904674917414 154.87694144306346, 473.23976615933935 65.85462468805382, 532.238528915841 -2.173620196463805 M320.4277750774028 241.91807404819585 C361.49624165338145 191.12571057609352, 402.42624143979083 141.63302051793943, 528.9351917148833 -1.3715452292264279 M332.48483678853955 243.79857522819384 C409.3757601899615 149.78980572003735, 489.8738836548542 57.77034294576582, 539.3574030846596 -2.8599422606511844 M328.8689375323816 242.80076842680327 C399.0334523833831 160.89099503311135, 466.9397894839582 82.98500210493796, 541.3656660314832 -1.5767849388026012 M343.6277077620456 243.19549063431896 C387.3394613053708 193.0125197656074, 431.87912033365143 144.18032688759052, 554.0824101005485 1.752095806216123 M341.49037215913773 242.99682026957086 C420.0797196254917 150.44430013389226, 500.0007819433149 56.37228792297568, 551.1366195292354 -0.07093364359361887 M351.19723313262193 242.72586622149885 C397.7086691727468 189.1541705483595, 444.7549442172879 140.7832087270423, 561.0990487947576 -1.2137843271118247 M351.46660639204623 240.66716309212367 C397.4698672003436 187.82261279511468, 444.3805580384213 135.65953185447643, 563.105318742515 -1.167081727974423 M363.2280237315185 244.57032765848334 C433.8320713853375 159.85323796498605, 506.32393864057514 74.09148938951246, 573.095386198537 2.2667164081149145 M362.105573165482 241.77668011008657 C440.62634525509816 152.5496670763369, 517.1102329471976 61.94314857399672, 571.9247045056969 0.8077901236799285 M375.2623566891337 240.0981243973101 C422.91375963696896 175.79353552713107, 480.1793957271196 115.1605310013296, 582.7970322935739 -2.1707275867225246 M372.79561419425517 242.02628211684316 C421.73546243818595 186.49108868637808, 473.003665442833 130.12772076967423, 583.6476530747248 1.4085513454858716 M384.4632180369903 243.23500168333115 C428.6293954886752 190.15689437701116, 472.3889742576383 137.93559658945998, 590.8973577183195 1.0089732100559763 M384.5066424751484 242.301888010931 C453.4260380196777 161.95962783485564, 521.0716571435305 83.70185870570161, 593.113517687901 1.2858088732330866 M392.6257040385182 239.94833633496802 C462.6988281340231 166.49779295583264, 527.9947328031758 88.59698627183093, 605.1231113411702 0.07536872645417186 M394.1044541270819 241.77685339347556 C438.5258695510477 193.62466748593474, 480.2762082128117 145.75980815085325, 605.0909980288071 1.0405956460287675 M403.5382348358073 244.03888717106838 C473.4684945047005 161.27347375660025, 543.7329464768235 83.15403230829014, 612.2285791635904 -2.3974523280551687 M405.4626570516672 242.19774094489674 C481.4766385036158 152.86484757827807, 555.8414398201802 66.15425505076624, 614.4280716943667 -0.3229392260195494 M414.7606980553223 240.97551927610488 C465.2763477919439 186.87873339548943, 511.8161403064733 132.94839075952453, 625.1125721714203 -0.14421647837450263 M415.37598703332793 240.97192058780197 C492.9698713453471 155.121595893632, 571.2692650297261 66.48175229795295, 624.9053834143164 -0.3528066406170568 M426.1989343079031 243.71685450017526 C504.70117615251655 148.34190484678157, 583.6570597382081 56.95668574818394, 635.3962718348745 -0.18244698378105995 M424.67214098930054 241.0544762369863 C494.4053224468412 162.8608989246514, 563.8197356795387 84.87413693224998, 635.1495903012047 -0.06126275328121872 M437.47989468876443 242.1393059590021 C484.41265996158165 193.03910373975262, 527.292836843446 143.12574685601683, 644.3963716085428 -0.588797337927298 M435.32445021963366 241.23628854943195 C480.2936011126321 189.2727628389235, 526.467052977114 136.04418991429725, 646.9453631003933 0.36243377265777293 M445.3267982774964 242.059736533933 C514.5383569656805 169.97574325103423, 579.3054138232545 94.6469906998456, 654.9005704313903 -1.8733687688404475 M447.5645536571889 240.43127767430894 C489.4355597825256 191.31973535475865, 532.1734125417624 144.3717791394969, 656.7483954400557 0.2396005160574538 M457.73328163806354 242.66181337194075 C526.2755917932577 163.17673815305832, 590.8554220515783 90.57192461728827, 668.5427302267567 -1.5550357389229081 M456.99507111763995 241.96364600297474 C521.9290521321294 167.0426834245943, 586.4263817800306 92.5535136623583, 666.7972370811783 -0.11045795203731118 M468.93990031880594 241.9206823856229 C512.3172982206983 194.5706482434471, 555.1106872710415 146.49615331679195, 677.5783694023569 0.06390055504791926 M468.5012685494731 241.05612891897417 C537.096517777257 163.6807665938261, 605.48471372039 83.16215646201188, 679.4261351675601 -0.6828713183941568 M479.20870040527086 242.03001742976144 C563.6141463897046 145.7465803895736, 642.1788532557292 55.21916949589077, 688.952073032339 1.2307166803231295 M479.3660752933003 240.31079109712118 C560.5492256568859 147.08963732331435, 640.4131654972674 55.59255332645703, 687.2639745764319 1.2080939893251998 M492.30241752423683 243.70640433485795 C540.8892879275589 184.60591020361022, 586.3362237012979 130.8575028535142, 688.4207614161206 15.907385591321335 M490.4042100543756 242.88287626132637 C566.8492358329607 157.59100599258102, 640.2133355019351 71.63843604355641, 687.4939530040906 12.831682089561358 M501.1951000442771 239.86436409356764 C559.9035088694542 180.85081437007327, 617.4204596801274 114.47463493877875, 689.6045517978513 23.364853509057767 M500.1274001531951 242.50402567294364 C551.867014811836 181.0523117423944, 607.5360765101844 120.5472190605791, 688.6861395960557 26.13406383564707 M508.2988872244391 239.06760939434685 C564.6314934655843 183.82813234144024, 618.3237676935751 118.89599388896343, 687.2102888819566 40.153766529147845 M510.5673809104595 242.07658648469774 C570.1552331198275 172.445100827347, 631.0013290364067 100.09554741118647, 686.0775349053257 38.49466938087741 M524.2230890355506 242.25921085212065 C574.0311102270882 175.26816823623005, 629.4528245030741 111.20545004880061, 690.1023416934639 52.65551659645185 M521.3305648270529 240.9280832586323 C566.175054268315 191.2320558951357, 608.9422590201007 140.94280776368115, 688.8787485375334 49.544091469472974 M532.3687138480384 241.02914534733634 C565.8032092548749 202.100989075526, 599.3163499759914 165.1356303333878, 689.5433151210938 63.305018709889204 M532.3864612045058 242.64334139018857 C565.8730033202544 204.93182318440225, 597.9367139748937 170.8801727448871, 688.1413798396338 61.60998495743829 M543.405493645545 243.60276329088276 C592.2102177338116 185.9055468966523, 641.3549899260711 128.24896513394393, 690.5032381688012 76.01617558503617 M544.0314453771691 240.28495731650042 C575.1684230214297 205.84216868819723, 607.8557755660682 169.15469646323723, 687.6555215233217 75.10908564206346 M553.0222359078216 242.43940652109893 C590.2426536046142 201.76666181331012, 619.570450237931 158.66846720533337, 688.4436188557859 89.872572420785 M552.6062205444005 242.31708361835734 C582.4983876599491 205.31033893509678, 611.7534297004905 168.73666877541098, 687.387200772521 87.41974234637169 M560.5608877682439 245.36380225936955 C592.382419185421 205.96316691871027, 622.4794839197857 176.12442553921892, 685.5917824772013 98.84377993611758 M563.5327618600181 240.69808629299587 C595.6105048733555 200.89369762493004, 629.5156843446773 160.43173563352545, 685.5756219629956 98.75959871305292 M570.411505500304 243.4309574293527 C609.3656704364768 206.99150574987152, 636.8591308912819 168.0204406168705, 684.1978742634797 110.4805739731612 M573.1373407975607 242.22659130791158 C606.1182966196122 208.2523139115484, 635.7728617418048 172.97853207386083, 689.5438025487506 111.7848322861912 M582.7400666527741 238.30495921798823 C617.927830647502 198.94149031014632, 648.6066842868082 163.5273908957117, 685.7196536107931 121.27162673823216 M586.0038635522418 241.0450934236574 C610.5572590387511 217.22468460020434, 636.1906251142535 188.81405510880435, 687.1546642563317 122.67049753047206 M597.0370497412796 242.87423535965112 C619.065161430551 216.4569046707544, 637.052499966147 196.89310995270603, 689.8116615347669 135.56630346570552 M594.5023252412493 241.1878943980458 C620.9998142919341 213.02722683647673, 647.4725104609554 180.03040288251566, 689.6336709529266 135.78292745370806 M608.3944957814451 241.05065108871634 C631.9950246056165 210.41546072654359, 652.8753398759678 186.19763487883438, 689.9800015510257 150.4874068899561 M606.6394397317704 242.74007723888928 C631.29673402684 215.53014860625575, 656.0384689075746 186.99716533088005, 686.7180052557226 146.6642363137115 M619.7560082888958 243.51950913955886 C637.529105447102 218.99894224948335, 656.1097660977559 194.83581870100824, 685.1762806462042 156.4358868255819 M617.9336396409926 239.9625062040003 C643.0383757700802 206.7186745914757, 672.2596795485828 174.29025278598434, 685.8755095029168 160.9120291985179 M630.1667532792567 239.48954974655382 C646.4056796867247 223.8546919541364, 662.3912225237976 201.23858789888786, 686.6718453939084 173.82200184651228 M627.2900763361035 243.4168268011915 C645.9799466934126 221.54705323615582, 667.4101120155449 197.36109633187252, 686.8039218696777 173.28556370549413 M639.0234592681527 244.44295064407603 C651.6955822736311 228.93374525333428, 659.3878587439134 215.90638493076196, 686.3714277807727 185.34357676734496 M636.8756199342906 242.09046578827517 C649.7650689310022 227.2587109269767, 663.6144108154292 209.67443759358207, 689.3695221942022 186.35900742267538 M650.3244172712089 243.88532706650062 C656.6276846011768 236.3732083034733, 666.8906426453144 218.97238181738214, 687.6873813224222 196.71716432245498 M647.9938593027414 241.52163117306395 C659.566216530198 233.48358592456395, 665.5588772095991 224.54366718721107, 688.1063680936779 197.6275996078742 M660.9194808040502 241.09573174820258 C667.8400779120642 229.6507189471889, 679.0198962712036 222.46824920660052, 685.1336220344817 205.1827547462174 M660.9601020586433 241.92431221337034 C667.9006296903574 231.77564359676666, 675.9761366751108 224.0420276366378, 687.4352359352922 210.38736076890316 M672.7600658823017 240.87665492355686 C675.8562612628251 238.10912168069746, 678.9713960905659 236.23759593752342, 683.919569403586 224.00848535322987 M670.9763745691839 240.31327941700678 C674.9776630449991 236.77720032932663, 681.332687275596 228.42963432941207, 688.8825618072423 220.6148022437974 M680.7960227653122 241.44996561608022 C683.0712739480724 237.5309622693538, 684.8079705732175 235.14347409960854, 689.3648922737791 232.16893103374343 M680.1675217767914 241.07874873424626 C683.6774413934274 237.77844682017215, 685.2522221057026 235.48806179269496, 688.6803045960246 232.63713814811956 M-0.34276415401325266 239.7020396667175 C-0.34276415401325266 239.7020396667175, -0.34276415401325266 239.7020396667175, -0.34276415401325266 239.7020396667175 M-0.34276415401325266 239.7020396667175 C-0.34276415401325266 239.7020396667175, -0.34276415401325266 239.7020396667175, -0.34276415401325266 239.7020396667175 M11.95805865430668 239.978157184824 C9.135123155671689 235.37268676724997, 3.989086097267537 234.38450390640307, -3.30887181612032 231.98891357920382 M11.090096033340542 240.75448052845115 C9.203437377015662 239.3318014219347, 5.685798254412348 234.61434735015231, 0.9982022138096216 228.7594123271412 M28.399600698632923 239.64260386906716 C15.078120599700014 234.33590199657084, 11.226432782404855 228.35571808464042, -1.3780415889395101 216.83455340229315 M23.85641698820683 239.6217178911731 C16.771855786533383 232.37868415761434, 8.326600118100611 227.05014829157162, -0.28622065974005295 220.12262678929014 M33.204489847523476 240.03513497707587 C29.253231218600067 235.2181703439289, 19.57644312288886 220.47171340386745, -1.3379817367969054 205.03350766119988 M36.849158638966585 239.84236672741514 C26.038722864062397 233.10614336096214, 19.25320877314028 224.20789604937931, 1.169692335140894 208.9686341707173 M52.096209135574185 241.80531348498695 C36.86598891659803 233.39914784598523, 25.36618970803773 217.419361724006, 0.27352739513085567 200.66064642938392 M47.72518199749001 239.9543310238623 C35.42656108592855 225.94266179336105, 16.908148227124688 211.71280657767232, 0.49118684247301303 199.29982908266203 M57.737112078410064 237.41969212717538 C39.777775093524 223.13163932582458, 20.309807384494327 207.7301575510889, -0.21709817753121285 188.14345994122033 M60.393544680964624 238.07785003832703 C50.03400323614494 227.79445925889704, 37.13409661020276 218.41539891200094, 0.692789229443818 185.31848203293686 M70.64582427187885 243.52432016700664 C52.816284188821896 219.15228569023648, 26.45809619996475 200.54872404043158, -1.1318799391581393 173.18287593108406 M73.40473263680066 238.79000330761232 C51.91685947648827 220.24721181410803, 32.10407627742919 204.18455751032647, 1.5507446132407807 178.15264477935423 M88.42840507116003 242.07050728087478 C59.98291240528795 218.45361425672888, 44.03354841908928 201.35541081414726, 0.8087231258750904 166.50325963335015 M84.8068218217401 240.62547453154974 C67.1463464174685 221.42333676679914, 48.2367161765593 205.35989657776923, -0.5219831389485847 163.98115032972672 M94.55660507210136 240.0011777321452 C67.37343830762505 215.62760376913783, 36.72676563430135 190.06792259761085, -1.2641854668065236 151.60241378239357 M96.54873568319321 238.13790574694218 C60.8801161052633 208.31400313281546, 24.20084775370252 175.65950146122748, -0.6007114099367783 154.15861294186675 M107.59902779032787 242.376634255193 C72.33148016734644 207.5018234110566, 27.698912112737176 169.53978742984785, 3.882060298422033 148.50157861258936 M111.33640683834751 241.40066121160223 C76.66231580128962 214.07321850808788, 46.09381292819198 187.15973378150278, -1.3740388325362858 143.3404281235869 M122.22583924146448 236.78061708439316 C74.53587456079308 193.85956233364402, 26.542888316946176 155.73933693760014, 1.8316889371857314 133.4954318583125 M121.26248665439044 238.78788643334235 C75.90332834149106 198.16217379413968, 33.4721417751731 159.57119409235634, -1.2688452895596356 135.6077726326996 M138.2134775213591 241.72636298311113 C96.34408074212885 210.27018327202643, 58.211935001563404 171.08876631049404, -3.229508534890414 126.90208875393792 M132.43605482873238 239.75556719896554 C104.09199473858504 212.55098593210982, 74.67424853902595 188.92310332795546, 1.4247080861806865 122.59260447701736 M145.67581448519104 239.78236912774096 C88.14467645310197 190.91811641735893, 36.14705282299323 146.41741509966735, -0.26417860218139566 112.81310203384072 M145.83878106811517 238.34229345830332 C98.49081268540439 205.81839134343144, 55.85259381090738 162.9678534712313, 0.4281789118721875 113.60266291435272 M157.91360955205704 237.5715548282439 C98.30389942416134 195.93907989450685, 42.411930462581125 145.22702700299354, 0.7612104871948627 102.76451479844349 M157.81270892570294 239.31331608848495 C109.35886080377799 197.93116005114734, 55.31796785301113 152.9591131370308, 1.1880670550529402 101.79553387570662 M172.03216619157595 237.68755165905122 C121.82669875828354 194.31128725854913, 70.18747826707161 151.65324621669146, -2.0204552545876675 88.4056222968068 M168.78045356065473 241.0411236620258 C128.4393344590019 200.86467307646717, 86.9837441676326 164.96654180497487, 1.325918378563412 90.27028733257568 M183.7056432104589 240.3228863701625 C144.03300503932672 205.8026695742344, 100.72584322135823 164.64440196986178, -0.691911692201504 78.36092172254439 M183.1588707864422 240.0663266594283 C133.8717975300767 199.798224113908, 84.28914987558424 157.07770724545566, -1.6243768491803956 81.50147159445879 M197.54604591115174 237.44018701981753 C127.40998871712125 178.08381372198681, 56.02474280770675 121.79687329422508, -1.2990167706964275 69.57557317697724 M196.38812202414522 239.54811572817533 C135.97390887391424 192.54542186071902, 82.84903635921792 144.83452498892873, -0.5227377572592011 69.81622760533351 M207.55450911394206 242.474958725685 C158.42302428863675 198.50622108873608, 109.96944737363867 154.9234030818191, 0.2530010295674865 61.29872759960422 M205.8229806859536 241.2835392949882 C159.0827909215473 197.5950487973668, 109.7102478507327 153.9236506955994, 1.0605086439302776 59.8095805058973 M218.14822814061856 242.328011637891 C139.4872769637148 167.66819329485892, 55.70017698139151 96.91524572479953, 1.798347757526106 48.593142773198615 M220.52430218135123 239.10977584474023 C134.7181487249833 169.2707189481451, 52.399865197380734 94.4230893089455, -0.5456787192891144 48.311682025679545 M231.32429591046827 239.71313106449216 C175.33274858287461 196.80853965843707, 118.83921736849729 144.5463995898213, -1.0046459690959624 40.21794208237955 M230.52934231983508 239.7138040105125 C138.5714149489768 156.6895322845027, 45.67998374818493 76.1097702843053, -0.46326592413906076 38.75238979698004 M245.77681219827932 240.47112349891154 C193.23411716825765 195.94711778495045, 136.74251535038994 146.9179857040121, -0.14661036278893141 28.257162412223167 M244.7950591769726 240.8569568019965 C166.09363820012223 169.19952093121879, 84.92903540268173 99.76000673029057, -0.732038306669175 27.597891368984378 M257.45358790491116 239.552793737609 C197.77189082188414 187.5355938223683, 139.8950264179164 140.48869251415934, -1.401214655885056 17.652717052235158 M255.48114104794044 239.8575769032649 C197.7803220780161 190.85158134330956, 142.83777696859877 140.5324066014616, -1.1784308559470404 17.703419860188106 M266.94583430460943 241.80797538480255 C177.83901536185203 159.99248876936574, 93.60215780679246 85.22434699975548, 1.4321481097102242 8.29831218511824 M268.1389447434688 241.21378236669153 C178.00659660727104 164.1083715965222, 88.55514827319226 85.61097073817972, 0.11822181152313987 5.683905196362533 M278.6496254760498 238.024657793012 C204.87855423462472 176.06795362403295, 127.15477223742741 114.01785961736944, -0.38402369804184966 -2.227151245511482 M279.30386945025424 239.5210918146202 C189.24141331490438 157.594998336245, 95.45552202536739 76.08084584604092, 1.2788097533926432 -1.326353051096747 M293.78798375199875 241.20194593756096 C193.8667812854956 155.34209909790684, 99.49886108668267 71.40065436696909, 16.2633519561786 -1.113993358140262 M292.9608230773163 239.68826314100278 C214.62723410856063 169.99676212513577, 135.75985200359335 103.0796064721264, 14.97611142608462 -2.352360724640902 M304.627755046278 241.6910468007973 C211.5467114079097 154.61216907038641, 109.02073935317911 71.23087791924678, 25.95770691306053 -0.4221550983955731 M306.09298019214 241.0229907035142 C222.91317899821323 167.2446262654808, 139.00247097308073 94.55988503364705, 25.509995655791247 -3.1310627440817 M318.49330709979324 239.40210304700682 C212.11920102857562 150.72893965856613, 114.463266824092 63.018434980678926, 40.093900805828596 -2.7749353833623926 M317.9896048987482 241.09777080090794 C240.41841459502936 172.760889682707, 160.65175665476627 102.31087706577983, 39.04804525362005 -3.0778064419330393 M330.3610608632911 237.59666346103816 C228.98858928482116 152.18741131978854, 120.32530343919716 61.521275001850796, 52.099305392910374 -2.88936094682125 M329.7332517019578 240.94153274137744 C263.485444499798 182.21265743039262, 203.74645823600906 130.36444843280486, 50.929628267303244 -2.60595512873403 M342.2378196445135 240.14621365968867 C269.4292037378153 179.29980025666802, 199.44051092639424 115.93390112439779, 64.37470484615427 -3.525185999098471 M341.12759202794564 238.80225911414672 C259.97871170764154 171.61824222077018, 180.7059591329119 102.04531732997447, 62.470282442046006 -2.841851509016469 M351.71218215439796 242.12243810702088 C250.386386423099 158.96851533907923, 153.35070848384822 69.64381271695098, 73.06442322649775 -3.452029826131543 M353.83600218374306 239.52667782468467 C256.8129776815464 156.51977435093912, 159.4869330269551 72.30878313450286, 75.39859380987957 -1.9794730023115967 M365.23048234452966 240.1952818602523 C285.96170986705397 168.8123768655877, 200.04568066347537 96.4065496694963, 86.2793026571892 -1.8902251066438298 M367.1125452271596 239.22304129144854 C285.86858447504494 170.2916714175874, 206.91604528303776 102.24604646534931, 87.584327385719 -3.2029062452205532 M377.9079043341261 239.7452834829706 C266.14802134771844 144.01558146008844, 155.7855302595961 51.00888695066655, 97.79274734245635 -2.9481542692247698 M377.19178001811446 241.24816288493156 C307.40332627166475 174.01299971344628, 232.8129818304429 110.57886277357466, 98.67106225816697 -2.8341636020744394 M390.60229419562194 238.86307756072264 C331.57280930784907 188.81378802231836, 274.4915996314044 138.96036166727927, 111.39839876972367 -3.5771300361504244 M389.1335631555281 239.2284875915876 C307.11149874432283 164.88608122267584, 224.9224494208128 92.34413117334587, 111.90848064746051 -1.5155458015951562 M404.55146652952993 240.40658944340638 C307.1240027024019 159.93863482182905, 208.8106790389379 77.60177904150393, 123.31730046784061 -4.613539221581938 M401.3868166008764 240.4519890078872 C322.11446462106693 170.94269587981216, 239.999547997413 99.61549447304428, 123.78237000796986 -1.4531468422535685 M414.8757111967874 237.66510444508427 C335.44079621415045 174.417866206454, 261.8436108513983 112.26930148789214, 136.65431084774465 -3.6725474614568188 M413.87357548619036 240.6481094142991 C353.3804788991624 188.17925783897516, 295.48104178804425 137.15583830035442, 135.7484015967263 -2.770668968580933 M428.7920135180406 239.5937475661764 C338.54430499004275 167.6406774493172, 253.95201706728793 91.69778758436493, 149.93440007979996 -4.53205310758313 M426.1983364303845 240.79224131554773 C341.54059175910555 162.70526716866024, 252.5707853837224 85.24671146686921, 147.49297609708444 -1.5440187679582267 M440.5140657053242 238.34758974066293 C380.49481246330424 188.37215396002495, 317.8244719565353 134.16982678023285, 160.51280402688684 -1.8204853692961316 M439.48568811006373 240.85585052332533 C347.81603311605784 157.34617954335542, 257.13074483069073 76.25365251724423, 160.07852329232813 -2.657964052376972 M453.20200723825553 237.81365488369818 C351.4397341153208 149.7804949099804, 252.59553205402386 62.774079950677, 174.02098521777722 -3.524482888126076 M450.9637741574627 240.09684233288664 C358.17686657438634 157.78701002609114, 266.856643987621 79.34413971759274, 172.8579051580133 -1.355929352898658 M463.7775244482865 240.92072370197758 C361.8921190060457 154.09287232148435, 257.76905241757134 67.59557976740173, 186.8466766342047 -2.531961105149394 M463.2088174229525 240.70902380443522 C401.9588565404332 191.60081023365717, 344.3673032560633 138.60819786463986, 185.44172153007048 -2.696650367214304 M476.1762959463546 240.25768075956367 C409.58481662615804 183.26586107171156, 340.60649681928356 121.21129941650031, 195.60757663710677 -4.114190406303571 M474.94251106356444 239.89267879343993 C395.4590968232938 170.8901675657823, 319.07299734275017 102.01882026514512, 197.080588890531 -3.091705364855145 M489.8911984696431 238.36341552355006 C419.97732142852175 179.61300611839866, 349.8292549784289 119.183741684343, 210.42758491184978 -0.7032920743580171 M489.1235452058674 239.24804780535274 C418.8161572661092 178.78262227957913, 347.62227977054823 116.9102194671738, 209.8120271548778 -3.170066868691214 M499.6056049805749 239.97582252789624 C435.6164492614072 190.5732032079909, 374.30309617499074 137.77730767909821, 223.71671177630756 -1.0446631257639778 M499.9729769035022 240.97785014968295 C427.18806931278203 179.93526547627482, 356.3398383164608 116.97319492542884, 221.7315845100098 -0.8714913842468868 M512.1930573083794 241.02657738777722 C454.71594295944504 185.40562905525388, 394.6399092494474 134.97760120892187, 234.4684660042585 -3.3456286949357192 M512.2359358616677 240.7997127738683 C429.3755662014701 171.84920747332052, 350.5039357215174 103.81057660258318, 233.76303337786783 -2.6302923990508 M526.5898766679709 240.64933644321482 C452.2661670540665 174.74976511101067, 378.4249484022825 111.70395154333659, 245.56614216243403 -1.3387003919883338 M523.2747666730804 238.97356988738466 C442.7903951905905 163.6974601723343, 356.4671143024855 89.33237251578002, 246.71616161225415 -3.3054605253049223 M537.153157620287 241.70713870827163 C472.40511984065137 185.14667458479767, 414.2668261013424 130.50717285172996, 258.42397616177163 -1.922976552859294 M536.0980981197714 239.8123957207009 C432.40559189559366 145.50514463381532, 325.1194145763778 53.2259094640297, 258.1775301202 -2.3202972575404757 M546.946297617794 241.3931210717288 C472.3641415117952 175.6092584522475, 400.2508928572485 108.1723712595356, 271.4231878999207 -4.866313745737991 M550.1455400748484 241.2809015482172 C441.6197909967283 151.5662723260665, 337.03947405811556 60.08833719407557, 270.6077557912768 -1.6965100960034722 M562.373252877066 238.35943280248307 C503.55932101834435 182.52396447636917, 440.752869614811 131.9490033639498, 283.31633405790603 -2.3362165308158085 M560.6796008523362 241.11822067259817 C491.0430402477849 180.00542814467272, 417.442865958745 115.99439060045496, 282.13729039011827 -1.600694714090435 M570.7135114731809 241.41496688077225 C513.5982372942054 190.3195573518238, 449.9593313070099 136.30789715416057, 292.79231454635493 -1.3990031987668465 M573.0994117470497 239.5876819981263 C461.14870822641353 143.78026912384985, 350.43337265666173 47.801810141107055, 295.8141692109303 -1.6756446814578245 M584.1907954057705 242.04549072493063 C475.5500172864407 142.8312298222781, 366.7637080538153 49.03282074496761, 305.67620601971606 -0.5176643742862725 M585.0355720551664 240.66686491532923 C509.2649900998385 174.94269581507024, 431.98244530584384 105.80360493801798, 306.76483198342703 -3.1886308829316876 M598.8673127857722 239.63136099902056 C537.2347127489026 187.10006283129619, 476.7512251073047 136.38986208095258, 319.6773659389267 -2.190849543311529 M596.9052277837178 239.16503002967568 C537.0917807469759 189.82388428582806, 478.1387585253141 136.8601795291905, 318.87220083963945 -2.932829238043218 M607.9186983965755 241.9474867844431 C518.9835689998146 161.49905638576197, 430.1815588261634 81.71575782850057, 332.71722530621986 -2.5650691261175855 M610.1190204257556 240.00842133930703 C544.5601972268265 185.67779466912629, 478.6495637680301 128.607443993754, 330.61683685564674 -3.6179347406664846 M620.9998426619848 237.67591857223593 C548.3288111167766 176.12562805061634, 472.5171215866744 110.82139979904659, 341.3918912888697 -0.826907526639109 M621.5134059354721 239.6144914756648 C563.3288394757368 187.53351481245704, 504.22998264074266 136.309853501098, 343.1718545365597 -2.023064683313852 M631.8869457498478 239.7122818204958 C523.5158687719604 144.66669664172878, 415.8706369598383 48.0119300052493, 355.3669324112542 -1.9795422918069725 M635.2178800175145 241.0415067642544 C534.1726292659107 151.7092431667804, 431.29637073760546 62.266400604468984, 354.8375128861071 -2.6420870665259963 M647.7077466288729 237.91604065493738 C561.4828370518187 166.1852636117991, 471.13521408705395 89.80262707581055, 369.9623197232383 -3.170692494230667 M647.1963223981166 240.30563142186264 C551.2112869368209 155.53055835187837, 456.6568623985915 73.33767260948656, 367.9614722974954 -2.5716029315008075 M657.7281509599976 239.15942458962306 C602.9822934406563 195.0834304316491, 549.1291557886859 145.30509927697344, 380.5736730357595 -1.4165603698477207 M658.2885347093096 240.71995722895812 C562.2804529345085 153.09278210075888, 466.65784596477545 68.33967311017902, 380.8983193277557 -2.698509822769564 M671.3519117556942 238.16145396979834 C571.4553290902262 152.4292847611019, 473.2243487933016 65.66077199478372, 391.00817140857913 -2.9917729855163735 M669.9444502642037 240.0255102316008 C600.7106305530972 179.04807974467596, 527.7363093613341 115.49264743530439, 391.16125056454024 -3.2579475856392794 M683.1108365525188 239.4122728949673 C581.494461837965 152.86471681655036, 477.9813553819504 62.33008797080323, 406.96481683638615 -3.1495614054214225 M683.5874104568159 238.9703688174765 C594.7950451682315 163.53345163271456, 510.0757313977959 89.80468910377648, 403.5113836782404 -1.8737622583234297 M689.3586269199828 236.6573250908793 C595.438509111265 154.73019494681927, 502.8269618831606 72.48782841388294, 415.8646075040105 -3.756517096884338 M689.9200603491595 234.53832727714078 C586.2140797455835 140.52340715316288, 479.5412062706374 49.488513522607306, 416.9922388558078 -2.2707040901794016 M692.1810823848396 222.64000147900677 C610.232009619519 156.01347791579013, 531.5235264978435 85.70743803896548, 428.6801040640421 -4.560583598682278 M689.6785216094694 224.070704781638 C588.7222417706806 139.77951019249844, 484.3534602508073 49.8235885773514, 429.37037253092524 -1.5711066845347013 M691.8797016872819 214.2145139543534 C606.2934420154893 138.77543433348634, 522.554525002767 67.32899696338364, 439.74651929095603 -0.4631306238078856 M688.9302370858499 213.6462982279748 C619.2124519021405 151.89150071434798, 550.982391991719 89.81717381676633, 441.39303816058975 -1.6435745349019921 M689.8354838061474 202.84130919679595 C634.4552101823585 155.85090344924447, 573.8234617380059 102.40915942572764, 450.9580144033831 -2.1447271494427813 M689.074506694747 203.8286367914633 C637.0194891491864 162.5890680653682, 587.5103026674437 119.01315028240059, 453.26160277258396 -1.4003110581121458 M688.3185964259764 191.69058843742056 C627.1177830287717 132.03382771878267, 560.2219174041779 77.22065795926105, 467.40737659449456 -0.8180261997048015 M691.0102871123894 194.29002268231795 C635.4821667569465 144.5188700502865, 582.1195754996489 98.92672757358507, 464.2255218189573 -3.269275357841229 M687.7544803421888 179.49421301403459 C643.0330030181367 144.82568686182438, 594.7760436353552 105.1922895767754, 475.4891838135326 -3.045542203332967 M688.7715502063759 182.19530398884496 C646.4684687440135 143.10664850715924, 603.9901315005927 104.40429554016536, 477.27633714543475 -1.797048354251582 M689.6813316380369 172.1439127816673 C641.278639283237 125.27842435477962, 587.5758872035923 77.00727131301585, 490.1008232015617 -5.222777638110396 M690.3879807018776 172.96125743548274 C633.0121465042224 123.09608043223598, 578.2121530020593 71.4385649395543, 489.92448313578086 -2.540300943998394 M688.0798156904217 164.73398902847325 C633.4327694107996 115.04293297352955, 578.476773016515 64.04815853679867, 498.69529430121975 -4.207885030564947 M691.5758176604934 161.19571836001785 C640.0857723635395 122.82474810514643, 591.0296162083719 78.0448621988662, 500.55358179364583 -1.8908981314966293 M688.8156690756206 150.2799054453464 C649.748249599854 110.13823293570408, 608.6459718059318 79.40700709856323, 514.8553184228238 -3.8188539770054595 M690.590672031458 151.53014667271 C650.5472353628697 120.43614479108989, 612.7880122268087 89.67147208127281, 516.0202327764856 -3.275029164257087 M692.4051536473872 137.42289907871086 C644.665950098322 95.9364100097422, 595.1828387029923 51.49229731279049, 527.5338530017128 -4.955701009429983 M690.0019822637806 142.03497380506093 C639.9468611927057 97.0465487049313, 595.9923240626126 59.34279668497906, 525.3932752422758 -1.7956835951950003 M693.4493631192973 128.28827713571124 C644.725380345336 91.98422353272007, 602.2251115520713 51.74985589801281, 541.5864931013509 -1.089551171636641 M690.3135055045522 129.25501336902659 C641.3453162703131 85.37660514299337, 590.2248120405104 44.505036640073826, 537.7821400132433 -1.873185612340522 M692.1394698058506 117.74536083079408 C647.7894489262368 86.21488813677888, 607.0198365186147 41.556073592938844, 551.3939015147018 -2.5153588889103844 M690.3753533733328 118.08104676566552 C654.3027075076599 88.77897419386818, 619.8785988974593 57.45877787759079, 548.5878564332354 -1.1174863552611782 M690.8480858713722 107.82129110288435 C660.8621152958585 81.28459614600222, 631.0752221328963 56.18173957593121, 558.8873206318542 -0.09272981947583503 M690.7679233201181 110.29477951940709 C655.8731179131214 74.10092379073942, 615.7629785506024 41.27332220526712, 561.6565601506456 -2.1319182380132133 M692.2104266073038 99.84078674362706 C669.7654589999595 78.54350514527778, 642.1477856569924 54.07521448843751, 573.3519181402644 -1.8480642430234298 M690.053296459042 97.01139999897885 C650.6844916644579 62.66999948089135, 607.379377902179 26.176368819362025, 574.1910139451047 -1.8544687956321582 M693.8419705292706 86.56727548739701 C653.2428084709265 56.933314266400565, 617.1818775802167 21.955702322446754, 587.057815895112 -4.86911498315925 M688.5389679072921 85.32770996219307 C657.9776424905634 58.538413510392076, 629.1241303777695 29.924083446655203, 585.8447625233547 -0.16842307828659386 M692.9597586528976 75.78762256856936 C661.5455476710276 54.24450065384416, 638.1150278392212 33.437422823696195, 600.3908269922447 0.49797972348227404 M688.1691515320558 76.39129241686243 C666.4003095308016 58.99418140694082, 642.2868731798263 35.68433101341016, 599.0471980828058 -1.8131077991734514 M690.6323944938098 66.06213072151905 C664.8580090372795 45.23053698865466, 642.8010906828564 24.661089080539107, 615.0836174472876 -4.225539888723858 M688.3997799505208 67.52551162079936 C664.9566422199509 43.47193829063593, 640.1281264098582 22.091738614780674, 611.8597219906457 -0.8831274504802309 M688.030044067632 54.474540180621034 C673.084759995188 46.14641405606025, 663.0880605913566 30.52370022055568, 623.2204157758656 -1.2449960854025903 M690.0735045298744 54.35451308181632 C672.7511885896757 42.05929620116092, 659.6232355098917 27.401174257191663, 622.6054543640616 -2.0473052743943754 M690.6744358899896 44.382028680250414 C671.434027415515 30.75486236720542, 651.6170379288504 13.07416961576299, 636.2417225738266 -0.08621460318852314 M691.2946953873043 44.928223557725914 C668.808424604048 26.468139853303494, 650.8602363231789 8.980997280447575, 634.4989436504641 -1.7676242341129864 M688.6888609765072 37.16521145478208 C681.4286573817839 19.86919144632955, 661.0158003106446 8.927859366375863, 646.17547219635 -0.46976076568762437 M691.3044413899977 33.84735105634053 C679.7326128033969 26.206239254173955, 669.7754399045602 19.8713122953804, 648.502328306595 -0.7984631298045315 M693.0481728428099 23.978141238591206 C678.3475580770772 14.21355118438313, 666.0652403593459 3.305543248955118, 658.4152902392834 -4.624585309534325 M690.3555501551423 24.388384835472834 C677.7798079536957 15.465247014931151, 668.0941626220975 6.720588816231729, 659.7285942798644 -2.1252424246659416 M691.8287875045228 9.498308266052618 C685.529031569181 12.160675853486222, 681.051418524313 1.5328616647936855, 668.9516552182522 -4.162260500353682 M689.5875480499255 14.628595402935161 C684.8467862405229 5.81008035200324, 676.7039279548754 3.299914237698781, 674.2977366874602 -3.4636603608847736" stroke="#228be633" stroke-width="1" fill="none"></path><path d="M-1.0950977414846421 -0.6630792051553727 C185.91295422203842 2.9715742156207563, 373.04130953028806 1.1182002112567424, 686.4062123209238 -1.3250566869974136 M686.546099393009 1.7549359356179088 C688.6166379643986 66.82198640558813, 683.86694248441 134.4804730947814, 688.1193753666174 241.54838599122237 M686.9815686136484 238.89854942262173 C515.3959870170802 237.85107730773092, 345.8995564214885 237.82802862074973, -1.3172281354665758 240.08067289292813 M0.06815785062243045 236.83810339533994 C-0.28354498877024975 171.04225824044943, 2.3691364750125374 101.692450497653, -1.456473422579989 -1.4054453586411626" stroke="transparent" stroke-width="2.5" fill="none" stroke-dasharray="3 6"></path></g><g><g transform="translate(13.354072398190283 223.36538461538487) rotate(0 344.34728025787854 5.529902564218389)" fill-rule="evenodd"><path d="M3.833906389772892 2.4953407272696495 L256.5922460332512 -15.845575081041261 L362.86064767436335 6.016196887653564 L522.6091946965225 -10.947419538520876 L664.9576099062194 -17.366063031439637 L689.0791016868673 5.471372929330016 L686.9503639988027 25.02058621037463 L-3.8984236207146523 25.654942947511472 L1.9048654809594154 -2.238368608057499" stroke="none" stroke-width="0" fill="#82c91e" fill-rule="evenodd"></path><path d="M-0.253737017505061 0.9307540091773645 C89.73338322654106 -7.39406204773556, 181.24250800722132 -9.983889366245032, 258.1880966629573 -15.318988269312776 M-0.6701717275931072 -1.0620463944542655 C58.710955027346365 -5.849239012387353, 116.95925416574114 -9.343864995482221, 260.29753216023965 -15.949966019536912 M260.4249111637472 -17.26706090741436 C286.8396122779123 -9.574599129563378, 314.5788290665126 -7.423176547569762, 362.5436631848032 0.8579013307506784 M258.84124063327897 -14.627237139126464 C292.6408541683107 -8.054261240162568, 325.68795258013097 -2.3713200223274367, 362.4213911366577 2.663865297746156 M364.1344167401011 4.122769113343452 C417.6610985040091 1.081554429175723, 473.6175158450809 -5.793241841861867, 526.2869487857588 -18.07977801504046 M364.0284649205322 1.7224867043013319 C420.01091908239397 -5.163582178262602, 477.29870527214723 -9.054412076393032, 527.1816677568622 -13.10032388138086 M523.0672165012129 -13.776885330103937 C580.8003665096484 -13.349743917355202, 626.315960414507 -18.229135059020876, 666.602743565463 -13.119197684411859 M524.5157618044086 -15.046554769747559 C569.8007566639436 -15.044453439517694, 614.4525122603831 -17.332727469933758, 665.2009731786181 -17.977541073297118 M666.4260410660734 -14.725545722131585 C669.0831327028285 -11.489290837742999, 682.1915328142733 -8.924518004604293, 687.9816387198291 5.836491030569221 M666.5697046773364 -15.939366444085692 C671.7753147770865 -11.574560988895062, 677.7444867477393 -7.158585824272993, 686.7798351212762 1.5749852814926157 M688.2639816305957 2.811136645193244 C691.1207804127666 12.04922453815544, 690.757944767091 16.716732902309044, 687.5145860216937 28.581853183989324 M687.2095712586663 1.3680732407821665 C688.8731677164537 10.06233782880005, 690.4395171036226 17.74544442731598, 690.0964856311105 27.45789933863739 M687.1707190639696 28.179936884228983 C468.5530277708401 29.311105305460767, 247.07963274235897 29.47536035230525, -1.0043793332118867 26.466744993512428 M689.209860514792 27.57690953004817 C429.49225755758 24.232760470899237, 171.87538244460632 25.49794206002582, -0.7287940290112374 26.84496406305293 M0.3413784268956306 29.13958314347724 C0.45747320755166143 12.829699887793787, -3.9255852170575274 6.144706117676993, 0.446708582341671 3.069978214800358 M0.8377080585520389 27.467232829962768 C-1.3949494645573073 20.46430878060367, -0.9612897157382785 10.874225260460596, 0.3330637104809284 1.318368624895811 M0 0 C0 0, 0 0, 0 0 M0 0 C0 0, 0 0, 0 0" stroke="#000000" stroke-width="2" fill="none"></path></g></g><g><g transform="translate(155.5 45) rotate(0 -0.1400372013449669 91.42369175516069)" fill-rule="evenodd"><path d="M0.019894026219844818 0.30453965812921524 L92.93383755534887 61.272634245455244 L83.82766237109901 84.09031531959772 L55.61079230159522 67.5551903024316 L60.59108867496253 182.94142911583185 L-53.275149680674105 177.24976418167356 L-48.133186437189586 74.9574904218316 L-77.47984776645899 88.2684652581811 L-97.9135223403573 73.36310861259699 L1.1158386692404747 -1.3515970930457115" stroke="none" stroke-width="0" fill="#e64980" fill-rule="evenodd"></path><path d="M-2.3308150991797447 1.2243474945425987 C34.13040942747146 25.50621674846857, 74.38522919492796 48.08178305117412, 93.65534732490778 57.27072062343357 M-1.2392818219959736 -1.3728295676410198 C25.255148262344303 17.55960997972637, 49.281812182348226 34.96402047263457, 94.85628099367023 59.53984545543788 M98.10051295906305 61.86104693263767 C95.2752259939909 64.82186829313635, 92.66645685238765 68.74702892979606, 87.899152494967 82.99008455127478 M94.88627691194415 59.472816456109264 C92.61142287626863 65.78654894053935, 87.40578567208723 72.28595577234401, 83.06626279279591 82.5712710507214 M83.54249928146602 78.98281564563513 C74.72988945402206 80.85488274715841, 73.05681075591595 75.75401811789723, 56.45073506981135 68.43255486339332 M84.35507829114796 82.98419200256467 C76.32949727572502 78.43378340862691, 67.61764680858703 72.44275613818319, 59.94553704187275 70.01854823902251 M55.969997383654125 70.74370636790992 C61.656666491460065 89.0556025567092, 59.0071542040445 114.69300727039575, 61.94901106506587 179.21312179416418 M56.66992993280292 69.18778632953764 C59.89170174540953 102.04527762165294, 57.876938484963034 136.29683263316753, 60.10238010808826 180.49019752815366 M61.45942328125239 178.32120933383703 C17.198102490548038 181.69040650142358, -32.59010312050583 179.4115105486848, -51.615541003644495 184.22021307796243 M57.22035820409656 178.41086994484067 C16.74369143566117 179.33782780231908, -22.970001592189078 180.53777855044234, -56.09321289137009 178.52052067592743 M-50.56124451011422 180.16625227779153 C-52.33125211481007 142.8023988062516, -50.813014664184315 108.11251389896496, -55.650880120694644 76.36569394916295 M-53.84239177778366 179.90649460628632 C-55.899772795252524 159.47104037087414, -55.68543345095592 135.51867129364985, -51.634528089314706 77.69460069015621 M-48.06246497482062 72.7532004341483 C-57.23495656158776 77.99224358405917, -65.88239631475881 87.17147945920006, -77.21340277045965 85.83486714214087 M-50.730356145650155 74.97849332168697 C-59.73049935419113 78.86370149273424, -63.954278766643256 84.94653172111138, -73.50313286855817 88.27330182865262 M-72.66313459724188 91.82985653728247 C-83.19647002186626 80.70972759466619, -92.68773180007935 78.92251297984272, -97.75794293731451 71.33647289127111 M-74.64385228231549 88.60648034885526 C-79.9566172959283 85.73431290153414, -84.20182065889239 81.32805182289333, -95.79387586191297 74.8182695992291 M-98.38058736175299 71.66746082156897 C-74.10202918149531 56.8221070792526, -46.4742118464224 33.89741266192868, -1.8877721056342125 3.352688930928707 M-96.89647882059216 75.07085119560361 C-73.27710957236587 56.43959201835095, -48.98155524225905 40.445169251691546, -0.8398869521915913 1.8169307596981525 M0 0 C0 0, 0 0, 0 0 M0 0 C0 0, 0 0, 0 0" stroke="#000000" stroke-width="2" fill="none"></path></g></g><g transform="translate(147.66176470588243 182.17307692307702) rotate(0 11 20.25)"><path d="M2.6368291154503822 2.378231905400753 L21.63230559974909 3.023605488240719 L22.4605228677392 38.39934863895178 L-0.5418491587042809 36.89926018565893" stroke="none" stroke-width="0" fill="#7950f2"></path><path d="M2.3248454555869102 -1.3850133642554283 C7.125969980284573 -0.037504545077681584, 10.64598946347833 1.4305900422483682, 20.827662371098995 2.090315319597721 M1.720714557915926 0.612425159662962 C3.6608178567141296 1.7583870271593331, 10.050616742670536 -1.6649436374753714, 21.884232629090548 -0.2067611701786518 M19.056721590459347 -2.9921069368720055 C22.23200758194551 7.050583973247559, 25.18514331078157 24.86424808893353, 20.559927605092525 38.76542542129755 M21.60086451843381 1.331169318407774 C23.185694505963475 11.485013910662385, 20.51037900665775 21.810439771227543, 23.922940481454134 38.75998027250171 M23.919907234609127 44.342121817171574 C15.003729366138577 37.70583632849157, 12.837208174914121 43.76839807890356, 0.8724769577383995 43.835226990282536 M22.48963950946927 39.88876159116626 C12.802640825882554 41.74536273770034, 4.10073812007904 39.56740103058517, 1.9274266846477985 39.31349463388324 M1.841892622411251 38.49877641350031 C-0.5459487191401422 28.012988668959586, -2.74514148151502 22.275224911235274, 2.4037381634116173 -1.1551139578223228 M-1.6606899611651897 41.334884595125914 C-0.04032212922349587 26.393632658291608, 0.7105022030137478 11.77215534914285, -1.9430070035159588 1.1089332811534405" stroke="#000000" stroke-width="2" fill="none"></path></g><g transform="translate(113.66176470588243 126.17307692307702) rotate(0 12.75 13.5)"><path d="M-2.537087060511112 -3.7294979318976402 L22.90532936900854 0.6539714112877846 L25.353994272649288 27.157535053789616 L-3.625418521463871 24.422550417482853" stroke="none" stroke-width="0" fill="#228be6"></path><path d="M3.6302735581994057 -3.0650721564888954 C7.183013563696296 -3.764889466036111, 19.605603727884592 0.0993180401436985, 27.703975655138493 -3.8911508098244667 M-0.7519039399921894 0.8449126370251179 C9.868179428484291 -1.7169098758511245, 16.45220246370882 -1.1304761075787246, 23.516075562685728 1.9834864027798176 M23.838960625231266 3.968340538442135 C29.126899158619345 12.193673609383405, 28.775726472996176 22.014366482570768, 22.17679999023676 28.812328718602657 M25.147450875490904 -1.8987891785800457 C25.43057089496404 10.376285717450083, 24.155826503522693 19.260480028763414, 25.301367115229368 26.792019236832857 M28.068559862673283 29.95313110202551 C15.72668489580974 25.47660353647545, 5.372335868887603 25.106451301444324, 0.983280636370182 26.939598225057125 M26.81851513311267 25.04399048164487 C21.644014375004918 25.310455627720803, 15.886334143020212 27.39529485253617, -1.6983945854008198 27.794968117028475 M-3.3154502138495445 26.902727268636227 C0.7046649489179253 20.078973136655986, 2.985557082630694 6.350090525671838, -0.34704139083623886 -0.034977056086063385 M-0.806216049939394 26.14505337551236 C-1.5249514969065787 20.817556730844082, -1.2332820089533927 12.150204892084002, 1.304754327982664 1.7961660511791706" stroke="#000000" stroke-width="2" fill="none"></path></g><g transform="translate(170.41176470588243 126.17307692307702) rotate(0 12.75 13.5)"><path d="M0.7963031753897667 -1.6494207605719566 L22.310466431081295 -1.9749052748084068 L22.847479723393917 27.19372794777155 L-0.5582331195473671 24.52908632904291" stroke="none" stroke-width="0" fill="#228be6"></path><path d="M-0.41596152633428574 1.1211623176932335 C5.0740782433189455 -1.8452577822096645, 13.464241609163583 3.00378248764202, 24.091425873339176 -1.2816680446267128 M-0.030200887471437454 -1.8270391337573528 C4.477633261587471 -1.9871627640537919, 12.285832858644426 -2.0813777994923295, 26.964539479464293 -1.2147867791354656 M27.08993623405695 3.8119541630148888 C24.574317052029073 10.303953908570112, 22.41946394648403 18.876665018871428, 26.047984339296818 30.752042196691036 M25.48251147195697 -0.1887371651828289 C27.062290326841175 10.292709157429636, 24.787774817235768 19.164036614075304, 24.371489357203245 28.66276155784726 M29.09233210235834 24.462912939488888 C15.187474540527909 24.73804172264412, 12.987916356138884 27.186706626284867, 0.15753505378961563 23.37458147853613 M25.568202804774046 27.217589247971773 C18.743712954316287 28.05519379882142, 15.328719411231576 28.80801703242585, 1.3727805130183697 28.488143909722567 M1.550454594194889 28.99371638149023 C-0.9744616999849677 22.196314678899945, -1.362484361194074 14.29163605980575, -3.4566309675574303 0.9665650352835655 M1.6124932281672955 27.660616863518953 C0.8048250810429454 16.415998975373803, -0.48628436166793104 8.456037611886856, -0.29049818590283394 1.36206828430295" stroke="#000000" stroke-width="2" fill="none"></path></g><g><g transform="translate(170.16176470588243 138.67307692307702) rotate(0 12.771895235404372 0.2564069274812937)"><path d="M-0.034977056086063385 -0.3774743303656578 C12.388267099261283 0.42532189771533013, 17.292644831594078 -2.036367383468896, 23.24297871440649 2.825523115694523 M1.7961660511791706 -1.268543530255556 C4.714075488895179 -1.7591266402602197, 13.488837688062342 -0.6638731595687568, 25.578767526894808 -2.3127092607319355" stroke="#000000" stroke-width="2" fill="none"></path></g></g><g><g transform="translate(180.66176470588243 125.17307692307702) rotate(0 1.5812912229448557 14.132700448855758)"><path d="M3.8539650216698647 2.7455610260367393 C3.698846580479294 3.7125197517685606, -1.4176277058944105 16.895004644524306, 3.050454594194889 29.99371638149023 M-0.6913825757801533 -1.7283154837787151 C1.0041878972016276 8.021609015036375, 0.29854901980608717 14.823557117599995, 3.1124932281672955 28.660616863518953" stroke="#000000" stroke-width="2" fill="none"></path></g></g><g><g transform="translate(125.66176470588243 125.67307692307702) rotate(0 -0.5929970499128103 14.189403658732772)"><path d="M-1.8237157091498375 -0.5809963718056679 C2.3773469019122424 10.422673066910354, -1.8302949541807174 16.059933761525897, -1.4749052748084068 26.347479723393917 M-0.7369053848087788 0.84016989544034 C-0.08749940233305092 6.858240423891694, -1.331564442962408 17.89209488032386, 0.6377216093242168 28.95980368927121" stroke="#000000" stroke-width="2" fill="none"></path></g></g><g><g transform="translate(113.66176470588243 140.67307692307702) rotate(0 14.558815443888307 -1.0708050805191647)"><path d="M2.1220478788018227 1.3731576427817345 C11.060608721803874 -4.19165200194344, 13.164674020372331 2.774934349451214, 31.01837418228388 -3.5598469749093056 M-1.900743294507265 1.2204308398067951 C9.83857364775613 1.782682763095945, 22.02095623333007 1.088495956417173, 28.586600374430418 0.2866741307079792" stroke="#000000" stroke-width="2" fill="none"></path></g></g><g transform="translate(164.16176470588243 200.67307692307702) rotate(0 0.5 1.5)"><path d="M-0.20616847162486357 -0.132876384489941 C0.1987730585396894 -0.42888669988706063, 1.710748109129514 0.7024209789185591, 2.083237649107944 0.9599467573451039 C2.4557271890863737 1.2174725357716487, 2.2228379619859493 1.424683220999561, 2.028768768245715 1.4122782860693281 C1.8346995745054806 1.3998733511390953, 0.8868959455018718 0.958132645031877, 0.918822486666538 0.885517147763707 C0.9507490278312042 0.8129016504955371, 2.3743016617156036 0.6190969644717588, 2.2203280152337124 0.9765853024603087 C2.066354368751821 1.3340736404488587, 0.48742684764944055 2.8618325860748812, -0.005019392224810126 3.0304471756950067 C-0.4974656320990608 3.199061765315132, -0.7913504399948261 1.7988766370108957, -0.7343494240117919 1.988272840181062 C-0.6773484080287577 2.1776690433512282, 0.36531732844994247 4.348732128443213, 0.3369867036733951 4.166824394716005 C0.30865607889684776 3.9849166609887967, -0.7577072344240646 1.3005072412745793, -0.9043331726710759 0.8968264378178123 C-1.0509591109180874 0.49314563436104547, -0.8662747536341237 1.677014617994079, -0.542768925808673 1.7447395739754037 C-0.2192630979832223 1.8124645299567284, 0.858867117262032 1.307874382185675, 1.0367017942816281 1.3031761737057608 M1.2980688980330368 -0.4724577206654321 C1.2764200792674354 -0.22190510982796835, 0.6531946847866759 0.7876264016335179, 0.41629276050301883 1.0408098293702228 C0.17939083621936175 1.2939932571069277, 0.22834864062697124 1.0769244040425456, -0.12334264766890563 1.0466428457547972 C-0.4750339359647825 1.0163612874670487, -1.6187137481917213 0.9037034882695986, -1.6938549692722424 0.8591204796437321 C-1.7689961903527636 0.8145374710178656, -1.2690857396083546 0.7759478110269253, -0.5741899741520322 0.7791447939995979 C0.12070579130429004 0.7823417769722705, 2.6141128206117035 0.7237709182127433, 2.4755196234656913 0.8783023774797671 C2.336926426319679 1.032833836746791, -0.5236139999179624 2.0436545366923653, -1.4057491570281064 1.7063335496017409 C-2.2878843141382506 1.3690125625111162, -2.765466832938126 -1.0901742661943552, -2.8172913191951725 -1.1456235450639805 C-2.869115805452219 -1.2010728239336057, -2.353645596690588 0.8299022784580835, -1.7166960745703845 1.37363787638399 C-1.079746552450181 1.9173734743098967, 0.772736180489961 2.0477609980755345, 1.0044058135260483 2.1167900424914587 C1.2360754465621357 2.185819086907383, -0.06914496996984121 2.4854406946515515, -0.3266782763538605 1.7878121428795346" stroke="#000000" stroke-width="2" fill="none"></path></g><g><g transform="translate(581.8156108597286 207.21153846153868) rotate(0 -18.765649562271733 -40.73968405319522)" fill-rule="evenodd"><path d="M2.7963895574212074 0.520326279103756 L-14.09941215182721 -79.18551931530237 L-33.12594588387469 -79.7645297468855 L-41.92310421684601 3.528656312479427 L0.23039815574884415 1.5493761524558067" stroke="none" stroke-width="0" fill="#fd7e14" fill-rule="evenodd"></path><path d="M0.0978337749838829 2.5341522470116615 C-5.182811541568761 -20.770356124123705, -8.205447939955244 -40.61084332116522, -11.144013428344124 -83.13373806327581 M0.1509547121822834 -1.2650882489979267 C-4.762655285688527 -29.7687435986904, -9.912657409046664 -59.592341193786034, -9.943847951694124 -81.94601469114423 M-14.296057724608772 -83.46396305412054 C-19.48181064318002 -81.77784083411098, -22.588345641470845 -80.68046630145267, -38.16334215093116 -79.9197368295147 M-9.026898679538363 -79.8876984603703 C-18.095365471794015 -81.20989184975625, -27.025902164612795 -82.72392713140984, -35.64121586743454 -82.36190616425415 M-38.286028537039556 -82.11428066801568 C-34.950314871135774 -63.42537689452562, -37.5008618740221 -46.26189493101377, -36.42352557698109 1.689181232108524 M-36.2609182066069 -84.0135203534021 C-34.23977326553024 -60.58674745195761, -34.977139167860074 -36.921843496136944, -37.64072159821012 2.4200404856640603 M-37.28833842793324 0.30805292095129744 C-27.842113665118717 -2.247469186066431, -22.79518370361848 3.481544926762584, 0.7547294124960899 -0.456529401242733 M-36.67695836121061 0.23525368909423605 C-23.76663566521146 0.19537956855045224, -9.341587507925318 -1.3008287305442172, 0.023426998406648636 -1.1553599126636982 M0 0 C0 0, 0 0, 0 0 M0 0 C0 0, 0 0, 0 0" stroke="#c92a2a" stroke-width="2" fill="none"></path></g></g><g><g transform="translate(518.7386877828055 45.673076923077076) rotate(0 46.12918472216688 44.970374397510426)" fill-rule="evenodd"><path d="M3.621801756322384 3.992579437792301 L-28.063342943214366 -7.9925965202542075 L-51.12813159651466 -10.683324212638162 L-53.29805624083815 -4.780493813638429 L-57.177214682675185 1.8407256563123195 L-63.6719883823623 17.064179599858313 L-58.99254485792833 28.811874477336094 L-55.200614127402105 40.232379249082214 L-52.11694063188939 40.1635657600486 L-28.632581312495983 37.018426047494856 L-17.250972918019897 33.36319734098828 L-46.887060610720646 72.41676110086539 L-52.988541956704296 82.87065503746277 L-32.080939041307275 91.79922936111693 L-10.149509526789188 95.17947851293366 L-3.1487117965634197 95.0653200109418 L27.793017400571898 82.89678916163177 L62.96250573889564 79.61091646380153 L80.9400003638405 91.29106655086466 L88.82858495930063 115.57769540238843 L96.84101868993957 112.5054897671709 L122.4869357204208 89.3837758170871 L140.49607237886926 71.71148308939664 L150.6636698011023 58.00496900597449 L146.81321431524486 48.43624002715721 L119.10172590326817 47.19593242097365 L114.16999858560484 37.54018726314496 L118.5380331134568 28.73295812939229 L128.8045561995644 7.155386095436803 L127.09053013359124 -3.709224301461904 L123.84323932058533 -1.3024483317365139 L109.45648258867168 -14.935452611973561 L72.88836165059067 -20.246927797221133 L44.341569565236554 -27.54503569637346 L34.34992919919591 -20.56762561832477 L2.759162457516595 -21.545936295046204 L6.496121052939182 -17.127672804662772 L-0.014146186411380768 -2.8505642637610435" stroke="none" stroke-width="0" fill="#40c057" fill-rule="evenodd"></path><path d="M-0.6454359017312528 2.5635875307023523 C-9.300358866976595 1.0591834535392552, -45.17196852115851 -14.179664337080958, -54.173997774433474 -8.154261993502121 C-63.176027027708436 -2.1288596499232844, -60.290035750869706 31.99709027877608, -54.657611421381034 38.716001592175374 C-49.02518709189236 45.43491290557466, -21.065409612598398 24.95105180459535, -20.379451797501453 32.15920588689363 C-19.693493982404508 39.36735996919191, -52.219366022810625 71.71091803184311, -50.54186453079937 81.96492608596505 C-48.86436303878812 92.21893414008699, -22.6551720838707 93.50115998916523, -10.31444284543395 93.68325421162527 C2.026286393002799 93.8653484340853, 9.083580582627087 84.64138091674609, 23.502510899821118 83.0574914207253 C37.92144121701515 81.47360192470451, 64.73925788713952 78.66618806118007, 76.19913905773024 84.17991723550057 C87.65902022832095 89.69364640982107, 79.96902942602065 120.23480806008747, 92.26179792336544 116.13986646664833 C104.55456642071022 112.04492487320918, 146.37884284049656 72.2817279677552, 149.95575004179895 59.61026767486568 C153.53265724310134 46.93880738197617, 118.00868022692143 51.059643973085414, 113.72324113117975 40.111104709311235 C109.43780203543807 29.162565445537055, 134.2844812137003 4.720871656006047, 124.24311546734889 -6.080967907779405 C114.20174972099747 -16.882807471564856, 68.43160449975188 -22.747397602273015, 53.47504665307124 -24.699932673401474 C38.51848880639059 -26.652467744529933, 42.46777657245604 -18.757070978234147, 34.50376838726502 -17.796178334550156 C26.539760202074 -16.835285690866165, 11.078091707653774 -21.512102924000693, 5.690997541925117 -18.93457681129753 C0.3039033761964589 -16.357050698594364, 3.1207812004173467 -5.883495167337157, 2.1812033928930754 -2.3310216583311556 M4.199660395234824 1.4869383801519875 C-3.3540824520855113 0.2746733277233877, -38.87931103009047 -11.869912991466364, -48.785143991124016 -5.193287862573604 C-58.69097695215756 1.4833372663191557, -59.96283158888796 35.10919329942424, -55.23533737096647 41.54668915350855 C-50.50784315304498 47.98418500759286, -20.713833238524572 27.734204722119532, -20.42017868359507 33.431687261932254 C-20.126524128665565 39.12916980174498, -55.68488421317467 64.88235096912742, -53.47341004138945 75.73158439238489 C-51.26193586960423 86.58081781564236, -20.202523099577554 96.46694747013545, -7.151333652883768 98.52708780147712 C5.899855793810021 100.5872281328188, 11.411074496297468 90.72675436636966, 24.83372663877328 88.09242638043494 C38.25637878124909 85.45809839450023, 61.50771133386552 78.5225149721328, 73.38457920197109 82.72111988586879 C85.26144707007667 86.91972479960478, 82.96534802510567 117.20990449275347, 96.09493384740671 113.28405586285089 C109.22451966970775 109.35820723294832, 149.1787440602023 71.03350438356021, 152.16209413577735 59.166028106453375 C155.1454442113524 47.298551829346536, 119.1680475511346 53.25308440116359, 113.995034300857 42.079198200209845 C108.8220210505794 30.9053119992561, 131.15405164193265 3.515012859866488, 121.12401463411172 -7.877289099269101 C111.09397762629078 -19.26959105840469, 68.60832271380679 -24.67582029141286, 53.81481225393136 -26.274613554603697 C39.02130179405593 -27.87340681779453, 40.2961491030952 -18.639977828115157, 32.36295187485914 -17.470048678414116 C24.429754646623078 -16.300119528713076, 12.081541101263934 -22.059757301322097, 6.215628884514972 -19.255038656397456 C0.3497166677660113 -16.450320011472815, -1.3169998143231199 -3.3175243710898346, -2.8325214256346225 -0.6417368088662623" stroke="#087f5b" stroke-width="2" fill="none"></path></g></g><g><g transform="translate(212.2593756432775 113.83263953968327) rotate(0 -58.782889076165475 -24.747230377979577)" fill-rule="evenodd"><path d="M-153.9816058653724 3.9471834618628634 C-153.9816058653724 3.9471834618628634, -153.9816058653724 3.9471834618628634, -153.9816058653724 3.9471834618628634 M-153.9816058653724 3.9471834618628634 C-153.9816058653724 3.9471834618628634, -153.9816058653724 3.9471834618628634, -153.9816058653724 3.9471834618628634 M-150.72060902351453 7.805385164695807 C-145.19045948191444 1.217502034076782, -141.43221732492907 -7.130260650447569, -138.1194087550981 -7.258417726876644 M-150.24923470364823 7.515179430845208 C-146.99177569505682 2.656757453787727, -143.139028324566 -1.4710387951790134, -138.52784351678622 -8.812799173789529 M-149.57045725943954 11.060837210642887 C-141.67756087943354 1.7055647376887109, -132.0696239683095 -8.79180232085143, -122.0631225763143 -22.970690870734728 M-147.91548078531832 8.430219515713645 C-139.55556581356214 -0.6101902438904006, -130.89333852125424 -10.493756673728013, -121.64221658206293 -21.417442362832702 M-143.5985701132845 12.304917644041126 C-135.45138929377651 0.6991445774306158, -128.67151398184686 -7.079053545823564, -105.81760047412837 -34.69560749223138 M-143.9745586693566 10.961327486934607 C-132.3697532941547 -1.083266766633809, -120.90713732564647 -16.034644760612963, -104.20495557635451 -34.71374705014433 M-142.78646179824634 12.48494325185527 C-123.67593188691764 -8.451282312213472, -104.0767358127429 -26.840784645030784, -90.53232541173738 -46.50538205440185 M-140.58150551817877 13.929538393191592 C-125.80830703074673 -3.3461637315855643, -112.39040501842366 -19.33214879812408, -89.31836328707676 -47.3396625620409 M-138.5330423644936 17.57407831171836 C-115.07267623909318 -7.425935134268931, -96.54093636255044 -31.851616814870006, -73.68099910233829 -60.835510270281425 M-137.4161762061721 15.82040664883639 C-111.10606477977021 -13.06508448094998, -86.35259197926311 -42.15936719275547, -72.20388312664542 -58.97024759983896 M-133.59326352522334 17.91807711059512 C-110.81280495986897 -7.328459094281506, -87.05003988006554 -34.539277840702184, -57.56077812509017 -71.59093078201428 M-135.8093891457524 19.318248552552475 C-105.05641048061277 -15.780441814723115, -74.69644674063011 -50.047503614271605, -56.88883524843828 -72.23633191896394 M-129.9212957436324 22.374412685450295 C-111.53485519659662 0.4678012694880813, -91.68291902805174 -23.87035396311193, -53.07180518602857 -69.47863893884858 M-130.77360337433527 20.632771028023342 C-107.55444699167168 -8.431078879589904, -83.20513321972459 -36.16375604358926, -52.173447807709664 -68.86963010694524 M-128.51370531988948 24.4514055639169 C-107.86086131785824 -0.12653412497945027, -87.30243456907039 -23.55758754118222, -51.41349378450242 -68.84932748738392 M-129.03359564130812 22.825700364600756 C-107.9628307357386 0.8775631932965204, -87.47555279482992 -23.57703320570163, -49.514641628027235 -67.35688227366371 M-118.16327381132433 15.089032159840869 C-90.38659479931003 -17.954231664070562, -63.51924240781557 -49.61658310455827, -45.45036160471817 -63.596326720878366 M-115.9677798282195 15.779090612849402 C-97.88050032814114 -4.965596533952203, -82.18588162477292 -24.613604044459315, -46.57936359281619 -65.65129420065868 M-102.85665433700112 8.495855883305737 C-88.42322498581363 -10.518229437288124, -73.24637853566568 -28.081904346959305, -44.370381196844356 -63.58240986169887 M-103.19336325335232 7.219754694571563 C-85.7785960149238 -14.625024972139771, -67.80824437885096 -36.02317950638506, -44.090437326463835 -62.41184272357834 M-82.19036109920224 -8.466161450728713 C-68.98313068370778 -27.14495268892131, -53.17389013528299 -45.6901184822612, -38.311507745087454 -60.80246970310347 M-83.1698361932077 -10.708424188554226 C-74.5662158379054 -22.729923705861186, -63.94773376438509 -34.04225013278997, -38.64059096239538 -59.97845237396197 M-53.58359928213419 -37.010662635520525 C-49.677856399775166 -46.36972973255791, -40.169743016777005 -54.39426616096367, -37.485151299615985 -59.47084196745913 M-55.59930178121091 -36.98599556806726 C-49.22421916094015 -42.30802994442333, -45.834649367019445 -48.75731687794807, -36.0034293749981 -57.2718187374578 M-52.33198038549084 -35.83525438229806 C-44.02564678204894 -39.36476683369691, -41.296648625238085 -48.4112556857804, -32.80270454463643 -58.18398194802389 M-51.66769134127456 -33.93880101847715 C-45.2675870942045 -42.1696485051987, -38.60338462282056 -50.58745930989592, -31.94746194769722 -56.76858509560511 M-49.697903991839404 -31.434106032784698 C-41.37360760201703 -39.62679107968892, -37.46593338502024 -44.59456204362121, -30.9990150303173 -52.00778786716471 M-48.32264615518462 -32.363072869788525 C-41.35549657853705 -39.82245972461847, -33.33226296268582 -48.65217997435359, -29.547074804880015 -53.40116578405211 M-46.6974676513484 -29.091865809347382 C-37.755409318750104 -37.5867792055961, -33.0063786610721 -43.33841273239908, -27.25891294086508 -50.64027751813962 M-44.24792734732835 -29.33185045764958 C-39.238439390933884 -37.31970113614939, -31.729564741767398 -45.67914832891509, -25.996558579971712 -51.53292283433809 M-41.796751548224314 -27.725301505244175 C-36.649464227581554 -36.4994845783697, -28.678170953143635 -42.368660627562875, -24.3406833264483 -48.49891162331559 M-41.747200551130994 -27.849120813599626 C-35.483099347069356 -35.6730922415661, -29.069432028622167 -41.52031356617932, -23.921080647359588 -49.85798933211126 M-38.03529073263566 -25.970623842842024 C-31.783068812030315 -33.754115404034266, -25.625987085335296 -41.93470190494146, -21.202593871273436 -46.88327047595067 M-38.05500814097981 -25.74964202328686 C-32.295371151938696 -33.73807767107096, -25.016925232515902 -40.33554039441945, -20.190712890468873 -46.376446058910915 M-35.65260288878891 -24.346163115398966 C-30.236042075340173 -31.083171063302586, -23.596193334371215 -34.835096772950095, -16.12636712550899 -44.06237729841179 M-34.150797000300024 -22.67411986825057 C-27.329418205665345 -32.034918130646524, -20.854363470961502 -40.18182927293087, -17.23140393368682 -45.29414485038525 M-31.211660566852593 -19.33969254528197 C-27.47071752555142 -27.232765426605457, -21.06235745546228 -31.03058840098427, -11.343708273361464 -41.43737488395702 M-32.06989075347891 -20.969031184138977 C-24.610728242089582 -28.755186532089414, -16.738826051412957 -37.53728705355638, -11.839006910438677 -41.99788523807358 M-26.2254189510332 -17.571104925749072 C-24.860212287857024 -23.981624064367814, -19.996812709336268 -27.93211612455443, -8.159777364999371 -41.6288489549533 M-27.71751753394171 -18.661800502491364 C-21.866713525133775 -24.817479116924765, -16.857623650254574 -32.257564178935624, -10.49025169511171 -39.95523780762409 M-26.280288091499223 -17.879735979167233 C-22.07573472150927 -20.74964502868341, -15.329009542624963 -27.777280973591083, -7.579717084629188 -38.639504804658685 M-24.179782216075672 -16.36062340895594 C-20.19131113064344 -21.835590346627814, -15.03530458380721 -27.911020717678234, -6.156772671131144 -37.689720840576086 M-21.662660672457168 -13.487040998794491 C-16.839082883816296 -21.798617343401713, -9.563966796161857 -26.135636297783307, -1.4321249824194346 -35.94149065544013 M-20.537694183306048 -14.229643185072 C-14.850894568958037 -21.39050296687042, -9.102334268382945 -27.25295768054778, -3.6160809628842507 -35.680623672577774 M-18.48238424407554 -10.083918206997808 C-10.913435086717964 -21.738592080287276, -4.124174862251671 -27.860781592301926, -0.9955812425765984 -32.63907430055567 M-19.178139560020092 -12.88877416648775 C-14.149753117220936 -18.568409932839035, -7.769026765591741 -24.851705343651247, 1.7344077962037332 -33.338183335168445 M-15.299288990560825 -11.993385397035222 C-7.198358372334372 -17.702002522145335, 0.2971992858396568 -24.11782990963853, 3.877879084730811 -29.555966462372268 M-14.607908979643042 -10.38887838474248 C-7.939879107608346 -18.576229722663502, -1.2782542322585737 -25.644883123464048, 4.566401231745548 -31.903407913996304 M-10.24665996208154 -8.257903291273694 C-3.9772582225761477 -15.104593711233033, 0.7438714678616449 -21.888797022992534, 8.136238315296307 -27.39799743414796 M-10.764669816562165 -7.1115889254844 C-5.487358247857052 -16.016519327993958, 1.4713055281655993 -22.36256920107548, 6.806702460315957 -29.42325319060064 M-9.657764842844173 -6.8020521829712655 C-1.805273336069793 -9.898471692578912, 1.349191120097185 -17.901008136793322, 12.404023898951372 -24.840440438249715 M-7.830993954202697 -4.7444865702528025 C-4.270956053616926 -9.751590870898497, -0.31914228889898055 -13.983826971427735, 10.326237857527694 -27.65044600062967 M-3.189326183017233 -4.519855294494892 C-0.07812820494047301 -8.845856086686458, 8.008748484182131 -18.629723367030746, 13.699721622499014 -23.935978687712794 M-5.5453300169518975 -3.180923154695894 C-0.08730842320076437 -7.568529515176779, 4.014834356788701 -14.091078557118724, 13.469970260965015 -24.26395129539991 M-0.44804916680720774 -1.4374554191026205 C4.305338131123586 -6.962110234873449, 7.870026117474591 -10.412547182791457, 17.592598522742243 -23.975576645572474 M-2.016031138235006 -1.4951982103529686 C3.9088673501561733 -7.980077588821985, 10.33654859804113 -13.157625298703973, 17.02622188321218 -21.542343401227882 M1.8859061556173886 1.1995617208385956 C10.171356292424658 -5.22911623319459, 13.886609495809447 -11.394853642340056, 18.359525799512543 -19.349351284195713 M0.9676728075607146 1.1576176771277678 C8.176353463836639 -7.574916409560897, 16.804624236250802 -14.146709270528216, 20.195997224881925 -19.037177278761796 M7.432397100050071 2.763490832070711 C10.7379065696534 -4.116435631365034, 21.112236537033823 -11.314179793526497, 25.702392018603426 -16.954539146840553 M5.121647437010029 2.5665062262070206 C12.680076864245677 -4.590159918426549, 20.46536864556459 -13.385267419440982, 23.12289627754901 -17.793455584540943 M8.987826116322323 5.157183692226771 C17.07400616041007 -2.7979652346566484, 20.740996756842357 -7.490301896133481, 25.624630879846382 -14.282819705873944 M8.35588162572567 6.564678101236585 C14.779794343857132 -3.2347916738197435, 22.44109460587069 -11.585376858515897, 27.582142291826177 -15.249452029213526 M11.89861302022766 6.6513725080487305 C16.810903394419853 2.687922056878951, 23.029784601572306 -2.6269284353129683, 31.804693449034925 -13.582992004553939 M11.960459740282406 8.054396270677167 C16.317717669471122 1.573840892163874, 21.947729355262325 -4.146889176797957, 30.166554009288188 -12.211888019318843 M15.593781790588078 11.042636976946863 C19.886640876785382 3.305379098735, 26.40814981243078 -0.8160183714954385, 34.47257592600054 -11.948298015247488 M15.95064843528348 9.352443068657788 C21.60340681086262 2.9725795174808667, 29.016895783189767 -5.047336026756881, 32.975573430547776 -9.7557560155051 M18.33419668521607 12.509565966108665 C24.938487417087693 6.1018948240202135, 29.545778647154222 1.420526281635608, 35.78329187653674 -7.479099281212635 M19.628632769322635 12.233781874084697 C27.226586963214437 3.8955300824245693, 33.13696150005914 -5.044257988489894, 36.80123804717971 -8.199496174311586 M22.02544418293364 12.997176672944413 C27.282112992715927 6.921137082511262, 32.58440162068548 4.598178199793331, 38.693400000475 -5.370200274816341 M22.208898147003126 14.503476271086917 C26.921600468832423 10.782997576760478, 29.900577281403322 6.478839922428895, 39.817208609796715 -6.004819706386513 M25.33905072367562 15.398055230601372 C30.634890656342193 13.007370941600945, 32.412458407401125 8.32505918871083, 34.28154656647433 5.6935112332340605 M25.62807885843141 16.075148027351737 C27.44795510537634 14.52024926198221, 30.319215733530264 11.694769147143887, 35.98273206392963 5.218658897967291 M-154.49595161082584 3.962409892177078 C-154.49595161082584 3.962409892177078, -154.49595161082584 3.962409892177078, -154.49595161082584 3.962409892177078 M-154.49595161082584 3.962409892177078 C-154.49595161082584 3.962409892177078, -154.49595161082584 3.962409892177078, -154.49595161082584 3.962409892177078 M-127.32534325095259 20.975520276674303 C-136.8391198873457 16.0753027347768, -141.5130840543703 8.949062602694799, -152.76430724207822 0.717253881010322 M-129.6009838708713 21.52715618091193 C-134.97295539392303 15.146767287941618, -140.3189211759649 10.882283032894938, -150.84273629840973 0.868275702434687 M-126.83934177149601 17.30245529732712 C-135.63797489210012 11.409346293530021, -142.65813323922114 5.559969197432563, -146.8948943551509 -0.3037610800263195 M-126.54211899143226 18.54327175452419 C-131.26216358493582 12.894065535822229, -137.54069542936978 9.492585355174269, -147.29372287465915 -0.15522626240520765 M-121.05150237089684 14.647681791368626 C-126.9813949481511 13.454381645878364, -132.91053794962127 8.62570078711052, -143.66492772676855 -2.0351222629867607 M-122.23430124639263 15.763162734020256 C-127.96040115861513 11.086711469109872, -132.07173950351836 7.913579359832735, -144.56905980796427 -3.394813661205035 M-120.9704920413426 13.646819875986296 C-126.0445277831029 6.501164293593098, -135.812561314286 1.339169318807068, -141.6260430991186 -6.485740800683544 M-118.70932995215867 14.202026873306352 C-126.43550559354044 7.553987411500656, -133.4137537769883 1.7625961985958547, -140.46031203973126 -5.481773115058587 M-114.42919652502077 13.07220841836763 C-122.5611988113059 5.155995540247931, -132.26593604020496 -3.3253860487447415, -137.78380454461134 -7.308868104919668 M-115.86814505013662 11.58795255128873 C-125.20235407963196 3.7782932502244266, -132.6656520806044 -3.7764603100899166, -137.94539471658922 -9.428059649050113 M-111.95972031411887 9.707905035700144 C-117.73843612428216 3.5942076006932586, -127.14110692168681 -2.64928490908283, -134.45386614498875 -11.302859750526615 M-111.54332710673273 9.424418771873654 C-119.62076473022273 2.3805162029785842, -128.18093978752552 -5.125385079768813, -134.23223486949882 -10.939560576292344 M-107.91367707060161 6.880745124161834 C-114.86649016234911 3.2619772672457916, -121.16229381526855 -6.6216762729841525, -129.66522947266105 -14.472529649307383 M-108.80688773313048 6.708854192957872 C-114.11200740576768 1.2665847446549527, -121.59837432025337 -4.003560613722588, -131.34952889508907 -13.289949671869529 M-105.35602794710205 3.711105742959191 C-111.55859558862583 -1.9048071921817078, -119.85997404569397 -6.908789322752954, -128.01640526981578 -15.529913934074472 M-105.05160790618167 4.370901010466625 C-113.03996210209642 -2.159079378285302, -119.28949938869347 -7.706848005453102, -129.19040423476622 -15.633951056875418 M-101.41182410558491 2.924259788270227 C-109.68425304981153 -4.743253279812809, -118.28204687675426 -13.485711159548986, -124.05983260886322 -17.3313890166309 M-101.52528048706978 2.2712691322966734 C-108.66575604700115 -3.7577515729710718, -114.74022602663301 -9.550046690416833, -125.08433853515933 -19.25695725639428 M-96.91475461846048 -0.5549191517080843 C-108.27771650037924 -7.634102933659408, -114.97804880221553 -15.387847621489472, -121.15804057154531 -20.378435471808167 M-99.16675812242383 -1.0160589666362583 C-108.13450254230462 -7.291292401706658, -115.9112290219962 -15.996612362933114, -122.8408213272291 -21.888293083538862 M-94.50859856747068 -4.4466616518072115 C-102.17629517526598 -6.195111258512281, -105.30345005412877 -10.721815707544437, -117.8869057302723 -22.87899221140924 M-94.89490534320451 -3.8610330994448887 C-101.66704871719382 -8.173491833248708, -106.96003045818377 -12.354567076055506, -119.34011150760449 -22.575069813393384 M-93.05048252502581 -7.177656623830174 C-97.46316651308223 -9.257746919895961, -104.15793309808345 -16.46114239072927, -114.89181382723173 -26.24822036824665 M-92.19935604604086 -4.451389541213487 C-99.54994140052781 -12.243815132747873, -107.61976503584914 -18.22825199546096, -115.57689901769182 -25.995449067051624 M-91.22175181353613 -10.037874229579963 C-95.27432462056318 -15.863598559238344, -103.31627538302726 -21.904525189259303, -113.51736935461108 -27.889562325132893 M-88.93888475256189 -7.7619739420262945 C-98.19257603351731 -15.8558389185312, -105.12865430384502 -21.940028462894976, -111.4775144238973 -28.05220184060733 M-87.1388417647436 -11.337388793888074 C-91.56694958379046 -15.947933055771667, -101.98748892968487 -22.216810872504432, -110.43710513482061 -29.97580074387097 M-85.13977786872832 -10.524064239996058 C-91.39729603831964 -14.920927577278484, -95.81558108513957 -20.97250092674617, -108.71713849784997 -31.466267534144755 M-81.51124478128126 -15.123792007548019 C-91.81969563245026 -18.596159405983357, -98.80510574438276 -28.329689890042964, -104.5096439996023 -32.949822449292355 M-84.34130074639192 -14.755283864197537 C-92.76882511656014 -21.899682433333773, -99.73904770578655 -28.636636909946695, -105.76346389551054 -34.09001783577662 M-81.47883369489108 -18.05872069539129 C-88.14174129213298 -24.662489961400077, -96.04074310871113 -30.259071445704336, -103.18195627136642 -35.58597260320008 M-79.62052104151343 -15.448629502743476 C-87.98916782721224 -24.173684318080095, -96.45070425137271 -31.39752521901736, -102.46745263850802 -35.781110895587204 M-75.76982882798332 -18.13527001922089 C-84.02337338165265 -24.792030926337027, -88.49606795589435 -28.81863323002011, -97.34552144230045 -36.49081858840663 M-76.93777577572185 -18.102384305718125 C-84.13599770620975 -26.25129044410091, -93.91379434277869 -33.072536901682206, -99.10699779324867 -38.715755209670256 M-74.31166925296824 -20.834816390839823 C-79.75999703188971 -27.170002384794024, -84.13507697802035 -32.0665358913468, -96.72074733481469 -39.540268066715015 M-74.9350425956462 -21.68944079820574 C-80.254930442397 -27.58635709258469, -86.23205371762499 -31.746899254832442, -95.9588426313615 -41.63832767811002 M-71.84188405158783 -25.28384038507958 C-79.48534357558609 -31.550600591321412, -85.1436743836677 -37.18719397368886, -92.71313178065107 -43.38033286295672 M-70.73431103224719 -23.626623793319062 C-79.22393488125603 -30.669231203529712, -88.80346927485624 -39.67836794523966, -92.34224230880723 -44.17463748901923 M-66.31134979625233 -24.315280913743152 C-71.93317506436114 -32.36748621144615, -80.02161088729318 -37.54239891524599, -88.81652010221985 -45.48848313893475 M-66.52833998215385 -26.648544566142334 C-74.0961387797266 -32.975109652450364, -82.42743420983784 -39.65500357145422, -89.20972134721485 -45.70578029248215 M-66.49516180937204 -30.625358138633572 C-72.03291940763634 -32.807325807048656, -74.94759466507884 -40.19163019938681, -87.46926679170858 -47.674411277461616 M-65.37902896699521 -29.776923766759836 C-73.82916932631412 -35.67181783688188, -81.7938434700095 -43.22627684735939, -86.19073531299065 -47.68140208459255 M-59.60350542268888 -30.93039638458231 C-68.53621760236408 -36.61301194108695, -76.4515410094111 -42.43427637948355, -84.68394509130472 -48.861090911349805 M-61.015789392731946 -31.289914333284287 C-70.0154034032598 -37.75204061036597, -77.14498942011838 -46.25943177306263, -82.40888039754087 -51.21325823644415 M-58.43962303883592 -34.684237342382886 C-64.28327346331207 -38.00717270259978, -70.5103657440454 -44.7155955233145, -80.67705657341855 -53.865835952402335 M-59.181011611215865 -34.25201469479046 C-64.40011154533481 -38.93341472079366, -69.52264046349882 -44.29681194841781, -81.29910299749451 -52.66877252312122 M-57.23713748955511 -36.95476783686678 C-62.4272798542672 -45.90810980830376, -70.56130489701464 -50.82915551269616, -78.72519281979206 -54.90106447545068 M-55.65488827840768 -36.20309653939108 C-64.46971945966338 -44.62510822775437, -71.68209521035388 -52.41350743240578, -77.65136139381232 -55.98430100773649 M-28.17673169057356 -19.45956216012178 C-46.32305948561189 -32.63525573772663, -63.55005611254538 -48.59092861790839, -75.56829290283545 -59.63565289229785 M-28.95959400925325 -19.006547147455198 C-42.22175755325555 -32.04933856804094, -55.85639700278678 -42.03315985541283, -74.20138323312327 -57.538986215374216 M-4.166172540761936 -3.1119585646756116 C-23.76898001098713 -20.778550852164688, -48.52981497958791 -39.80338894040918, -72.26580506473628 -60.69569983575636 M-3.3268092768419866 -2.207845884791774 C-24.004387531537144 -21.476791241831247, -44.18345420441639 -39.62846241082717, -70.67432720683364 -60.468021017128166 M2.0766830516774237 -3.470399466084468 C-23.278146149278655 -24.215570338706133, -48.0303905136418 -45.874210853396995, -69.58110587790482 -65.1016442176292 M2.031773561405021 -3.2964044052382584 C-16.28726286501885 -18.91226727573291, -34.945459534018845 -35.644104997601865, -67.35670221157245 -62.912266688082575 M27.016235426586704 16.309172818326545 C-4.383950678170699 -14.787122110976783, -41.069910066818316 -45.367143661402075, -62.837661924082994 -67.76902911274786 M27.729297521111206 14.529537610598991 C2.8932607069168697 -8.114536806154526, -24.86166455970197 -29.502020403834646, -64.1400290283004 -66.3315167913502 M32.010483608634864 10.072864445304996 C4.645745428292425 -10.226490714673519, -19.69933024684709 -34.14300805384912, -60.322287275681084 -67.56985593291535 M29.72758242772678 10.1499608311863 C4.078855693022295 -12.459995277767764, -21.68904333586189 -33.52435663494743, -61.11159780364651 -68.37835135201527 M31.396779672763095 6.3798719597346185 C-3.380569030999716 -21.19299569353942, -36.491487883667894 -49.49759317699006, -58.14130517488661 -72.83334831094416 M31.235379281974183 7.421608188126147 C9.001241707748612 -13.859176065005485, -15.079424779069193 -35.02288096287527, -57.598129729017046 -71.21140074117156 M33.03284079656113 3.0261626998124065 C2.6244670489037105 -21.016711967756848, -26.566406760039392 -47.44358374272106, -55.60496719410982 -74.78307015863732 M33.0618823122244 2.889165281334275 C13.00695800017946 -14.861538020712183, -6.618717167910596 -32.989938328098, -55.737696201041004 -73.74496373390332 M35.59129414828703 -1.4624001592931286 C20.711352847921038 -10.70570482249121, 10.818287493694235 -21.669524629916925, -25.1781987677412 -55.38774159413954 M34.72377386251673 -1.5341145773020521 C18.61755765006581 -17.00696937689753, 1.1500531899889381 -31.911245735837564, -26.61796435332763 -54.31232343663653 M37.40170982530772 -4.547470808375497 C27.63030903228969 -10.318219185991003, 21.48613437302278 -18.146420697751477, 1.6451853042347153 -37.02849601493111 M37.09975733099937 -6.0963235668575955 C24.742115141561708 -13.978664547030906, 12.991802556823359 -24.788078245868824, 1.6620874399198016 -35.14550436013272" stroke="#be4bdb" stroke-width="0.5" fill="none"></path><path d="M-0.05082286521792412 -1.270526934415102 C-13.750005151880423 -6.173293232182523, -26.3398912442162 -17.687664682388682, -54.49900776324307 -38.55110792560794 M0.5267429705709219 0.40993242897093296 C-19.046453789758854 -12.529512358976419, -37.32998660422472 -24.38761594308244, -55.64273126413559 -37.228219508438485 M-56.263424457884184 -36.709374946787136 C-70.61251918491175 -23.559637599232538, -84.00595376718988 -12.657456985576758, -106.29343360838925 4.824184181070628 M-54.33003433038925 -36.03453063896217 C-65.38659955031781 -27.548997159606117, -77.54220311000554 -18.36150272636624, -104.81657566120361 6.234152778885068 M-105.22243160185849 7.162041427469553 C-113.95584759073039 13.096541300612053, -123.54483502432701 16.76379981735035, -131.78233372400462 20.863545413276086 M-106.07075799991821 5.598480686447324 C-113.9139005878058 11.701275722506008, -123.333522069513 16.950928654070747, -131.26500106397032 23.028377928918133 M-130.72454582880198 21.343034739753136 C-138.52720155014015 16.663885877467695, -142.76882051819638 11.04244154490727, -155.81195733911898 5.533599177669544 M-129.90393376889585 21.107778468316326 C-135.00799097299182 17.699668923441912, -139.944974730203 15.809712675596153, -154.15035777568426 4.606125735040564 M-155.89726636774446 3.5814783967247195 C-125.5568124111252 -16.042437974951767, -94.96073395744168 -38.80762857973183, -57.64487769591972 -72.52283868487729 M-154.60128694057073 3.804407500024695 C-129.13260113335167 -15.324691354110833, -103.17520772690251 -35.00552395472401, -56.97124198775157 -71.45356970015717 M-55.28441646087333 -70.69856176074398 C-29.90247957238834 -53.63811323254517, -3.24112973721995 -36.99840595006552, 38.21763952919525 -7.795970425597943 M-56.77078870634898 -71.3732231158371 C-21.64157923655099 -49.01598250820841, 12.51373088701969 -26.88452984220104, 37.42763579921109 -8.066020491189875 M38.331488215413515 -8.206037983886517 C33.46931056447914 -1.388400441104257, 30.793741412019635 5.567861027162721, 28.265899383511965 14.492299401642473 M38.13347543315274 -8.481050493783869 C35.22534803011894 -2.316287614689461, 33.19246868313729 1.5800442213388628, 26.898213933270995 16.947930819796117 M28.1595027084021 14.618395173432024 C20.011323099867674 10.814651889687315, 8.61652540808641 5.4505206950008915, -0.41953815147280693 0.4738902561366558 M27.854068826001708 17.01945782403806 C21.248810752804722 11.412104413501533, 13.874685434889235 7.246272753237896, -0.5997361782938242 0.13493757881224155 M0 0 C0 0, 0 0, 0 0 M0 0 C0 0, 0 0, 0 0" stroke="#000000" stroke-width="1" fill="none"></path></g></g></svg>