<svg version="1.1" xmlns="http://www.w3.org/2000/svg" viewBox="0 0 510.1388857553761 141.52960254763428" width="510.1388857553761" height="141.52960254763428">
  <!-- svg-source:excalidraw -->
  
  <defs>
    <style>
      @font-face {
        font-family: "Virgil";
        src: url("https://excalidraw.com/FG_Virgil.woff2");
      }
      @font-face {
        font-family: "Cascadia";
        src: url("https://excalidraw.com/Cascadia.woff2");
      }
    </style>
  </defs>
  <rect x="0" y="0" width="510.1388857553761" height="141.52960254763428" fill="#ffffff"></rect><g><g transform="translate(409.180373033166 56.31427213090507) rotate(12.22375238089985 29.242967942822133 21.950842635712945)" fill-rule="evenodd"><path d="M-37.227806919192936 36.53903682130061 C-37.227806919192936 36.53903682130061, -37.227806919192936 36.53903682130061, -37.227806919192936 36.53903682130061 M-37.227806919192936 36.53903682130061 C-37.227806919192936 36.53903682130061, -37.227806919192936 36.53903682130061, -37.227806919192936 36.53903682130061 M-33.76263198682996 36.13755135395583 C-23.3738936095788 27.079216558500864, -18.816226596544478 19.013603688373998, -0.3289670812921073 -0.28839853542619687 M-31.596351683679543 36.65406472765859 C-20.39590629493198 22.30934171138186, -9.144048201444072 9.499763632858777, -0.4793060551421191 0.6989947506529715 M-25.89009922018744 35.306084394151284 C-19.342686693919774 24.802341280550294, -8.250190286471767 14.444229277908896, 4.422029666613809 0.5950720513006154 M-26.901637573004738 37.338255550408675 C-20.99518608741456 29.766551910588017, -14.025831071650668 22.046926357678295, 2.377475705008975 1.9307914243777695 M-21.916889199456758 36.8862515430888 C-12.224945770400545 22.893184759321688, 0.2806238431992867 13.270109963137621, 4.973548501251875 5.860289266590043 M-22.368937706044502 36.0527900461098 C-12.909841810606656 28.287136899785878, -5.51921910991398 17.302261583773944, 6.135003093151985 4.434894876811668 M-15.059172716993928 37.85793094558893 C-7.1663234853184274 27.60666653114087, 4.000915800983801 13.598063627984402, 12.116658217237596 5.808940014594315 M-16.211859398592352 36.51912350802003 C-6.381576325379234 26.10956440595947, 2.3076663521052687 14.415521545261292, 9.465814630464916 6.938162910544394 M-10.088380978183443 39.085309505803906 C-4.529845372924401 29.100814692490427, 2.0823184782452806 19.609938817986155, 12.712931080195974 7.395858279688431 M-11.476614129470283 37.68286373872908 C-4.0890370393270885 30.19046046971799, 3.122101390032956 22.699235083598843, 14.460608559135268 7.535444158388449 M-5.705441717400303 36.08572120810873 C-0.488077253171352 30.826110132856908, 5.876020037510318 24.90535730398036, 19.256560884742516 8.469605966024618 M-6.7912536564907935 38.85760937104947 C1.8279557122826224 27.618723736156305, 9.771731386752748 18.999384686409176, 17.81536090034105 8.30515892293356 M-1.6347201690195057 38.0249375368784 C8.858637177695119 25.901588663149624, 18.58880590897394 16.512996845364885, 23.500126838521204 12.54131121842342 M-1.8346109874663803 39.095240287793686 C3.3491844249170626 33.03776841642411, 8.272270928718777 27.461325807737705, 22.082089338288746 10.453137497437769 M1.6259809325839498 39.4671674764879 C10.760681643569992 29.774550707949818, 16.37927573619491 24.466630972018713, 24.640947736147552 12.006410941037068 M2.5386996197904566 39.31091762177422 C8.290185511105795 33.87514544991093, 12.40558061328244 28.33160588332882, 25.480207394156366 13.909362684490809 M7.055421353035062 40.12505751131226 C12.260952960676756 34.716165491043185, 17.51908172248917 26.661308511865485, 30.946845843246553 14.913489118240559 M8.173282657467215 38.408083755803595 C17.358849480468635 29.045751099438128, 24.733429452678 20.620030737758682, 29.147288310131405 14.471808116905176 M13.35892335795883 40.609691625726455 C20.044209761806155 35.66278528825885, 21.697074404049125 26.930693867508168, 32.66220592544321 15.959567234408894 M13.487961367751396 39.403462322694295 C20.29006168329547 30.658289889533894, 27.029442859711526 23.764851478592007, 33.670124078401365 17.176728677493372 M19.218371712980254 38.18059130410549 C25.17025210004376 29.971206420431475, 31.708200545508078 24.499952622290778, 38.25797524836253 20.240104273917073 M17.3507777428305 39.55205820525882 C22.88641098602792 33.74075791171029, 26.961045995950514 28.462855140919885, 36.95972544115375 18.423660499067896 M23.542213683724327 38.49571553082438 C28.01201784009233 34.14406437966755, 31.239108584540297 31.540619913492254, 38.68166357762949 18.99899672114009 M22.953992524892016 40.47215753630967 C29.161940208233656 32.99381089677833, 36.02278302391702 25.16849021875133, 40.12632189057605 20.100420964441245 M29.715459035816068 39.36146079025811 C33.94291232664061 35.51801845312624, 37.944332879924865 27.65224885209775, 44.263402207859635 20.623868980230185 M27.689085206123465 40.27032769865936 C31.9552138882691 36.49608375353682, 35.690401392439966 32.733080814423744, 44.01042069784629 20.953399126203152 M33.84968003488046 42.48266106678168 C37.46064843047257 37.20754246417197, 38.62659218652095 34.70341070935568, 46.34170784669692 25.4149116960079 M33.02175402871233 41.66641732512037 C37.03670251353417 37.26483551564418, 40.53332045191533 32.29820204574294, 48.433570797170944 23.731394027611664 M37.03301144654251 41.21258784477009 C40.58907073604361 36.3484879016476, 46.93010157875315 31.078519139717336, 53.44983678875686 24.80662427262545 M38.36691598484612 42.118556298505204 C43.05589602032859 35.78356527081935, 47.72983629658889 30.229728637408236, 52.00971695972802 24.782357221256497 M41.66216794138582 40.3651048654573 C44.35076367701576 37.41585004152647, 48.43744615880383 35.2062704909146, 56.87875236900218 28.09014869581218 M42.976546407656684 41.928050226333916 C47.37860717333747 36.71403921293573, 51.39480547013195 32.72865345168596, 55.410446503140705 27.19769769652988 M48.123447493810545 42.549636418104576 C52.424710211473275 37.34506464703491, 53.53637500421776 35.163894847972166, 59.789836423295874 29.528083908160834 M48.49794665088166 41.59844739782851 C52.042792927835464 36.48719101852417, 56.61544314098092 32.80241599448727, 59.73101086189164 28.359409364660888 M52.77463518374309 41.369971590578714 C57.546544596312415 38.22643770152649, 59.91455191032721 33.911333610476696, 61.87212597922047 31.82678834579395 M53.882286142862284 41.389419233516016 C56.759725916094425 38.118100107135845, 59.434029915307875 34.443738786355354, 62.991913814922775 31.105405531520713 M58.84948535028973 40.80171540312459 C61.264304757368336 38.342725593043724, 64.57944415445903 34.822131624138606, 68.62991027273289 30.951872903590218 M58.32536903478333 41.78304959375401 C60.665413184354435 40.033379651638796, 63.0709965150776 36.657828460178536, 67.45692998003265 31.520163970735982 M64.62864021904383 42.92573947130107 C65.45824619722661 38.966463301588774, 68.78221201530147 37.90391128771915, 70.55391403201519 33.43688762059268 M64.00555264655117 42.06552767815405 C66.49710054949495 39.73795077004405, 69.56092584693897 35.84594940735645, 70.64058955132512 34.05088023060765 M68.35765885542182 41.92369051282046 C71.35829765480881 39.76771564124629, 72.92552434165238 38.11014739257014, 73.96678760140185 35.35650588564507 M68.75834656505882 42.52012239978401 C70.87915173599988 39.41055453305006, 73.74291096255321 37.061656724818924, 74.54182174014841 35.929417320824484 M73.63424710048818 42.25422254989954 C74.7565238253064 41.8203758318108, 75.86605181629464 39.76142986308767, 78.76538232976985 38.02218933815169 M73.5988810240709 43.09834781198861 C75.60357785337764 41.115653937257505, 77.14260042451733 39.053691362937435, 78.17755121386092 37.32639329863745 M79.03062251405734 43.63116538600511 C80.29371110353203 42.10905015931266, 81.68029002129813 40.12806901139028, 81.56793628474611 39.40370039876683 M78.65581164797712 43.13584882748759 C79.70017276821906 41.88771915561675, 80.92731853637143 40.768797017622894, 82.22979053044605 39.76999458067252 M83.84273312469375 43.561805855853954 C84.4549705555937 42.94995964419291, 85.14234225846579 42.19324025314949, 85.93829300270761 41.392383519394784 M83.67796007679206 43.70201059337566 C84.62923026628063 42.74255371864425, 85.16887846363016 42.04593577774694, 85.61478076351221 41.33308531793067 M88.68947617971187 44.03516907541289 C89.0057062913677 43.841059510592785, 89.23619887431396 43.42664559051135, 89.46012023878127 43.21444643318985 M88.71595459115541 44.074567866122564 C89.0245238140913 43.76308908228386, 89.26400257536457 43.435933687662214, 89.42713212729275 43.24531677078787 M93.74671174321594 44.39240941849161 C93.74671174321594 44.39240941849161, 93.74671174321594 44.39240941849161, 93.74671174321594 44.39240941849161 M93.74671174321594 44.39240941849161 C93.74671174321594 44.39240941849161, 93.74671174321594 44.39240941849161, 93.74671174321594 44.39240941849161" stroke="#4c6ef5" stroke-width="0.5" fill="none"></path><path d="M-1.7789331898093224 1.1159947142004967 C23.351567198694273 11.752653542643952, 50.410883249040864 21.614680940412274, 93.66320583443537 43.60504933075492 M-0.9177162535488605 0.9187249429523945 C32.037269424543126 15.632543255759142, 64.91829998095388 30.0026492822429, 95.22179198856846 44.11729548872893 M95.34662220101252 43.79648037628715 C65.62334010027799 41.77920403122064, 32.45041918805283 42.38263988705691, -36.32035609162914 37.08835610266616 M95.83896136875644 43.50044654311125 C45.70215515230353 42.31414122430634, -3.0965830919834048 37.844997360216865, -37.353025483112205 37.10415982346823 M-35.58426638520824 36.87457474585464 C-22.928918407241433 22.755799389692722, -14.489590217568317 10.74399414430436, -1.1452445015311241 1.9026665911078453 M-36.77147011659609 35.36325692277243 C-27.78659059196955 24.921955176051576, -16.757871042971768 15.85842289128706, 0.26354921981692314 -0.21561021730303764 M0 0 C0 0, 0 0, 0 0 M0 0 C0 0, 0 0, 0 0" stroke="#000000" stroke-width="1" fill="none"></path></g></g><g><g transform="translate(388.2072905300122 93.12270321963621) rotate(12.412558218939948 55.584126852452755 11.334486819803715)" fill-rule="evenodd"><path d="M0 0 C0 0, 0 0, 0 0 M0 0 C0 0, 0 0, 0 0 M0.5358034954544956 5.390471409201403 C1.4778976206591883 4.312722096872374, 3.111225189267713 2.805761338700455, 4.848388409944719 -0.10370911920096332 M0.832021481278246 4.928865107461591 C2.099095254804958 4.079940832569949, 2.978096702295052 2.5755430553142658, 4.7870899281972115 0.1572784468380028 M0.9327991696351876 8.788602110623875 C4.310611638800092 7.200932713021204, 7.520048643868428 4.108239934706462, 9.495287419025791 0.8977126724714861 M1.7342307934814798 10.294516795008937 C4.9661899231543325 6.969019177471972, 6.737358073280523 4.389100094748956, 9.601624004458083 0.27102807459183814 M4.455320366047935 14.429216475605308 C7.543461610411411 11.578343232845755, 9.209271452681604 4.650968159751354, 16.290748144186573 2.721731347917739 M3.172465415247397 15.137886382832468 C6.774241514099821 11.321911433962542, 11.129742024548964 6.756608506912396, 14.939432383201558 1.758632840170685 M3.729920997153542 20.696222899614888 C8.694613528543664 10.707987194298177, 17.194764072770866 4.164908826369581, 20.7043623415921 0.8320087491859649 M4.859143893103621 19.41463330587657 C8.97341202410632 15.373859677838976, 12.898079768349263 11.51603251384609, 19.947729920426394 1.4284066594530795 M5.154032989418473 23.046045864392212 C9.850513161487733 18.581873478045743, 16.06405288094135 12.816223226089015, 25.358446228627656 3.634772262701107 M5.293618868118491 22.995996592957667 C11.904602695228814 14.834227396816678, 20.494142821874473 6.201515061001668, 24.34377087590525 2.240820999422384 M10.756038157091293 24.196751057305562 C18.011867762240552 15.524701795578832, 23.19644584145733 11.30222879170851, 29.15207150549356 1.859866296091134 M10.591591114000234 24.173534008809554 C15.228021719445849 18.35920808585694, 19.492355582121604 13.940512572617298, 29.914932902610936 1.9423665489638395 M19.257350339594463 20.4162711450938 C23.756128911277095 15.424966557979152, 30.476544664181546 8.763558180386624, 34.016825627574306 4.545447695203817 M17.169176618608812 22.182585446733594 C21.35412394355005 17.48031467639727, 25.88940654666501 12.112663102008012, 34.47109935436545 2.7925136304877167 M22.49599796332197 19.934972553827457 C25.970966238329982 15.496875753168279, 30.09093096261386 13.563258223161979, 39.438792579244904 4.4515262256641535 M24.39894970677571 21.31858080936282 C28.075951829942866 16.312332426729466, 30.840596724137583 13.100076767423845, 38.5914938639813 4.495241736181512 M29.832683070629827 22.440945888686 C31.828903936060456 17.118877924518447, 36.1179199491429 11.665863495029726, 45.55249384488034 3.0646741530971475 M29.391002069294444 20.057330428439197 C32.975450440815166 15.066113726285746, 37.827890967994804 11.916484980723057, 45.09362131427097 4.828749108232731 M34.65230908791202 21.367682575739973 C37.76802537824526 15.243111616616272, 42.20088400319601 13.054499689077325, 48.890888408855616 2.8480262431278014 M35.8694705309965 20.967701706595772 C38.45033058234489 16.927555206356264, 42.798011449545896 11.311577366863894, 49.15826783804697 3.520452738828876 M43.28112984998227 18.153846945794708 C45.163137587683906 15.576960438952423, 46.77505904480887 10.681466408551469, 54.13865964064337 3.5525103087347367 M41.55550826387555 18.57426398843009 C44.90986844580006 14.908218489150759, 47.932935522132645 11.36261137592265, 54.44183130009062 4.151683487072251 M46.04331039962847 20.13041537601453 C50.16665127178409 16.779947399770997, 53.20293348283625 11.972795573475578, 57.998015368929224 6.0522248345086 M47.03459221859951 19.095098926983294 C51.39355532522317 14.994000801506076, 54.35889986658962 10.88006989024082, 59.25701458511324 5.803389253340067 M52.194140341402665 17.001791216474523 C56.13160069833977 14.08167482897889, 56.986665918056566 12.25634482311194, 64.29009779036846 5.702144567153495 M52.47424096547969 17.63901603840714 C56.73067014119295 14.830078214113836, 60.11487265507897 11.082516236241887, 64.54426283013878 5.602779319553715 M60.6844523283877 16.430873448318724 C61.05783941341169 13.550443732570978, 63.1550960977525 13.502748486596468, 68.45971226029393 7.48167475973208 M59.505989960510334 17.07391364007342 C62.27672896947632 13.60989590256015, 63.8110689578113 11.462236959876826, 67.95341572732028 6.4417315888120665 M64.61957761451463 17.022816539030487 C68.31076073375257 12.391782152736546, 70.90876696765766 11.286732356712879, 74.04449380416206 6.410933257521325 M64.60380403112481 16.11617272909355 C68.48936395487793 12.786898554047227, 70.73124947029895 9.163252815876778, 73.02336886212012 6.488855951347583 M71.77502863402746 15.778137920519654 C74.08702677578975 13.57026812157359, 75.43548814588333 10.86972153824897, 78.78397909513878 7.044768433512121 M71.25834647654824 15.313714240772967 C74.01780141652686 12.700050176582756, 75.77084833579801 10.55761537702354, 78.82130499835328 7.003442501329749 M77.18904993007641 15.559375957425114 C79.6148927899812 13.75037456249211, 79.93029150256204 11.710247120006649, 83.15128862219552 6.982303429619087 M76.45862834038894 15.378820153723833 C79.87932930678885 12.035195887618924, 81.73448228391497 9.114599690145507, 83.6987550325195 7.7333961783355605 M83.70921393891953 14.175405301427247 C84.91063226532414 12.106505133857201, 86.32940469101182 10.402920718418047, 88.46065467288827 7.930290858283986 M83.29699518790626 14.364075139438512 C84.86265574432807 12.815190440532524, 86.02471328508052 10.500548688340915, 88.21138200303649 8.08924444301461 M88.25184437965613 13.248666556010788 C90.32862471483804 11.747383207724633, 90.50199959725654 10.93163981551079, 93.2189943803993 8.885666561693053 M88.55784726196539 13.613798506202942 C90.01664419879681 12.1066358072023, 92.05514327655021 10.499191964613761, 93.26097432231128 8.099442595623533 M94.92377124355221 12.809472160865731 C96.36664879773734 10.713926686608392, 97.63923971987013 9.648611442212484, 98.47381644715571 9.141005400746899 M95.20285879355902 12.644598539439208 C96.39638607644986 11.225888995809534, 97.59035343422127 9.399435023054806, 98.53520908878201 8.625209343798296 M100.59408919811708 12.48671342023671 C101.72562580717114 11.60690904390101, 102.18725700977153 10.36845758923225, 103.1919912667616 8.697077036067427 M100.84871650264127 12.001330107087496 C101.61514731755314 10.951025846527644, 102.62164266469333 9.745952262354523, 103.34495333672005 9.129156000330628 M106.58540517762246 11.859616582035368 C107.22679281171237 11.363867392136493, 107.28623553259482 10.652449242158632, 108.59477266233338 9.497177120446487 M106.28720687497349 11.829349414012677 C107.05422797000632 10.980158768746918, 107.84792720213088 10.270061912202834, 108.46781479075476 9.51375814821504" stroke="#228be6" stroke-width="0.5" fill="none"></path><path d="M-0.7371568456292152 0.7019046321511269 C3.0455920603498816 7.475996104069054, 1.196260169185698 16.82227241527289, 4.543442510068417 24.51340351253748 M-0.2249106876552105 -0.6638038046658039 C1.4634109659865502 8.477771312557161, 3.883611677102745 16.978421386517585, 5.634951759129763 22.756364952772856 M5.796946309506893 24.395306207239628 C32.11805949468166 19.843526968210938, 58.9847713861242 14.468767231181264, 109.84148456901313 11.301630832254887 M5.812750030308962 23.256713043898344 C31.520817047022287 21.051169573366643, 59.055705862157055 17.124013670757414, 111.9777157790959 9.3183727376163 M112.90266659110786 9.619019366800785 C88.67002030238511 8.55098705496639, 63.376687295362366 3.167248607985675, -1.7344128862023354 -1.84442987293005 M110.78438978269698 10.279200565069914 C79.60233948528767 8.120377458818258, 50.41476340107619 5.507405068911613, -0.8098722212016582 0.6580103747546673 M0 0 C0 0, 0 0, 0 0 M0 0 C0 0, 0 0, 0 0" stroke="transparent" stroke-width="1" fill="none"></path></g></g><g><g transform="translate(494.50992571571965 121.47381001462878) rotate(355.3714819066315 -92.02751227654517 -11.596825383603544)" fill-rule="evenodd"><path d="M-183.69193376180664 0.6456103322509108 C-183.69193376180664 0.6456103322509108, -183.69193376180664 0.6456103322509108, -183.69193376180664 0.6456103322509108 M-183.69193376180664 0.6456103322509108 C-183.69193376180664 0.6456103322509108, -183.69193376180664 0.6456103322509108, -183.69193376180664 0.6456103322509108 M-178.6066176149388 1.4806902279407328 C-177.8619318492861 -0.8958054676986286, -175.67138915315485 -2.4005219654191428, -174.3790626459339 -3.8740868049512214 M-178.51643459213423 0.7053840267733277 C-177.21093062040197 -0.5540603503673818, -176.11462368481602 -1.4144963676945737, -174.19828296513796 -4.358115102800221 M-171.76444838600278 -0.40920334304393213 C-170.7418220763914 -0.8688837510050491, -167.85994060571363 -3.1428178324078724, -165.24423453563955 -10.887804192275105 M-172.53786226430952 -0.07052308800340601 C-171.51956312579537 -1.9857222170397266, -168.61308946267755 -4.015267436244359, -163.82171472625936 -10.234085601911246 M-169.16975555940158 -0.2524160366162249 C-161.80569457342068 -2.5858160814737037, -159.42885688984563 -9.786089276458018, -153.61992769530733 -16.873743924548833 M-168.88797254859097 1.6952988025144151 C-164.9868529289336 -2.4642977623706432, -160.9721241165311 -7.365325095154569, -154.45338919228632 -14.893664597770183 M-163.3614210460256 0.6221355918439855 C-154.202671051231 -7.697424276603747, -146.453799700824 -14.251923611650202, -143.42892705730475 -20.60327832967134 M-161.51079192868576 0.3402587037178506 C-155.13792177296673 -8.041502456723034, -149.70608904851318 -14.729704545990533, -144.76773449487365 -20.177097218186574 M-159.06257726330034 2.2497259631246465 C-151.9326934029892 -3.926259896106899, -145.69444797280158 -10.337153149971675, -134.95040434855883 -23.214641940902865 M-158.06308876428477 0.5590619436890023 C-151.4067103708681 -6.681623070503176, -144.62754501792367 -13.220789803497569, -136.35285011563366 -22.674264409702218 M-150.7797096688697 -0.6893668175948306 C-146.41968032286283 -9.580987695708824, -139.12649922440553 -14.726680046143663, -133.97914364267564 -21.96965583217289 M-151.31367761459444 0.14392510416978155 C-146.14734890635762 -5.295700964190529, -141.72218739959806 -11.767533807006135, -131.2072554797349 -22.156142519684096 M-147.74510233633976 -1.0194638242438572 C-140.1915053512631 -5.073301863583076, -137.98699284879456 -10.035001426608135, -128.06907831032757 -19.686545638970244 M-146.0423279047833 1.605121837793277 C-144.02531129778237 -3.767634191261429, -138.89276825647383 -8.067459768950854, -126.99877555941228 -21.102456207058538 M-140.91836572335444 -0.8571619516430076 C-134.36449522326777 -9.051417219889764, -126.63938717169329 -16.71221026725679, -121.99994033814914 -20.18813617589271 M-141.6662916940578 0.008306226301414199 C-137.37805080364794 -5.720680718694472, -132.6236343568119 -11.056143512635982, -122.15619019286282 -20.524873059860823 M-136.48490890351977 2.676342726278264 C-130.9152646422456 -4.8871384393184485, -125.71624814810507 -14.318946373360296, -117.37120129974642 -20.806561016869765 M-135.36377590758647 0.8871894223272392 C-128.28071573675447 -7.620970314540377, -122.15051408781858 -14.98879469648958, -119.08817505525508 -18.846713175457936 M-130.85746733447976 -0.3324216853005737 C-127.2640873537023 -6.143307313182865, -123.65114642632966 -9.511531082445527, -112.25965915276333 -17.416229556721916 M-130.70047010457583 0.08086300761272014 C-123.27925679391204 -7.380681404548587, -118.01216350994328 -14.25218098906401, -113.4658884557955 -19.310916222107878 M-124.17457508984043 1.6984737396910106 C-120.25555054462666 -4.2749615632113045, -116.44616862069893 -6.785371939387172, -110.71791047080589 -18.146150369378653 M-124.75301871019437 1.6464756347908889 C-122.43270806496939 -3.291774684089269, -118.10536243410057 -8.336313518760285, -109.34644356965256 -18.06736479717764 M-119.30209262724573 0.05868210643248517 C-117.21765930432446 -3.4123837401387545, -114.00010491949814 -7.497361622011538, -106.43193724050862 -16.412898269437733 M-120.73554878364855 -0.3034436143962864 C-115.41918647586141 -4.028579735945947, -111.63590372402712 -8.316089074711746, -104.45549523502332 -17.58085148870248 M-115.33167902030169 0.03325734099438904 C-108.56016881490469 -3.4564401024006877, -104.26217381667846 -10.074152822862743, -100.93928394850599 -16.406485571496916 M-115.12314225010692 0.31169141268423317 C-109.78660901386996 -5.451984545413154, -104.09459919789185 -13.016709555842157, -100.03041704010474 -16.491950134717655 M-110.58231972665232 -0.8850224514438239 C-106.42438245095757 -3.906811283451722, -99.49045463839943 -9.087656249762238, -93.84723466840404 -14.576233349485683 M-110.27836366877597 1.3778472977744016 C-105.25868831842148 -4.993247521760838, -101.23447280118573 -10.076474720551273, -94.66347841006535 -15.47788708259015 M-104.0987988199036 1.2920216551883854 C-99.31652449607398 -3.6134294347916622, -96.06042513534791 -12.060499737975443, -90.49039985784671 -16.663738498224568 M-103.5747324648242 0.49904769350725786 C-100.20134681629197 -3.3423863579749606, -97.26491777633336 -8.053524559413995, -89.5844314041116 -14.660508250577998 M-98.6531261700186 -0.6842392874746319 C-97.2555088718271 -2.299706888082981, -93.27004135695863 -8.58722495391603, -87.36703383358113 -15.34292875351409 M-98.0546489127892 0.8114444323019382 C-95.55436125105095 -2.4634729459847056, -92.28972088390834 -6.583881261753525, -85.8040884727045 -13.707413878198961 M-94.21454696277472 0.7120280204324558 C-91.12297013123678 -1.9793035038469877, -87.21206528899685 -8.213614670548363, -79.5387234099066 -12.431113121022042 M-93.40929150706472 0.9981305975450708 C-90.12007248004542 -1.9597937363515903, -86.78467185240417 -6.919543951545628, -80.66826037148444 -13.909785444584248 M-87.23382684248402 -1.1877889687909686 C-84.84099257155091 -1.437106074806249, -83.31312632246573 -6.987306610446973, -77.0400388118532 -11.707428065011415 M-88.72740771002039 0.8701541832865275 C-84.28201479365461 -3.579985537438838, -81.07741009685805 -7.813930012839726, -77.0164238168579 -12.48800464707813 M-83.13354077152391 1.060496785963909 C-78.58295164801658 -1.8462641821010093, -75.31751602921543 -6.29630430532575, -73.8540174578833 -12.351198164775735 M-82.2565472852387 0.013073259319202002 C-79.99962404406217 -2.8238904668278573, -76.79397232543562 -7.816871966312954, -72.64622153095479 -11.634009398177033 M-77.18205366469921 -0.9461132205724001 C-73.79543572843642 -5.287735061048473, -69.34619431262198 -7.051020032995668, -66.60382128264845 -11.792268963575388 M-77.72332253027709 -0.03552353025220617 C-74.72619139703028 -2.2348172391839825, -73.62270107112022 -4.667231545713461, -67.77683736421258 -10.951542145617331 M-73.42393025052316 0.9685669109372455 C-68.05897555903904 -3.6267274158610627, -64.4061435846118 -8.134727587970447, -64.2585877685681 -9.305858370666975 M-72.98686974499887 0.31622907334547823 C-69.24953520787061 -1.8081206773678855, -66.91914268570999 -5.083016388695519, -63.330804833291474 -10.295789632578963 M-67.26460656342196 0.6415234308139008 C-65.63662315643037 -2.505282576313367, -63.76482368786523 -4.076922928541483, -59.528013203974716 -10.001696444323196 M-66.41336352736789 0.594116797056846 C-63.55914160508826 -2.3061365843275494, -60.551778759332635 -6.493587266306508, -57.96035200295215 -9.12786188407047 M-62.50597155065888 -0.548421042855294 C-58.2080099370907 -2.6920157610099222, -56.42984837704843 -4.589272329893527, -53.13543429003781 -7.905489375050651 M-62.37155931787246 0.4644677902800723 C-58.817137040186424 -2.7815368567665284, -56.79231682523967 -6.0713977092523255, -54.324194030479845 -8.926920252646791 M-55.47553616175627 1.1574931333303735 C-54.31743475266686 -2.0257449434000616, -52.42007328565234 -2.964084623270636, -49.9382280421469 -7.243245013372142 M-55.801797311475624 0.20553503022494723 C-53.772370459734624 -1.9985063685010802, -51.5802951843628 -4.805440103366971, -49.47087891707454 -6.833628645480712 M-51.98435522368888 0.0919090232191132 C-48.79143291405368 -2.074729472573154, -47.91277876460029 -3.8001314770409858, -44.554579605300226 -7.010195548043946 M-50.92201584516803 0.276049602994089 C-48.17214076483788 -2.552295807713443, -46.308765366892644 -5.72325035886001, -44.16059169820348 -6.819932081134418 M-45.3187375733193 -0.3192335280045824 C-43.485780116328684 -1.1907363803940643, -42.00025605314411 -3.8044467030291838, -39.99541573583494 -6.091600168413469 M-45.38266979097686 0.008687923623625748 C-43.62901306884611 -2.5077524507633906, -41.749772760095425 -4.757334857612786, -40.62673329322944 -6.021413158542463 M-40.00674057137098 0.8274019577932762 C-38.643129347663695 -1.658564439447438, -37.92587874606882 -2.7565984729571724, -35.804015047363194 -6.049612509764045 M-40.809404793194204 0.22275032935861827 C-39.341160202725284 -1.4504719263934387, -37.13059809163557 -3.344042343194365, -34.896466037146 -5.7513403157957494 M-34.584669907581294 -0.04032979154290722 C-33.85998620501642 -1.2544621410770476, -32.23178871568186 -3.0288413259309213, -30.89736499187037 -4.82533139538473 M-34.98264327031025 0.18747791914937934 C-33.914704856203954 -1.2481379962899415, -32.952167013392675 -2.470412317930876, -30.679174325954758 -4.343696983051361 M-30.451255645463004 0.5388713595000094 C-28.78257074175601 -0.43896984121856464, -27.464227648080755 -1.9935814656272313, -26.1772006992345 -3.6354071303281392 M-30.170907253259553 0.23611141224475574 C-28.623695192693607 -0.9944847576216801, -27.394546621544023 -1.8793366676183372, -26.01680087299098 -3.975394529384693 M-23.94550418505008 0.026873410098207928 C-23.380425074814813 -1.1585117770390099, -22.15965444758844 -2.013984922025654, -22.00345386201102 -3.1823750956531103 M-24.11140860640938 0.05454997529829836 C-23.807569062737652 -0.8032190520499608, -22.93522189648807 -1.2825400136061078, -21.774758106559105 -3.0095636761363083 M-18.427724936474924 -0.09176216022949668 C-18.422555837888257 -0.638126372810451, -17.758680102745046 -0.8997013879260483, -17.451009009574534 -1.7974507136422644 M-18.678711283449893 -0.25371698895376193 C-18.207023829839123 -0.7236536767620182, -17.699805156216346 -1.4270299581838155, -17.341399140824556 -1.8194762835431346 M-13.703880176233469 -0.04198610569841743 C-13.496513980224696 -0.33918607756103136, -13.092341759842732 -0.5972309431401159, -12.178529148014722 -1.3826989205857951 M-13.694672281207858 0.0323146755664837 C-13.301678479593596 -0.25243854479679995, -13.01026778284782 -0.6302033456281351, -12.33855635135108 -1.4558311699262103 M-7.967421809501877 -0.30090914684368775 C-7.967421809501877 -0.30090914684368775, -7.967421809501877 -0.30090914684368775, -7.967421809501877 -0.30090914684368775 M-7.967421809501877 -0.30090914684368775 C-7.967421809501877 -0.30090914684368775, -7.967421809501877 -0.30090914684368775, -7.967421809501877 -0.30090914684368775 M-2.980406401639267 0.05919822845002565 C-2.980406401639267 0.05919822845002565, -2.980406401639267 0.05919822845002565, -2.980406401639267 0.05919822845002565 M-2.980406401639267 0.05919822845002565 C-2.980406401639267 0.05919822845002565, -2.980406401639267 0.05919822845002565, -2.980406401639267 0.05919822845002565" stroke="#4c6ef5" stroke-width="0.5" fill="none"></path><path d="M0.7867350801825523 0.48905549198389053 C-39.22510777011514 -5.995606041178098, -77.65681722730397 -16.365066787824013, -136.8840052857995 -25.819150827825034 M-0.7702009193599224 -0.3685784228146076 C-39.524546678662304 -7.410252921804776, -79.70902547344566 -16.07168652616439, -137.0812750570476 -24.228278744965756 M-137.96363136917353 -24.449821375310385 C-156.4208164760843 -15.431900525689104, -172.66886939127 -4.950221561118951, -184.545725800097 2.2699035182595253 M-137.65390403196216 -23.601526845246518 C-150.10846685450525 -16.236815143674583, -163.25999144967645 -9.123513898178917, -184.8417596332729 0.42074228450655937 M-184.68095491081476 2.6255000606179237 C-116.30667977433652 1.7738212256878616, -47.73610035579651 3.2463372926414014, 0.5831649526953697 1.9554315581917763 M-184.57262225076556 1.9513332955539227 C-141.52413611922412 3.0416000308841467, -97.9970798156038 2.2089132478833196, -0.9281528703868389 -0.8672064431011677 M0 0 C0 0, 0 0, 0 0 M0 0 C0 0, 0 0, 0 0" stroke="#000000" stroke-width="1" fill="none"></path></g></g><g><g transform="translate(390.7695420906489 81.4078978970681) rotate(355.3714819066315 -0.2818871284173383 10.249525480498647)"><path d="M-1.4419888812944994 0.35300567955228956 C1.1258343040095196 3.9068149386872553, 0.9169066550549839 10.698900867341274, -0.06317621020441688 20.464510617154648 M0.8782146244598603 0.03454034384267024 C-1.0794816150613453 3.8723607914401885, -0.5121515107985881 9.13974946330153, -0.9137868077244848 20.019843225316347" stroke="#000000" stroke-width="1" fill="none"></path></g></g><g><g transform="translate(11.727865178883121 9.380049864947807) rotate(0 170.22571689337485 42.98295038491486)"><path d="M-1.7278651788830757 0.6199501350522043 C15.57559127062559 10.432891034583253, 72.24280784179767 44.51066474864881, 104.21296910494566 58.63166483193636 C136.18313036809366 72.75266491522392, 163.8647486930092 86.08416024794182, 190.09310240000485 85.34595063477755 C216.3214561070005 84.60774102161328, 254.5326617325346 64.54782450944185, 261.58309134691956 54.20240715295076 C268.63352096130455 43.85698979645967, 242.60356193433205 25.30479880919059, 232.39568008631468 23.273446495831013 C222.18779823829732 21.242094182471437, 200.70998510569333 33.82437025656303, 200.33580025881528 42.014293272793296 C199.96161541193723 50.20421628902356, 206.50998788724343 65.69197179426749, 230.15057100504637 72.4129845932126 C253.79115412284932 79.13399739215771, 323.1038144196073 80.69251553167899, 342.17929896563294 82.34037006646395" stroke="#000000" stroke-width="1.5" fill="none" stroke-dasharray="12 8"></path></g></g></svg>